if (_typeface_js && _typeface_js.loadFace) _typeface_js.loadFace({"glyphs":{"S":{"x_min":130.0625,"x_max":1814,"ha":1946,"o":"m 1814 -198 l 1814 1165 l 1809 1169 q 1795 1169 1808 1169 q 1764 1172 1783 1170 q 1735 1173 1746 1173 l 1711 1173 q 1668 1172 1686 1173 q 1618 1169 1650 1172 q 1610 1159 1613 1167 q 1608 1140 1608 1151 q 1608 1121 1607 1130 q 1608 1108 1608 1112 q 1606 1081 1608 1096 q 1604 1066 1604 1066 l 1595 1062 l 1375 1062 q 928 1062 1149 1062 q 482 1066 707 1063 q 457 1067 475 1066 q 418 1068 439 1067 q 380 1069 398 1069 q 355 1070 362 1070 q 346 1084 346 1080 l 346 1188 q 297 1190 325 1190 q 244 1192 269 1191 q 203 1193 219 1193 q 186 1193 186 1193 l 135 1179 l 131 -123 l 131 -147 q 130 -160 131 -152 q 131 -178 129 -169 q 135 -194 132 -187 q 144 -204 137 -202 q 935 -206 542 -204 q 1720 -208 1327 -208 l 1809 -208 l 1814 -198 m 1595 465 q 1592 436 1595 454 q 1590 418 1590 418 l 1581 413 l 1351 413 q 1339 424 1340 413 q 1338 441 1338 434 l 1338 591 q 1350 637 1338 616 q 1382 674 1363 658 q 1424 699 1401 690 q 1468 708 1447 708 q 1537 693 1511 708 q 1575 652 1563 677 q 1591 593 1588 626 q 1595 526 1595 561 l 1595 465 m 1595 7 q 1592 -21 1595 -3 q 1590 -39 1590 -39 l 1581 -44 l 1351 -44 q 1339 -33 1340 -44 q 1338 -16 1338 -23 l 1338 133 q 1350 179 1338 158 q 1382 216 1363 200 q 1424 241 1401 232 q 1468 250 1447 250 q 1537 235 1511 250 q 1575 194 1563 219 q 1591 135 1588 168 q 1595 68 1595 103 l 1595 7 m 644 445 l 640 437 l 603 431 q 572 432 594 431 q 526 434 550 433 q 479 436 501 436 q 449 437 457 437 q 433 436 443 437 q 411 436 422 434 q 392 441 400 437 q 383 455 383 444 l 383 586 q 394 632 383 611 q 424 670 406 654 q 466 695 443 686 q 514 704 489 704 q 583 684 557 704 q 623 633 610 663 q 640 565 636 602 q 644 493 644 527 l 644 445 m 645 -12 l 640 -20 l 603 -26 q 572 -25 595 -26 q 526 -23 550 -25 q 479 -21 502 -22 q 449 -20 457 -20 q 433 -22 443 -20 q 411 -22 422 -23 q 392 -17 400 -20 q 384 -2 384 -13 l 384 127 q 395 174 384 152 q 424 211 406 195 q 466 236 443 227 q 514 245 489 245 q 584 225 557 245 q 623 175 610 205 q 640 106 636 144 q 645 34 645 69 l 645 -12 "},"/":{"x_min":81.453125,"x_max":525.046875,"ha":592,"o":"m 525 427 q 516 436 523 428 q 498 455 509 444 q 481 474 487 467 l 480 476 l 477 478 q 464 489 473 482 q 455 496 455 496 l 450 496 q 436 485 450 496 q 416 467 423 474 l 362 413 l 302 353 q 275 325 291 342 q 243 291 258 307 q 217 264 227 276 q 206 253 206 253 l 206 244 l 222 228 q 250 201 237 213 q 279 176 262 189 q 299 184 287 171 q 315 201 311 196 q 325 212 318 205 q 334 220 333 219 q 388 276 356 242 q 450 341 420 309 q 502 396 480 373 q 523 419 523 419 l 525 427 m 390 551 q 377 563 387 554 q 365 577 368 573 q 347 597 354 587 q 332 611 340 607 q 316 615 325 616 q 295 602 308 613 l 238 545 l 184 491 q 175 481 181 488 q 159 463 168 473 q 143 446 151 454 q 134 437 136 438 q 114 420 126 429 q 93 400 102 411 q 81 377 84 388 q 91 354 79 366 l 97 348 q 120 327 102 343 q 145 306 138 312 q 158 306 151 298 q 180 325 170 316 q 199 341 190 333 q 217 359 208 350 q 237 379 226 368 q 307 452 273 415 q 380 527 341 490 q 388 537 383 530 q 390 551 393 544 "},"K":{"x_min":38.890625,"x_max":2137.671875,"ha":2200,"o":"m 2137 750 l 2137 929 l 2137 1102 l 2072 1124 q 2014 1125 2072 1124 q 1856 1126 1957 1126 q 1620 1128 1755 1127 q 1332 1129 1486 1129 q 1011 1129 1177 1129 q 684 1129 845 1129 q 372 1127 523 1129 q 100 1124 222 1126 q 76 1124 88 1124 q 61 1111 63 1124 q 50 828 50 969 q 51 544 51 686 q 48 210 51 376 q 43 -123 45 44 q 40 -140 43 -126 q 38 -158 38 -155 l 38 -162 q 51 -181 38 -174 q 73 -191 63 -188 q 400 -190 237 -184 q 726 -197 562 -195 q 1018 -194 873 -197 q 1309 -197 1162 -191 q 1608 -200 1461 -201 q 1907 -197 1755 -199 q 1948 -196 1918 -197 q 2011 -195 1977 -196 q 2074 -194 2044 -195 q 2115 -194 2104 -194 q 2129 -175 2129 -194 q 2130 -153 2129 -170 q 2131 -119 2130 -137 q 2132 -86 2132 -102 q 2133 -63 2133 -70 l 2133 350 q 2133 390 2133 359 q 2134 462 2133 421 q 2135 550 2134 504 q 2136 637 2136 595 q 2137 709 2137 679 q 2137 750 2137 740 m 2084 615 q 2075 586 2084 591 q 2041 579 2065 580 q 1716 577 1877 576 q 1393 580 1554 577 q 1370 591 1373 583 q 1366 619 1366 600 q 1370 651 1366 643 q 1401 663 1375 659 q 1425 663 1408 663 q 1462 663 1443 663 q 1498 662 1482 662 q 1523 662 1516 662 q 1773 662 1648 661 q 2023 662 1898 663 q 2048 659 2030 662 q 2072 658 2065 657 q 2084 640 2084 655 q 2084 615 2084 625 m 2089 215 q 2088 182 2089 205 q 2086 134 2087 159 q 2085 86 2086 108 q 2084 54 2084 63 q 2080 35 2084 40 q 2064 26 2076 30 q 2039 26 2057 26 q 2002 25 2022 26 q 1964 25 1982 25 q 1941 25 1947 25 q 1663 21 1800 22 q 1389 24 1526 21 q 1370 27 1377 24 q 1362 44 1362 30 l 1362 548 l 1375 555 q 1389 555 1376 555 q 1420 556 1402 555 q 1455 556 1437 556 q 1484 556 1473 556 q 2064 552 1775 561 q 2073 552 2066 552 q 2084 545 2082 552 q 2088 438 2087 486 q 2089 331 2089 391 l 2089 215 m 1340 357 q 1338 171 1340 259 q 1335 -13 1337 84 q 1323 -31 1335 -25 q 1295 -38 1310 -36 q 1264 -38 1280 -39 q 1240 -36 1248 -36 q 1105 -33 1170 -38 q 970 -32 1040 -29 q 953 -32 967 -32 q 926 -33 941 -32 q 898 -34 912 -34 q 883 -34 885 -34 q 856 -29 870 -34 q 840 -8 842 -24 q 839 7 840 -3 q 837 30 838 18 q 836 52 837 42 q 835 66 835 61 l 844 635 q 848 656 844 649 q 866 666 852 663 q 881 666 869 666 q 901 667 894 666 q 1033 666 966 668 q 1166 663 1099 664 q 1197 663 1171 663 q 1252 663 1223 664 q 1306 660 1281 663 q 1335 649 1331 657 q 1336 629 1335 643 q 1337 598 1337 614 q 1339 568 1338 582 q 1340 548 1340 553 l 1340 357 m 822 622 q 814 591 822 598 q 783 583 807 583 q 452 578 619 580 q 116 583 284 576 q 98 595 101 586 q 95 618 95 605 l 95 627 q 97 644 95 630 q 100 662 100 658 q 112 670 108 670 q 129 671 118 670 q 151 672 140 672 q 175 672 163 672 q 191 672 186 672 q 365 674 279 675 q 540 670 451 673 q 673 668 608 668 q 809 665 740 668 q 822 647 822 662 q 822 622 822 632 m 1336 -165 q 1331 -172 1336 -168 q 1323 -177 1326 -177 l 979 -183 q 950 -181 972 -181 q 903 -180 927 -181 q 859 -175 879 -179 q 840 -163 840 -172 l 840 -73 q 859 -55 840 -59 q 887 -51 877 -51 l 897 -51 q 922 -51 901 -51 q 968 -51 944 -51 q 1014 -52 993 -51 q 1040 -52 1036 -52 q 1059 -52 1043 -52 q 1079 -51 1076 -51 q 1127 -51 1097 -51 q 1191 -52 1159 -51 q 1246 -52 1222 -52 q 1275 -52 1271 -52 q 1305 -54 1286 -52 q 1323 -55 1323 -55 l 1336 -69 l 1336 -165 m 822 304 q 821 253 822 289 q 820 175 820 216 q 818 98 819 134 q 818 47 818 61 q 812 33 818 40 q 795 26 807 26 l 766 26 q 745 25 759 26 q 730 25 730 25 q 486 25 608 22 q 243 29 365 28 q 226 29 240 29 q 197 28 213 29 q 168 28 181 28 q 152 28 155 28 q 105 32 125 26 q 86 69 86 37 l 86 157 l 86 240 q 85 393 86 312 q 95 548 84 473 q 104 562 95 551 q 129 563 111 562 q 168 564 147 564 q 207 564 188 564 q 234 565 226 565 q 266 566 245 565 q 306 566 287 566 q 343 567 327 566 q 361 568 359 568 q 570 567 459 569 q 783 561 682 565 q 798 560 786 561 q 818 553 811 559 q 818 523 818 544 q 820 480 819 503 q 821 437 820 457 q 822 408 822 416 l 822 361 l 822 304 m 1893 276 l 1893 402 q 1881 425 1890 415 q 1858 437 1872 434 q 1766 441 1816 444 q 1676 437 1715 438 q 1652 437 1669 437 q 1617 436 1636 437 q 1582 436 1598 436 q 1558 436 1565 436 q 1525 415 1539 433 q 1511 377 1511 397 q 1508 256 1511 315 q 1505 138 1505 197 q 1516 84 1505 105 q 1562 65 1526 63 q 1579 67 1565 65 q 1597 69 1594 69 q 1614 90 1608 77 q 1632 106 1619 102 q 1655 106 1639 106 q 1680 108 1673 106 q 1694 108 1684 108 q 1717 107 1705 108 q 1740 106 1729 106 q 1758 104 1751 105 q 1767 97 1764 102 q 1774 85 1770 91 q 1782 74 1777 79 q 1793 69 1786 69 l 1876 70 q 1886 80 1883 70 q 1889 93 1889 90 q 1894 186 1895 138 q 1893 276 1893 233 m 1258 308 l 1258 434 l 1258 561 q 1252 571 1258 568 q 1244 577 1247 575 q 1120 584 1182 584 q 997 583 1059 584 q 961 580 980 581 q 936 559 943 579 q 935 524 936 550 q 934 470 934 498 q 932 416 933 441 q 932 380 932 390 l 932 315 l 932 245 q 941 228 934 233 q 962 219 948 223 q 1070 217 1020 216 q 1179 219 1120 218 q 1204 220 1187 219 q 1232 220 1220 220 q 1244 220 1243 220 l 1254 230 q 1254 245 1254 231 q 1257 277 1255 258 q 1258 308 1258 297 m 705 437 q 698 462 705 452 q 679 478 690 471 q 655 486 668 484 q 630 488 641 488 q 587 482 604 488 q 557 467 571 475 q 529 450 543 459 q 496 437 515 442 l 461 437 q 437 436 451 437 q 422 435 422 435 q 411 436 421 435 q 389 438 401 437 q 368 440 377 439 q 357 441 358 441 q 327 434 343 439 q 312 413 312 428 l 312 138 q 318 130 312 135 q 326 121 323 124 q 364 121 337 121 q 422 119 391 120 q 480 118 452 119 q 518 117 507 117 l 579 117 q 590 117 582 117 q 609 118 600 117 q 628 119 619 119 q 640 119 636 119 q 648 131 648 127 q 652 244 651 187 q 653 357 653 302 q 664 378 655 369 q 682 396 673 387 q 698 414 691 405 q 705 437 705 424 m 1689 377 q 1682 365 1689 370 q 1668 355 1676 359 q 1652 348 1659 351 q 1641 345 1644 345 q 1652 370 1641 359 q 1676 380 1662 380 l 1680 381 l 1689 377 m 1750 355 q 1734 336 1750 348 q 1698 313 1718 325 q 1658 293 1677 302 q 1632 284 1639 284 l 1632 302 q 1689 331 1662 315 q 1741 365 1715 348 l 1745 365 l 1750 359 l 1750 355 m 1768 318 q 1756 308 1768 318 q 1737 294 1744 298 q 1716 281 1733 291 q 1693 269 1700 272 q 1683 261 1690 265 q 1676 258 1676 258 l 1672 262 q 1690 279 1676 269 q 1719 299 1704 290 q 1748 315 1734 308 q 1768 322 1762 322 l 1768 318 m 1750 259 q 1745 255 1750 255 q 1746 259 1743 255 q 1750 259 1750 262 m 1793 183 q 1788 164 1793 172 q 1776 156 1783 156 q 1745 186 1745 156 q 1753 199 1745 193 q 1772 205 1761 205 q 1793 183 1793 205 m 1636 180 q 1630 162 1636 166 q 1615 158 1625 158 q 1596 163 1604 158 q 1589 183 1589 169 q 1596 196 1589 190 q 1611 202 1604 202 q 1636 180 1636 202 m 670 433 q 661 423 670 423 q 646 429 651 423 q 630 436 641 436 q 623 436 629 436 q 611 438 618 437 q 597 438 604 438 q 587 438 590 438 l 583 444 l 583 448 q 588 454 583 452 q 601 457 594 456 q 614 458 608 458 q 622 458 620 458 q 634 457 626 458 q 651 454 643 456 q 665 446 659 451 q 670 433 670 441 m 614 244 q 613 228 614 240 q 611 203 612 216 q 610 178 611 190 q 609 162 609 166 l 605 158 q 570 151 589 149 q 534 152 551 152 q 522 152 530 152 q 505 151 514 152 q 490 151 497 151 q 483 151 484 151 q 461 151 476 151 q 427 152 445 152 q 395 153 411 152 q 373 154 380 154 q 357 158 366 156 q 348 169 348 159 q 348 208 348 180 q 345 269 347 237 q 343 329 344 301 q 343 369 343 358 l 343 374 q 373 410 343 409 q 482 410 426 412 q 591 401 539 408 q 600 398 594 401 q 605 388 605 395 q 598 379 605 385 q 582 365 591 372 q 562 353 572 358 q 548 348 552 348 q 487 355 519 347 q 426 362 455 363 q 409 358 419 362 q 400 341 400 354 q 407 322 400 330 q 413 301 413 315 q 409 288 413 294 q 399 278 404 283 q 390 267 394 273 q 387 258 386 262 q 392 250 387 251 q 400 249 397 249 q 418 256 411 249 q 438 263 426 262 q 451 260 450 263 q 452 247 452 256 l 452 233 q 443 219 452 230 q 430 205 433 209 l 430 201 q 458 209 447 202 q 483 216 469 216 l 487 216 q 508 200 494 209 q 534 191 522 191 q 559 213 554 191 q 566 260 564 234 q 573 309 568 287 q 600 331 579 331 q 610 331 604 331 q 614 323 616 330 l 614 284 l 614 244 m 1607 188 q 1609 193 1609 188 q 1607 197 1609 197 q 1602 193 1602 197 q 1607 188 1602 188 "},"7":{"x_min":81.953125,"x_max":1598.734375,"ha":1677,"o":"m 1515 462 q 1511 465 1515 465 q 1508 462 1508 465 q 1511 459 1508 459 q 1515 462 1515 459 m 1333 638 q 1329 641 1333 641 q 1326 638 1326 641 q 1329 636 1326 636 q 1333 638 1333 636 m 1322 641 q 1316 644 1322 644 q 1312 641 1312 644 q 1316 638 1312 638 q 1322 641 1322 638 m 1493 466 q 1484 469 1495 469 q 1476 466 1473 469 q 1484 463 1479 463 q 1493 466 1490 463 m 1465 430 q 1468 433 1468 430 q 1465 437 1468 437 q 1461 433 1461 437 q 1465 430 1461 430 m 1472 420 q 1475 423 1475 420 q 1472 427 1475 427 q 1469 423 1469 427 q 1472 420 1469 420 m 1476 416 q 1479 419 1479 416 q 1476 423 1479 423 q 1473 419 1473 423 q 1476 416 1473 416 m 1468 423 q 1470 426 1470 423 q 1468 430 1470 430 q 1465 426 1465 430 q 1468 423 1465 423 m 1497 375 l 1497 379 l 1497 383 l 1493 393 l 1493 390 q 1497 375 1493 379 m 1518 298 q 1511 302 1518 302 q 1515 297 1511 297 l 1518 298 m 797 950 l 797 952 l 793 952 l 797 950 m 788 957 q 787 959 788 959 q 786 957 786 959 q 787 954 786 954 q 788 957 788 954 m 752 994 q 747 1007 752 1000 q 734 1015 743 1015 q 717 1007 720 1015 q 713 991 713 998 l 713 977 q 720 971 716 975 q 727 968 725 968 q 752 994 752 968 m 716 1026 q 711 1036 716 1029 q 698 1043 705 1043 q 686 1037 693 1043 q 680 1026 680 1032 q 694 1008 680 1008 q 716 1026 716 1008 m 680 1057 q 677 1070 680 1062 q 666 1077 673 1077 q 649 1069 658 1077 q 640 1052 640 1061 q 655 1037 640 1037 q 673 1043 666 1037 q 680 1057 680 1048 m 633 1088 q 626 1100 633 1094 q 611 1105 619 1105 q 590 1098 598 1105 q 581 1077 581 1091 q 589 1063 581 1066 q 604 1061 597 1061 q 624 1067 615 1061 q 633 1088 633 1073 m 577 1100 l 577 1122 q 570 1127 577 1123 q 554 1134 563 1130 q 538 1141 545 1138 q 529 1144 530 1144 q 512 1139 519 1144 q 505 1126 505 1134 q 511 1110 505 1112 q 529 1105 518 1108 q 543 1093 536 1102 q 556 1084 550 1084 q 567 1088 556 1084 q 577 1100 577 1093 m 498 1151 q 496 1161 498 1154 q 488 1168 494 1168 q 475 1163 480 1170 q 470 1151 470 1155 q 484 1137 470 1137 q 498 1151 498 1137 m 819 876 q 809 897 822 890 q 786 905 797 905 q 773 903 777 905 q 761 901 769 901 q 754 929 761 915 q 734 943 748 943 q 713 936 723 943 q 693 918 702 929 q 679 897 684 908 q 673 876 673 886 q 694 850 673 850 q 732 861 716 850 q 739 851 737 858 q 744 838 741 844 q 752 827 747 832 q 772 822 758 822 q 804 841 791 822 q 819 876 816 861 m 694 950 q 685 970 694 963 q 662 977 676 977 q 641 970 651 977 q 624 954 632 963 q 612 932 616 944 q 608 912 608 920 q 636 883 608 883 q 656 890 645 883 q 675 907 666 897 q 688 929 683 918 q 694 950 694 941 m 615 987 l 615 991 q 603 1011 615 1002 q 581 1019 591 1019 q 545 1000 561 1019 q 529 963 529 982 q 556 936 529 936 q 572 940 562 936 q 590 950 583 944 l 615 987 m 543 1030 q 537 1048 543 1040 q 520 1057 531 1057 q 483 1036 501 1057 q 465 998 465 1016 q 472 986 465 990 q 488 982 480 982 q 526 996 509 982 q 543 1030 543 1011 m 481 1075 q 472 1091 481 1082 q 455 1100 462 1100 l 451 1100 l 441 1095 l 437 1095 q 431 1102 431 1095 q 429 1118 430 1109 q 423 1133 427 1126 q 409 1140 419 1140 q 377 1122 390 1140 q 365 1088 365 1104 q 366 1075 365 1083 q 376 1068 368 1068 q 403 1079 388 1068 q 423 1095 418 1090 l 430 1088 q 421 1065 430 1077 q 412 1040 412 1052 q 417 1026 412 1033 q 430 1019 422 1019 q 466 1037 450 1019 q 481 1075 481 1055 m 369 1163 q 363 1182 369 1175 q 345 1188 356 1188 q 326 1175 334 1188 q 318 1151 318 1161 q 322 1136 318 1145 q 336 1126 327 1126 q 361 1138 352 1126 q 369 1163 369 1151 m 1569 -43 q 1561 -13 1569 -27 q 1541 13 1552 0 q 1529 27 1537 18 q 1514 44 1522 36 q 1500 59 1507 52 q 1493 68 1494 66 q 1475 86 1489 73 q 1445 114 1462 100 q 1414 142 1429 129 q 1391 161 1398 155 q 1370 178 1384 166 q 1342 201 1357 190 q 1316 222 1327 212 q 1301 234 1304 231 q 1275 250 1294 238 q 1233 275 1255 262 q 1191 298 1211 287 q 1162 313 1170 309 q 1145 325 1157 320 q 1123 330 1134 330 q 1103 323 1112 330 q 1094 305 1094 316 q 1104 286 1094 295 q 1173 241 1137 262 q 1245 200 1209 220 q 1314 157 1280 179 q 1377 109 1348 136 q 1432 59 1405 86 q 1483 5 1458 31 q 1504 -27 1495 -8 q 1530 -55 1514 -45 q 1541 -62 1536 -58 q 1555 -66 1547 -66 q 1568 -59 1566 -66 q 1569 -43 1569 -52 m 822 757 l 822 766 q 807 783 822 783 q 797 780 800 783 q 782 768 794 777 q 768 757 770 759 q 760 788 770 775 q 732 801 750 801 q 702 783 720 801 q 664 741 683 765 q 632 692 645 716 q 619 655 619 668 q 620 644 619 647 q 629 638 622 641 l 648 638 q 674 643 665 638 q 690 656 683 648 q 703 672 697 663 q 720 691 709 682 l 720 687 q 718 677 720 682 q 716 666 716 672 q 721 655 716 658 q 732 652 726 652 q 751 659 744 652 q 765 673 758 665 q 775 691 768 679 q 793 715 783 702 q 811 739 802 727 q 822 757 819 751 m 676 808 q 662 826 676 820 q 636 832 648 832 q 606 811 626 832 q 567 765 587 791 q 531 713 547 738 q 516 676 516 687 q 529 658 516 663 q 556 652 543 652 q 570 655 563 652 q 601 685 583 665 q 636 727 619 705 q 664 771 652 750 q 676 808 676 793 m 1598 845 q 1586 871 1598 859 q 1565 891 1573 883 q 1549 908 1559 897 q 1528 930 1539 919 q 1509 950 1518 941 q 1500 961 1501 959 q 1453 1016 1475 986 q 1407 1070 1432 1047 q 1400 1076 1407 1070 q 1391 1084 1394 1082 q 1379 1096 1389 1087 q 1366 1105 1369 1105 q 1348 1113 1358 1111 q 1326 1115 1337 1115 q 1302 1113 1312 1115 q 1282 1100 1293 1111 q 1161 981 1222 1041 q 1038 863 1101 920 q 1034 858 1037 862 q 1025 848 1030 854 q 1016 838 1020 843 q 1011 832 1012 833 l 745 580 q 729 559 740 575 q 709 544 718 544 l 707 544 l 698 552 l 698 555 q 705 564 698 559 q 720 575 712 569 q 734 588 727 580 q 741 604 741 595 q 741 611 741 607 q 734 618 740 615 q 654 618 688 615 q 577 632 619 620 q 484 656 529 644 q 393 691 440 668 q 372 704 387 694 q 341 725 358 713 q 309 745 325 736 q 287 759 293 755 q 215 831 244 791 q 161 915 186 870 q 145 954 150 933 q 129 991 140 976 q 124 997 123 997 q 119 998 125 998 q 100 990 108 998 q 88 970 93 982 q 83 946 84 958 q 81 929 81 934 q 98 855 81 888 q 136 791 115 822 q 209 709 168 744 q 299 647 251 675 q 400 600 347 620 q 505 562 452 580 q 543 553 525 555 q 577 541 562 551 q 605 527 587 538 q 629 513 623 516 q 639 504 634 511 q 644 493 644 498 q 641 485 644 487 q 633 475 638 483 q 620 461 630 470 q 611 452 611 452 l 212 70 q 203 59 209 68 q 194 47 197 50 l 194 29 q 213 -16 194 5 q 258 -59 233 -38 q 308 -97 283 -79 q 345 -129 333 -115 l 351 -136 l 358 -136 q 371 -145 362 -138 q 389 -160 380 -152 q 406 -175 398 -168 q 419 -184 415 -181 q 443 -204 433 -195 q 470 -212 454 -212 q 486 -209 481 -212 q 491 -191 491 -205 q 482 -171 491 -180 q 465 -154 473 -162 q 406 -95 441 -127 q 351 -29 372 -62 l 354 -29 q 388 -49 363 -29 q 443 -94 413 -69 q 498 -139 472 -119 q 536 -159 525 -159 q 557 -152 547 -159 q 568 -136 568 -144 q 563 -118 568 -127 q 554 -104 559 -109 l 409 40 l 404 47 l 404 51 l 409 54 q 427 45 416 54 q 437 36 437 36 q 458 17 441 31 q 493 -14 475 2 q 529 -47 512 -31 q 550 -66 545 -62 q 576 -88 561 -77 q 604 -98 591 -98 q 627 -88 618 -98 q 636 -66 636 -77 q 631 -52 636 -58 q 622 -40 627 -47 q 609 -26 618 -36 q 591 -5 600 -16 q 573 15 581 5 q 561 29 565 25 q 543 42 552 34 q 529 58 534 50 q 511 77 522 63 q 493 99 500 90 q 484 109 486 108 l 484 120 l 659 -29 q 673 -33 662 -33 q 695 -23 684 -33 q 707 -1 707 -13 q 695 19 707 9 q 676 36 684 29 q 652 62 669 44 q 617 100 636 80 q 581 138 598 120 q 556 165 563 156 l 550 175 l 550 179 l 556 175 l 709 36 q 734 26 719 26 q 758 35 748 26 q 768 58 768 44 l 768 68 q 723 122 751 94 q 676 168 695 150 l 676 172 q 705 149 688 163 q 738 120 722 134 q 770 95 755 105 q 797 84 786 84 q 820 95 809 84 q 830 120 830 106 q 826 128 830 123 q 822 133 822 133 l 683 268 q 677 277 680 270 q 673 290 673 284 q 691 284 684 290 q 707 272 697 279 l 844 151 q 850 147 844 151 q 858 144 855 144 q 888 156 875 144 q 902 183 902 169 q 897 197 902 190 q 887 209 893 204 q 872 222 883 213 q 851 242 862 231 q 829 261 840 252 q 813 275 818 270 q 801 288 811 277 q 788 302 791 300 l 793 302 q 800 297 793 302 q 813 286 808 291 q 826 275 818 283 q 837 265 834 268 q 850 252 841 261 q 870 236 859 244 q 889 220 880 227 q 902 209 898 212 q 912 203 909 204 q 923 202 915 202 q 943 208 934 202 q 952 227 952 213 q 952 237 952 230 q 950 247 952 244 l 786 404 l 786 406 q 793 416 786 416 q 814 406 801 416 q 830 393 827 395 q 853 370 836 386 q 890 336 870 354 q 927 302 909 318 q 952 279 945 286 q 969 268 958 276 q 988 261 980 261 q 1009 271 1000 261 q 1018 293 1018 281 q 1016 299 1018 295 q 1015 302 1015 302 l 858 455 q 854 466 854 459 l 854 469 l 872 459 q 891 442 877 454 q 919 417 904 430 q 947 392 934 404 q 966 375 961 380 q 1003 340 983 359 q 1047 320 1023 320 q 1076 344 1076 320 q 1072 361 1076 358 q 1048 384 1065 368 q 1011 420 1030 401 q 973 455 991 438 q 950 479 955 472 q 943 485 948 480 q 933 495 938 490 q 922 506 927 501 q 916 513 918 511 l 912 522 l 912 525 l 916 525 l 923 522 q 954 500 938 513 q 977 479 969 487 q 1004 455 987 472 q 1041 422 1022 438 q 1077 392 1059 405 q 1108 379 1095 379 q 1130 386 1119 379 q 1141 406 1141 394 q 1137 416 1141 413 q 1112 447 1130 430 q 1087 472 1094 465 q 1072 486 1084 475 q 1044 512 1059 498 q 1016 538 1029 526 q 1000 552 1002 550 q 983 570 991 559 q 975 593 975 580 l 982 593 l 991 586 l 1155 441 q 1159 439 1155 441 q 1166 437 1163 437 l 1170 437 q 1193 445 1184 437 q 1202 466 1202 452 q 1189 494 1202 477 q 1159 527 1176 511 q 1123 560 1141 544 q 1097 586 1105 576 l 1087 604 q 1072 620 1082 609 q 1062 638 1062 632 l 1065 638 q 1075 631 1066 637 q 1096 614 1083 625 q 1116 597 1109 604 q 1123 591 1118 595 q 1132 581 1127 586 q 1142 572 1137 576 q 1148 566 1147 568 q 1162 556 1152 563 q 1183 538 1172 548 q 1203 521 1194 529 q 1216 511 1212 513 l 1225 506 q 1235 502 1227 504 q 1243 500 1243 500 q 1261 511 1251 500 q 1272 530 1272 523 q 1271 539 1272 536 q 1268 548 1270 543 q 1247 568 1262 554 q 1215 598 1232 581 q 1183 630 1198 615 q 1162 652 1168 645 q 1150 665 1158 658 q 1135 679 1143 672 q 1122 695 1127 687 q 1116 707 1116 702 l 1123 704 q 1136 693 1123 704 q 1165 669 1148 683 q 1200 639 1182 655 q 1229 613 1218 623 q 1261 581 1244 601 q 1301 562 1279 562 q 1324 571 1315 562 q 1333 593 1333 580 q 1330 611 1333 607 l 1166 773 l 1166 780 q 1182 777 1177 780 q 1195 766 1187 773 l 1337 641 q 1341 635 1339 637 q 1345 630 1343 633 q 1348 622 1347 627 q 1348 607 1350 618 q 1355 629 1355 618 q 1363 627 1358 629 q 1370 625 1368 625 q 1392 634 1382 625 q 1402 655 1402 644 q 1395 674 1402 665 q 1379 691 1389 683 q 1361 706 1370 698 q 1348 722 1352 713 q 1328 741 1343 727 q 1297 772 1314 755 q 1266 803 1280 788 q 1247 825 1252 818 q 1236 843 1236 836 q 1243 850 1236 850 q 1250 844 1243 850 q 1261 836 1258 838 l 1265 832 q 1285 814 1269 827 q 1319 785 1301 801 q 1353 756 1337 769 q 1373 738 1369 743 q 1404 711 1384 727 q 1443 694 1423 694 q 1465 702 1454 694 q 1476 722 1476 711 q 1468 744 1476 733 q 1450 766 1461 755 q 1427 785 1439 776 q 1411 801 1416 794 q 1391 822 1404 807 q 1362 854 1377 837 q 1334 886 1347 872 q 1315 908 1320 901 l 1319 912 l 1322 912 q 1331 905 1325 909 q 1340 898 1337 901 l 1483 769 q 1495 761 1490 762 q 1508 759 1500 759 q 1532 766 1522 759 q 1541 787 1541 773 l 1541 791 l 1537 801 q 1526 814 1534 805 q 1508 834 1518 823 q 1490 854 1498 844 q 1479 868 1482 863 q 1466 878 1476 870 q 1457 894 1457 886 q 1481 878 1466 891 q 1511 850 1495 865 q 1541 824 1526 836 q 1569 812 1557 812 q 1589 822 1580 812 q 1598 845 1598 833 m 594 838 q 580 861 594 852 q 554 870 566 870 q 543 870 548 870 q 536 863 538 869 q 524 849 531 858 q 509 830 516 840 q 495 813 501 820 q 488 805 490 807 q 479 793 486 802 q 464 771 472 783 q 449 748 456 759 q 437 732 441 737 q 431 722 431 725 q 430 713 430 720 q 443 688 430 697 q 475 680 456 680 q 491 685 481 680 q 505 698 500 690 q 521 721 509 704 q 546 758 533 738 q 571 794 559 777 q 587 818 583 811 q 592 828 590 823 q 594 838 594 833 m 273 1095 q 266 1120 273 1113 q 252 1144 258 1127 q 248 1166 250 1154 q 230 1177 247 1177 q 207 1162 222 1177 q 178 1127 193 1147 q 153 1087 163 1108 q 143 1057 143 1066 q 147 1043 143 1048 q 154 1030 151 1037 q 155 1013 155 1025 q 156 993 155 1004 q 162 975 158 983 q 176 968 166 968 q 190 972 184 968 q 201 982 195 976 q 214 998 205 986 q 234 1025 223 1011 q 253 1052 244 1040 q 266 1070 262 1065 q 272 1083 272 1079 q 273 1095 273 1087 m 516 880 q 507 901 516 894 q 484 908 498 908 q 463 900 473 908 q 448 880 454 891 q 432 857 444 873 q 408 823 420 841 q 384 788 395 805 q 369 766 373 772 q 363 755 366 761 q 361 743 361 750 q 371 725 361 732 q 393 718 381 718 q 427 739 406 718 q 468 788 448 761 q 502 843 488 816 q 516 880 516 869 m 1541 -209 q 1535 -195 1541 -201 q 1523 -187 1529 -190 q 1509 -183 1519 -186 q 1489 -177 1500 -180 q 1470 -171 1479 -175 q 1457 -166 1461 -168 q 1319 -99 1377 -136 q 1211 -18 1261 -62 q 1116 76 1162 25 q 1018 188 1070 127 q 1005 201 1015 191 q 991 213 995 211 l 988 213 q 966 204 972 213 q 959 183 959 194 q 960 168 959 173 q 963 158 961 162 q 970 149 966 154 q 982 136 975 144 q 997 117 986 131 q 1021 86 1008 102 q 1046 55 1034 70 q 1062 33 1058 40 q 1116 -17 1091 9 q 1170 -70 1140 -44 q 1241 -126 1201 -98 q 1327 -177 1282 -154 q 1418 -214 1372 -200 q 1508 -229 1464 -229 l 1530 -229 q 1539 -220 1536 -226 q 1541 -209 1541 -213 m 327 1030 q 318 1052 327 1041 q 297 1063 309 1063 q 267 1045 286 1063 q 230 1001 248 1026 q 200 951 212 976 q 187 915 187 926 q 195 892 187 904 q 215 880 202 880 q 229 884 226 880 q 241 898 233 887 q 252 911 244 901 q 268 934 259 922 q 286 958 277 947 q 300 975 295 969 q 318 1000 308 987 q 327 1030 327 1013 m 441 929 l 441 932 q 431 946 441 940 q 412 952 420 952 q 379 931 400 952 q 337 882 358 909 q 302 827 316 854 q 287 791 287 801 q 297 773 287 780 q 318 766 306 766 q 336 772 329 766 q 351 787 344 779 l 437 912 q 439 919 437 912 q 441 929 441 926 m 379 977 q 351 1001 379 1001 l 343 1001 q 334 994 340 1001 q 325 984 327 987 q 311 967 320 979 q 293 941 302 955 q 276 916 284 927 q 263 898 268 904 q 245 873 255 887 q 234 845 234 859 q 241 826 234 834 q 259 818 248 818 q 276 829 265 818 q 300 854 287 840 q 322 881 312 868 q 336 898 333 894 q 344 910 338 902 q 356 927 350 918 q 368 944 362 936 q 376 957 373 952 q 379 977 379 963 m 1090 694 q 1088 691 1090 691 q 1087 694 1087 691 q 1088 697 1087 697 q 1090 694 1090 697 m 779 313 l 775 313 l 775 316 l 779 313 m 786 305 l 782 305 l 782 309 l 786 305 m 673 175 l 669 175 l 666 179 l 666 183 l 673 175 "},"d":{"x_min":136.140625,"x_max":1818,"ha":1950,"o":"m 1818 655 l 1817 777 l 1818 1144 l 1799 1153 l 640 1163 l 626 1163 l 616 1172 l 612 1172 l 598 1163 l 181 1153 q 173 1153 180 1153 q 161 1152 168 1153 q 147 1148 154 1151 q 140 1140 141 1145 q 136 976 137 1067 q 136 786 136 886 q 136 583 136 687 q 136 380 136 479 q 137 189 137 280 q 136 26 137 98 l 136 -72 l 136 -169 q 144 -188 138 -184 q 163 -192 150 -192 q 189 -191 170 -192 q 229 -189 208 -190 q 268 -187 250 -188 q 294 -185 287 -185 q 479 -190 386 -185 q 663 -195 572 -195 q 672 -195 665 -195 q 689 -192 680 -194 q 706 -190 698 -191 q 715 -190 713 -190 q 728 -190 719 -190 q 748 -191 737 -191 q 768 -192 759 -191 q 782 -192 777 -192 l 786 -179 q 786 -161 786 -177 q 788 -124 787 -145 q 789 -81 788 -104 q 790 -45 790 -59 l 790 136 q 791 179 790 148 q 792 244 791 209 q 793 309 793 279 q 794 351 794 339 q 795 365 794 355 q 808 375 797 375 l 836 375 q 967 373 902 375 q 1102 371 1032 371 l 1108 365 q 1109 351 1108 364 q 1111 320 1109 339 q 1112 291 1112 302 l 1112 268 q 1113 168 1112 227 q 1114 48 1114 109 q 1114 -65 1114 -11 q 1116 -152 1115 -120 q 1116 -186 1116 -183 l 1126 -200 l 1804 -200 l 1809 -195 q 1811 -188 1809 -195 q 1813 -176 1813 -180 l 1813 -172 q 1813 -87 1813 -151 q 1814 61 1813 -23 q 1815 242 1815 147 q 1817 422 1816 337 q 1818 570 1818 508 q 1818 655 1818 634 m 1594 646 q 1592 621 1594 638 q 1590 593 1591 604 q 1590 581 1590 582 l 1580 572 l 1369 572 l 1361 577 q 1358 597 1361 577 q 1356 632 1356 618 l 1356 670 q 1356 719 1356 697 q 1361 772 1357 740 q 1377 777 1368 777 q 1393 778 1386 778 l 1421 778 q 1468 777 1440 778 q 1524 775 1497 777 q 1570 773 1551 774 q 1590 772 1590 772 l 1594 764 l 1594 717 l 1594 646 m 612 1158 l 612 1168 l 612 1158 m 1590 136 q 1588 118 1590 129 q 1574 104 1586 107 l 1523 104 l 1468 104 q 1451 105 1464 104 q 1423 106 1439 105 q 1396 107 1408 107 q 1379 108 1383 108 q 1366 107 1376 108 q 1356 118 1356 107 l 1356 361 l 1361 365 q 1374 368 1364 365 q 1389 371 1385 371 l 1580 365 l 1590 357 l 1590 136 m 1081 595 q 1072 577 1081 582 q 1052 572 1064 572 q 1028 572 1040 571 q 1010 572 1017 572 q 944 573 971 572 q 874 577 917 574 q 865 590 865 585 l 865 638 l 865 679 q 867 717 865 693 q 869 758 868 742 q 869 778 869 775 l 874 782 q 889 784 874 782 q 911 786 904 786 l 917 786 q 960 786 933 786 q 1013 784 987 785 q 1057 783 1039 783 q 1075 782 1075 782 l 1081 778 l 1081 595 m 607 586 q 600 579 607 582 q 593 577 593 577 l 509 577 l 420 577 q 405 578 416 577 q 386 580 394 579 q 377 581 379 581 l 373 586 l 373 754 q 374 763 373 756 q 377 778 375 770 q 387 786 380 786 l 598 786 l 602 782 l 607 772 l 607 586 m 607 179 q 605 158 607 172 q 603 134 604 144 q 602 122 602 123 l 593 118 l 377 118 l 369 127 l 369 151 l 369 193 q 370 241 369 212 q 371 296 370 269 q 372 342 372 323 q 373 361 373 361 l 377 371 l 584 371 q 604 359 601 371 q 607 333 607 347 l 607 258 l 607 179 "},",":{"x_min":111.046875,"x_max":369.15625,"ha":500,"o":"m 369 1132 l 369 1139 q 360 1150 369 1146 q 340 1159 352 1155 q 317 1164 329 1162 q 302 1167 306 1165 l 261 1167 l 216 1167 q 193 1165 212 1167 q 167 1162 174 1164 q 152 1157 162 1161 q 133 1149 142 1154 q 117 1139 124 1144 q 111 1128 111 1133 l 111 1122 q 115 1112 111 1121 q 120 1103 120 1104 q 131 1077 124 1094 q 138 1057 138 1060 q 156 966 154 1011 q 159 869 159 921 q 159 801 159 833 q 156 732 159 769 q 148 721 154 722 q 142 707 142 721 q 146 693 142 697 q 156 680 149 689 q 161 624 159 652 q 165 568 162 596 l 213 198 q 215 191 213 195 q 216 184 216 187 q 217 174 216 182 q 219 156 218 166 q 222 137 220 147 q 224 123 223 127 l 224 119 q 232 0 231 59 q 234 -122 233 -59 q 235 -139 234 -129 q 238 -159 236 -150 q 247 -175 241 -168 q 263 -182 252 -182 q 273 -178 268 -182 q 279 -168 279 -175 l 279 -111 l 273 -106 l 273 -104 q 277 -99 273 -101 q 280 -93 280 -97 q 284 -79 283 -87 q 286 -65 286 -72 q 285 -50 286 -58 q 284 -34 284 -41 l 284 -31 l 297 133 l 297 154 l 318 368 l 318 384 l 340 626 q 339 661 340 644 q 345 694 338 677 q 354 693 348 694 q 360 698 360 693 l 360 722 q 353 729 360 727 q 344 745 345 730 q 342 766 344 751 q 340 797 341 780 q 337 828 338 813 q 335 848 335 843 l 335 857 q 335 866 335 858 q 334 882 334 873 q 333 898 334 891 q 333 908 333 905 q 337 1023 333 965 q 369 1132 341 1082 m 315 1098 q 299 1020 304 1054 q 294 941 294 986 q 298 847 294 894 q 302 751 302 800 l 302 730 q 291 725 297 725 l 263 725 l 231 725 q 219 726 229 725 q 205 727 209 727 q 202 729 204 727 q 201 730 201 730 l 198 747 l 209 890 l 204 965 q 199 993 200 979 q 194 1023 198 1008 q 180 1061 187 1043 q 165 1098 173 1079 l 165 1102 l 165 1104 q 238 1109 198 1107 q 315 1112 277 1112 l 315 1098 m 302 613 l 280 418 l 280 412 l 269 283 l 269 280 q 266 260 267 272 q 264 236 264 248 q 263 215 263 225 q 263 205 263 206 q 260 191 263 200 q 257 183 257 183 l 255 183 q 253 193 255 183 q 250 211 250 204 l 250 218 q 245 244 248 225 q 239 269 242 263 l 198 638 l 198 658 q 197 673 198 661 q 205 686 196 686 l 291 686 q 302 677 302 686 l 302 613 "},"Y":{"x_min":14.015625,"x_max":2264.375,"ha":2286,"o":"m 1508 488 l 1504 493 l 1501 488 l 1508 488 m 2264 -204 l 2264 -167 l 2264 -135 q 2263 -103 2264 -126 q 2263 -55 2263 -80 q 2262 -7 2263 -30 q 2261 25 2261 15 q 2262 221 2261 122 q 2257 418 2263 321 q 2256 433 2257 429 q 2250 443 2256 437 q 2245 446 2247 443 q 2243 450 2243 450 l 2185 450 l 2178 454 q 2176 471 2178 454 q 2174 500 2174 489 l 2174 544 l 2167 551 q 2153 553 2164 551 q 2139 554 2142 554 q 2122 557 2133 554 q 2110 568 2110 561 l 2110 871 q 2099 886 2110 886 q 2065 889 2078 889 q 2033 889 2053 889 q 2014 889 2028 889 q 1997 879 2000 889 l 1990 846 l 1983 841 l 1936 841 q 1921 834 1925 841 q 1915 816 1917 826 q 1915 797 1914 807 q 1915 782 1915 787 q 1915 769 1915 779 q 1913 748 1914 759 q 1912 728 1912 737 q 1911 716 1911 719 l 1911 712 q 1910 706 1911 709 q 1908 703 1908 703 l 1850 703 q 1848 698 1850 703 q 1843 694 1846 694 l 1839 691 q 1837 680 1839 689 q 1836 665 1836 672 q 1834 643 1836 661 q 1832 619 1832 625 q 1820 585 1829 590 q 1782 583 1811 580 q 1771 565 1771 579 l 1771 298 q 1767 296 1771 296 q 1764 296 1764 296 q 1733 295 1753 296 q 1710 309 1712 294 q 1706 436 1707 378 q 1706 562 1706 494 l 1706 694 q 1715 720 1708 708 q 1721 744 1721 732 q 1711 761 1721 755 q 1699 778 1701 766 q 1690 840 1693 809 q 1678 904 1686 871 q 1667 928 1675 916 q 1656 954 1658 940 q 1645 1033 1644 994 q 1635 1112 1646 1072 q 1629 1127 1632 1119 q 1615 1135 1626 1135 l 1613 1130 l 1601 997 q 1595 960 1600 979 q 1581 923 1589 941 q 1567 886 1574 904 q 1556 850 1560 868 q 1554 837 1556 847 q 1549 816 1552 828 q 1546 796 1547 805 q 1545 784 1545 787 q 1538 775 1543 778 q 1529 770 1534 772 q 1520 765 1524 768 q 1515 757 1515 762 q 1524 726 1515 743 q 1534 689 1534 709 l 1534 500 q 1529 464 1534 479 q 1501 450 1524 450 q 1482 451 1496 450 q 1468 461 1468 453 l 1468 771 l 1321 771 l 1318 766 q 1312 747 1315 761 q 1310 730 1310 733 l 1310 533 q 1305 525 1310 528 q 1293 521 1300 522 q 1281 521 1287 521 q 1273 522 1275 522 q 1242 522 1261 522 q 1216 533 1224 522 q 1215 557 1216 540 q 1214 592 1214 573 q 1212 628 1213 611 q 1212 651 1212 644 l 1212 893 q 1210 909 1212 896 q 1200 925 1209 922 l 1151 925 q 1090 924 1115 925 q 1029 921 1065 923 q 1022 916 1026 918 q 1018 907 1018 914 q 1018 883 1018 900 q 1020 848 1019 866 q 1021 812 1020 829 q 1022 789 1022 796 l 1022 784 q 1021 744 1022 776 q 1020 674 1020 711 q 1018 605 1019 637 q 1018 565 1018 573 l 1018 547 q 1006 534 1016 537 q 986 531 997 532 q 965 528 974 530 q 956 518 956 526 q 958 509 956 515 q 961 500 961 503 l 961 307 q 945 283 961 290 l 920 283 q 886 285 897 283 q 870 294 874 287 q 866 314 866 301 q 866 348 866 327 q 863 477 865 412 q 859 604 862 541 q 847 612 855 611 q 830 614 838 614 q 815 618 822 615 q 806 630 808 621 q 806 637 806 632 q 804 649 805 643 q 801 662 802 655 q 801 669 801 668 q 793 687 799 682 q 779 693 787 691 q 765 697 772 696 q 759 703 759 698 l 759 773 q 754 775 759 773 q 745 778 748 778 q 729 780 742 778 q 712 782 715 782 q 704 791 704 787 l 704 907 q 698 914 704 909 q 690 918 692 918 l 654 918 l 615 918 q 590 916 606 918 q 562 912 573 914 q 550 911 551 911 l 546 904 l 546 814 q 544 798 546 808 q 543 789 543 789 l 536 784 l 477 784 l 472 773 l 472 623 l 461 615 l 425 615 l 416 623 q 416 634 416 625 q 414 659 415 644 q 414 683 414 675 l 414 875 q 409 888 414 884 q 398 894 404 891 q 386 898 391 896 q 377 907 380 900 q 373 953 369 929 q 369 1000 376 976 q 364 1012 368 1008 q 357 1020 361 1016 q 348 1027 352 1023 q 341 1037 344 1030 l 337 1047 q 318 1066 326 1061 q 305 1087 311 1071 q 303 1112 304 1093 q 301 1151 302 1130 q 297 1189 300 1172 q 287 1206 294 1206 l 284 1206 q 257 1174 262 1193 q 253 1135 252 1154 q 254 1097 254 1115 q 244 1069 254 1079 l 229 1058 q 224 1045 223 1054 q 222 1033 225 1036 q 211 1026 218 1026 q 196 1025 204 1026 q 184 1019 189 1024 q 179 997 179 1014 l 179 918 q 170 903 176 904 q 157 899 164 901 q 145 889 151 897 q 140 857 140 882 q 137 628 136 743 q 132 400 139 514 q 130 380 132 393 q 129 368 129 368 l 122 359 q 106 359 118 359 q 80 358 94 358 q 54 357 66 358 q 39 357 43 357 q 16 334 16 357 l 16 -158 q 15 -172 16 -161 q 14 -186 14 -183 l 14 -190 q 28 -198 14 -195 q 45 -201 43 -201 q 76 -202 54 -201 q 108 -204 98 -204 l 601 -204 q 624 -204 608 -204 q 659 -206 640 -205 q 693 -207 677 -206 q 716 -208 709 -208 l 1313 -208 q 1320 -210 1316 -208 q 1327 -213 1324 -213 q 1338 -210 1330 -213 q 1349 -208 1347 -208 l 1468 -208 q 1746 -211 1607 -208 q 2026 -215 1885 -215 q 2081 -214 2054 -215 q 2135 -213 2107 -213 q 2164 -214 2149 -213 q 2196 -215 2179 -215 q 2211 -215 2201 -215 q 2233 -213 2222 -215 q 2252 -210 2243 -212 q 2264 -204 2261 -208 m 2173 187 l 2171 180 l 2171 190 l 2173 187 m 1876 363 q 1873 353 1876 358 q 1865 348 1869 348 q 1857 352 1857 348 q 1876 363 1864 363 m 2173 22 l 2171 18 l 2166 22 l 2166 25 l 2171 27 l 2173 25 l 2173 22 m 2073 104 q 2061 104 2073 104 q 2048 111 2048 104 q 2052 116 2048 113 q 2058 119 2055 119 q 2073 104 2073 119 m 1965 198 q 1961 186 1965 191 q 1955 180 1958 180 q 1946 184 1948 177 q 1944 194 1944 191 q 1958 204 1944 204 q 1965 198 1965 204 m 1870 262 q 1862 263 1868 262 q 1857 269 1857 263 q 1861 275 1857 272 q 1870 277 1866 277 l 1870 262 m 2073 27 q 2071 17 2076 20 q 2058 13 2065 13 q 2049 16 2054 13 q 2044 25 2044 19 q 2050 34 2044 31 q 2062 36 2057 36 q 2069 35 2065 36 q 2073 27 2073 34 m 1962 115 q 1958 107 1962 108 q 1947 106 1954 106 q 1948 118 1947 113 q 1955 122 1948 122 q 1962 115 1962 122 m 1876 183 q 1872 181 1876 183 q 1865 180 1868 180 q 1857 186 1858 180 q 1857 198 1857 191 l 1857 204 q 1876 209 1861 209 l 1876 183 m 1612 443 q 1612 433 1612 440 q 1605 427 1612 427 l 1601 436 q 1605 441 1601 438 q 1612 443 1609 443 m 2066 -51 q 2064 -57 2066 -54 q 2058 -61 2061 -61 q 2053 -57 2054 -61 q 2052 -51 2052 -54 l 2066 -51 m 1965 36 q 1964 21 1965 29 q 1955 13 1962 13 q 1948 18 1951 13 q 1944 25 1944 22 q 1944 31 1944 27 q 1947 36 1944 36 l 1965 36 m 1612 359 q 1612 352 1612 356 q 1609 348 1612 348 l 1605 348 q 1602 359 1602 355 q 1601 370 1601 362 q 1602 375 1601 373 q 1609 377 1602 377 q 1612 369 1612 377 q 1612 359 1612 362 m 1876 33 q 1861 18 1876 18 q 1854 27 1854 18 q 1868 43 1854 43 q 1873 39 1870 43 q 1876 33 1876 36 m 1876 -43 q 1865 -61 1876 -52 q 1857 -56 1858 -58 q 1857 -51 1857 -54 q 1862 -43 1857 -43 q 1876 -43 1868 -43 m 1847 -69 l 1843 -72 l 1839 -69 l 1847 -69 m 1133 651 q 1129 635 1133 640 q 1115 630 1126 630 q 1104 644 1104 630 q 1122 662 1104 662 q 1132 661 1130 662 q 1133 651 1133 659 m 1472 283 q 1470 268 1472 276 q 1462 259 1469 259 q 1443 277 1443 259 q 1447 292 1443 286 q 1462 298 1452 298 q 1468 298 1465 298 q 1472 295 1472 298 l 1472 283 m 1133 533 q 1126 527 1130 530 q 1119 525 1122 525 q 1104 544 1104 525 q 1106 561 1104 555 q 1119 568 1108 568 q 1132 561 1130 568 q 1133 547 1133 555 l 1133 533 m 1609 18 q 1605 11 1609 11 q 1601 18 1601 11 q 1605 25 1601 25 q 1609 18 1609 25 m 1609 -54 q 1609 -62 1609 -59 q 1601 -65 1608 -65 l 1601 -45 l 1605 -43 q 1609 -47 1608 -43 q 1609 -54 1609 -51 m 1468 54 q 1466 40 1468 45 q 1456 36 1465 36 q 1443 47 1443 36 q 1444 65 1443 58 q 1456 72 1445 72 q 1466 67 1465 72 q 1468 54 1468 62 m 1300 201 q 1298 192 1300 198 q 1295 183 1295 186 l 1288 183 q 1278 184 1286 183 q 1270 187 1270 184 l 1270 219 q 1274 227 1270 226 q 1280 227 1277 227 q 1294 220 1288 227 q 1300 204 1300 212 l 1300 201 m 1295 0 q 1280 -18 1295 -18 q 1275 -17 1280 -18 q 1270 -13 1270 -16 l 1270 11 q 1276 15 1270 16 q 1284 13 1282 13 q 1294 12 1293 13 q 1295 0 1295 11 m 1291 -119 q 1287 -124 1291 -123 q 1280 -125 1283 -125 q 1270 -122 1273 -125 q 1268 -111 1270 -119 q 1266 -101 1266 -104 q 1268 -82 1266 -90 q 1280 -75 1269 -75 q 1287 -75 1283 -75 q 1291 -83 1291 -76 l 1291 -119 m 1056 115 q 1051 104 1056 106 q 1040 101 1045 101 q 1022 104 1026 101 q 1018 122 1018 108 q 1027 131 1018 130 q 1043 133 1037 133 l 1054 133 q 1055 124 1054 130 q 1056 115 1056 118 m 762 368 q 757 360 762 361 q 748 359 751 359 q 739 362 745 359 q 733 370 733 365 l 737 406 q 743 409 737 409 q 748 409 748 409 q 757 409 751 409 q 762 404 762 408 l 762 368 m 363 738 q 362 727 363 732 q 351 723 361 723 q 341 738 341 723 q 345 747 341 743 q 355 752 348 752 q 363 749 362 752 q 363 738 363 745 m 554 540 q 554 518 554 531 q 543 504 554 504 q 536 506 536 504 l 536 554 q 538 558 536 554 q 543 562 540 562 l 546 562 l 554 554 l 554 540 m 1054 25 q 1036 11 1054 11 q 1022 12 1027 11 q 1018 25 1018 13 q 1036 43 1018 43 q 1050 39 1047 43 q 1054 25 1054 36 m 248 820 q 247 811 248 815 q 240 807 247 807 q 230 809 231 807 q 229 820 229 812 q 230 832 229 829 q 240 836 231 836 q 247 831 247 836 q 248 820 248 826 m 363 662 q 362 647 363 657 q 351 637 361 637 q 343 647 344 637 q 341 662 341 657 q 355 676 341 676 q 363 672 362 676 q 363 662 363 668 m 762 255 q 763 240 762 252 q 755 227 763 227 q 738 236 738 227 q 737 255 737 244 l 737 273 q 741 277 737 276 q 748 277 745 277 q 757 277 754 277 q 762 269 759 276 l 762 255 m 248 741 q 247 730 248 733 q 237 727 245 727 q 227 732 229 727 q 226 744 226 737 q 227 752 226 747 q 233 757 227 757 q 245 752 241 757 q 248 741 248 747 m 1057 -101 q 1054 -111 1057 -111 q 1047 -101 1047 -111 q 1054 -93 1047 -93 q 1057 -101 1057 -93 m 550 356 q 534 362 536 356 q 531 381 531 368 q 530 391 531 381 q 536 400 529 400 l 540 400 q 546 397 543 400 q 550 395 550 395 l 550 356 m 907 13 q 900 6 907 6 q 893 13 893 6 q 900 18 893 18 q 907 13 907 18 m 363 536 q 357 531 361 533 q 351 529 354 529 q 346 531 348 529 q 341 536 344 533 l 341 551 q 341 572 341 559 q 355 586 341 586 q 363 573 363 586 q 363 554 363 561 l 363 536 m 907 -43 q 907 -52 907 -50 q 900 -56 907 -56 q 893 -51 893 -56 q 898 -43 893 -44 q 907 -43 904 -43 m 554 241 q 552 226 554 230 q 543 219 551 222 l 540 219 q 532 229 533 219 q 531 241 531 238 q 533 252 531 248 q 543 255 534 255 q 552 251 551 255 q 554 241 554 247 m 363 370 q 362 357 363 362 q 351 352 361 352 q 337 363 337 352 q 338 381 337 372 q 351 391 340 391 q 362 385 361 391 q 363 370 363 379 m 648 79 q 633 61 648 61 q 620 68 622 61 q 619 83 619 75 q 619 88 619 86 q 622 93 619 93 q 639 90 630 93 q 648 79 648 87 m 244 443 q 242 439 244 443 q 237 436 240 436 q 222 443 229 436 l 222 456 q 224 471 222 463 q 237 479 226 479 q 240 478 237 479 q 244 475 244 477 l 244 443 m 359 273 q 355 271 359 273 q 348 269 351 269 l 345 269 q 338 274 338 269 q 337 283 337 279 q 351 302 337 302 q 355 302 351 302 q 359 298 359 301 l 359 273 m 550 56 q 546 54 550 54 q 540 54 543 54 q 532 61 532 54 l 532 101 q 536 108 532 105 q 543 111 540 111 q 550 106 550 111 l 550 56 m 244 348 l 240 345 q 224 356 226 345 q 222 375 222 366 q 229 388 222 388 q 244 381 244 388 l 244 348 m 244 255 q 240 252 244 252 q 237 251 237 251 q 222 255 226 251 l 222 273 q 222 288 222 279 q 237 298 223 298 q 240 298 237 298 q 244 295 244 298 l 244 255 m 244 172 l 237 169 q 224 176 229 169 q 219 190 219 183 l 219 194 q 220 200 219 197 q 222 204 222 204 l 240 204 q 242 202 240 204 q 244 198 244 201 l 244 187 l 244 172 "},"E":{"x_min":122,"x_max":2082,"ha":2167,"o":"m 2082 -217 l 2082 -103 l 2082 -86 q 2080 -46 2080 -75 q 2078 13 2079 -18 q 2078 73 2078 45 q 2078 113 2078 102 q 2078 170 2078 127 q 2078 270 2078 213 q 2080 390 2079 326 q 2081 511 2080 454 q 2082 609 2082 568 q 2082 666 2082 652 l 2082 854 l 2082 992 l 2078 1039 q 2071 1046 2078 1043 q 2064 1049 2064 1049 q 1928 1046 1996 1049 q 1794 1044 1861 1044 q 1344 1047 1569 1044 q 893 1050 1119 1050 l 134 1050 l 130 1045 l 126 1033 q 126 958 126 1009 q 125 843 126 908 q 124 708 124 779 q 122 572 123 637 q 122 455 122 508 q 122 379 122 404 l 122 109 l 122 -159 q 124 -174 122 -166 q 134 -185 127 -183 q 494 -188 316 -183 q 850 -194 672 -194 l 897 -194 q 916 -192 903 -194 q 939 -190 929 -191 q 950 -190 949 -190 l 954 -185 q 955 -153 954 -185 q 956 -74 956 -120 q 958 19 957 -29 q 959 101 959 68 l 959 427 q 959 443 959 432 q 961 468 960 455 q 962 493 961 482 q 963 511 963 505 l 967 515 q 978 517 970 515 q 989 519 986 519 l 1028 519 l 1071 519 q 1101 518 1079 519 q 1147 517 1122 518 q 1194 516 1172 516 q 1223 515 1215 515 q 1236 509 1230 515 q 1242 497 1242 504 l 1242 -190 q 1246 -198 1242 -192 q 1254 -204 1251 -204 q 1986 -217 1621 -217 l 2082 -217 m 2025 911 q 2023 883 2025 899 q 2021 854 2022 866 q 2020 841 2020 842 l 2012 831 l 1837 831 l 1564 831 q 1525 832 1555 831 q 1459 834 1494 833 q 1393 836 1423 836 q 1354 837 1362 837 l 1311 837 q 1294 838 1304 837 q 1285 849 1285 840 l 1285 958 l 1293 968 l 1428 968 q 1717 969 1572 968 q 2006 974 1862 971 q 2022 960 2020 971 q 2025 938 2025 949 l 2025 911 m 1220 911 q 1185 824 1220 855 q 1097 793 1150 793 q 1015 827 1049 793 q 981 915 981 862 q 991 958 981 937 q 1018 995 1001 979 q 1056 1020 1035 1011 q 1101 1029 1078 1029 q 1148 1019 1126 1029 q 1185 993 1169 1009 q 1210 954 1201 976 q 1220 911 1220 933 m 1990 370 q 1989 281 1990 334 q 1987 177 1988 227 q 1986 92 1987 127 q 1985 56 1985 56 l 1976 48 l 1902 48 q 1898 56 1898 48 l 1898 62 q 1902 77 1898 65 q 1906 93 1906 88 q 1898 127 1906 108 q 1876 158 1890 147 l 1859 166 q 1846 192 1848 172 q 1841 223 1844 212 q 1815 251 1831 247 q 1780 262 1799 255 q 1772 277 1773 265 q 1767 304 1772 290 q 1752 329 1763 318 q 1715 340 1741 340 q 1688 329 1700 340 q 1663 319 1676 319 q 1636 331 1650 319 q 1607 344 1623 344 q 1566 322 1575 344 q 1554 275 1557 301 q 1544 268 1554 273 q 1522 257 1534 263 q 1498 244 1509 251 q 1484 231 1487 237 q 1482 224 1484 231 q 1480 213 1480 216 q 1478 196 1480 211 q 1476 179 1476 181 q 1458 160 1468 163 q 1439 152 1448 156 q 1425 139 1430 148 q 1419 105 1419 130 q 1421 84 1419 91 q 1423 66 1423 76 q 1410 52 1423 52 q 1389 52 1396 52 q 1360 54 1379 52 q 1342 56 1342 56 l 1337 62 q 1333 80 1334 65 q 1332 105 1332 95 l 1332 118 q 1333 161 1332 131 q 1334 226 1334 190 q 1335 303 1334 263 q 1336 379 1336 343 q 1337 445 1336 416 q 1338 488 1338 475 q 1340 499 1338 491 q 1342 511 1342 506 l 1346 515 l 1393 515 l 1442 515 q 1709 514 1576 512 q 1976 505 1841 516 q 1987 486 1985 502 q 1990 466 1990 469 l 1990 423 l 1990 370 m 1784 52 l 1780 52 l 1780 56 l 1784 56 l 1784 52 m 1664 52 q 1661 56 1661 52 q 1664 62 1661 62 q 1666 56 1666 62 q 1664 52 1666 52 m 1550 56 l 1537 56 q 1538 65 1537 61 q 1545 70 1539 70 q 1549 65 1548 70 q 1550 56 1550 61 m 919 884 q 917 861 919 877 q 905 845 915 845 l 209 845 l 200 849 l 195 854 l 195 972 l 200 976 q 211 976 201 976 q 234 978 220 977 q 252 980 247 980 l 283 980 l 322 980 q 370 980 334 980 q 454 979 406 980 q 557 978 502 978 q 660 976 612 977 q 744 976 708 976 q 793 976 780 976 l 832 976 q 861 974 843 976 q 891 972 879 973 q 905 972 904 972 l 915 968 q 916 954 915 966 q 918 922 916 941 q 919 892 919 904 l 919 884 m 867 140 q 865 111 867 129 q 863 80 864 93 q 862 66 862 68 l 858 62 l 789 62 q 781 74 782 62 q 780 100 780 86 q 775 127 779 115 q 758 140 771 140 q 744 140 754 140 q 723 142 734 141 q 701 143 711 143 q 688 144 691 144 q 675 162 675 144 q 672 186 675 169 q 670 209 670 202 l 666 213 l 618 223 l 618 293 l 609 297 q 604 299 606 297 q 601 301 601 301 l 522 305 q 505 297 513 305 q 503 268 505 290 q 501 240 501 247 q 491 223 501 230 q 465 222 484 223 q 440 209 446 220 q 437 186 440 202 q 435 162 435 169 q 426 148 435 155 q 408 147 419 147 q 384 147 396 147 q 361 145 373 147 q 344 140 349 144 q 337 123 337 136 q 339 98 338 111 q 337 76 339 86 q 321 66 334 66 l 243 66 l 230 79 l 230 497 q 230 502 230 498 q 232 513 230 508 q 237 521 234 518 q 248 523 241 525 l 440 523 l 627 523 q 691 522 652 523 q 765 521 729 522 q 828 520 801 520 q 854 519 854 519 l 862 515 q 863 493 862 512 q 865 447 864 475 q 867 405 867 420 l 867 270 l 867 140 m 758 968 q 761 972 761 968 q 758 976 761 976 q 755 972 755 976 q 758 968 755 968 "},"y":{"x_min":55.5625,"x_max":1559.84375,"ha":1611,"o":"m 1387 437 l 1387 458 l 1387 479 q 1370 506 1380 494 q 1352 532 1361 518 q 1338 550 1348 537 q 1317 577 1327 562 q 1296 604 1307 591 q 1282 622 1286 616 q 1271 640 1277 633 q 1258 657 1265 647 q 1248 669 1255 659 q 1234 690 1241 679 q 1219 711 1226 701 q 1209 723 1212 721 q 1196 736 1207 726 q 1186 748 1186 746 q 1127 839 1162 797 q 1061 923 1091 880 l 1022 990 q 1014 1014 1015 1001 q 1013 1040 1013 1026 l 1013 1057 q 1027 1079 1018 1069 q 1051 1089 1036 1089 q 1061 1088 1055 1089 q 1072 1083 1068 1087 q 1098 1042 1091 1064 q 1104 993 1104 1021 q 1100 959 1104 975 q 1088 925 1095 944 q 1086 919 1088 923 q 1083 911 1083 914 q 1088 900 1083 908 q 1102 883 1094 891 q 1117 868 1109 875 q 1127 861 1125 861 q 1148 877 1138 861 q 1163 914 1157 893 q 1174 953 1170 934 q 1177 978 1177 972 q 1169 1025 1177 1001 q 1146 1067 1161 1048 q 1111 1098 1132 1086 q 1066 1110 1091 1110 q 1023 1100 1043 1110 q 989 1074 1004 1090 q 966 1038 975 1058 q 958 996 958 1018 q 958 979 958 986 q 961 964 958 972 q 991 869 976 915 q 1019 773 1007 822 q 1022 766 1019 771 q 1025 759 1025 762 l 1101 516 q 1116 462 1105 490 q 1133 409 1126 433 q 1134 405 1133 407 q 1138 400 1136 403 l 1334 277 q 1350 264 1339 273 q 1369 254 1362 254 q 1379 264 1379 254 q 1379 277 1379 273 q 1379 294 1379 280 q 1380 323 1380 308 q 1381 354 1380 340 q 1382 371 1382 368 q 1382 383 1382 373 q 1384 405 1383 393 q 1386 425 1386 416 q 1387 437 1387 434 m 918 762 q 913 768 918 768 l 913 762 l 918 762 m 1559 358 l 1559 362 q 1559 373 1559 363 q 1558 394 1558 383 q 1557 414 1558 405 q 1557 426 1557 423 l 1557 431 q 1533 496 1551 468 q 1489 544 1515 525 q 1431 574 1464 563 q 1364 584 1398 584 l 1334 584 l 1332 580 l 1332 579 l 1334 572 q 1347 555 1337 569 q 1361 537 1357 541 q 1382 528 1368 529 q 1408 526 1397 527 q 1469 481 1452 512 q 1486 409 1486 450 q 1479 366 1486 390 q 1464 325 1472 341 q 1455 306 1461 319 q 1444 279 1450 293 q 1433 254 1439 266 q 1425 240 1427 243 q 1404 198 1419 227 q 1373 136 1390 169 q 1339 75 1355 104 q 1316 33 1323 45 l 1316 6 l 1352 -116 l 1361 -134 q 1373 -129 1366 -134 q 1385 -118 1379 -125 q 1396 -104 1391 -111 q 1405 -93 1401 -97 q 1424 -71 1411 -87 q 1452 -37 1437 -55 q 1482 -4 1468 -19 q 1501 18 1495 11 q 1510 34 1505 22 q 1518 59 1515 45 q 1524 84 1522 72 q 1525 102 1526 97 l 1554 248 q 1554 270 1554 251 q 1557 315 1555 288 q 1559 358 1558 343 m 1098 479 l 1098 481 q 1093 505 1098 488 q 1088 526 1088 522 q 1071 548 1087 538 q 1045 569 1055 558 q 1025 608 1032 584 q 1019 654 1019 632 q 1021 682 1019 669 q 1027 709 1023 694 l 1027 712 q 1024 725 1026 716 q 1019 743 1022 733 q 1014 761 1016 752 q 1011 773 1012 770 q 1008 781 1011 776 q 1002 786 1005 786 q 988 773 995 787 q 973 742 980 759 q 962 709 966 725 q 958 691 958 693 q 957 675 958 690 q 955 657 955 659 q 966 593 955 620 q 994 545 976 566 q 1036 506 1012 523 q 1088 473 1061 490 l 1093 473 q 1098 479 1098 473 m 902 748 q 881 786 902 773 q 836 800 859 800 q 800 797 818 800 q 768 794 783 794 l 754 794 q 743 820 741 801 q 743 863 744 840 q 734 910 743 887 q 693 945 725 933 l 675 945 q 634 941 655 945 q 598 925 613 936 l 488 847 q 475 841 481 841 q 462 840 469 840 q 441 848 448 840 q 429 868 433 857 q 424 893 425 880 q 423 916 423 907 q 425 954 423 936 q 426 990 426 972 q 398 1071 426 1043 q 315 1100 370 1100 q 268 1091 291 1100 q 225 1068 244 1083 q 194 1031 206 1052 q 181 983 181 1009 q 195 914 181 947 q 213 847 209 882 l 213 812 q 202 734 213 770 q 172 666 190 698 q 134 602 155 633 q 96 540 113 572 q 67 473 79 508 q 55 400 55 438 q 70 347 55 373 q 111 312 84 322 l 113 315 l 113 319 l 111 320 q 104 332 108 323 q 97 344 100 341 q 81 400 81 372 q 109 504 81 458 q 171 597 137 551 q 233 691 205 643 q 261 802 261 740 q 255 843 261 823 q 243 884 250 863 q 230 924 236 904 q 225 963 225 944 q 233 1000 225 982 q 254 1034 241 1019 q 285 1057 268 1048 q 322 1066 302 1066 q 366 1048 352 1066 q 384 1002 379 1030 q 390 943 388 975 q 397 884 391 912 q 417 838 402 857 q 465 820 431 820 q 516 836 491 820 q 565 872 541 852 q 613 909 588 893 q 663 925 637 925 q 690 919 679 925 q 701 897 701 913 q 697 864 701 882 q 693 829 693 847 q 708 791 693 812 q 738 762 723 770 q 754 758 745 757 q 770 759 762 759 q 804 765 788 759 q 838 770 820 770 q 861 765 847 770 q 873 748 876 759 l 868 741 l 868 729 l 836 691 l 836 690 l 838 686 q 857 692 847 686 q 878 707 868 698 q 895 727 888 716 q 902 748 902 738 m 873 97 q 876 97 876 97 q 873 98 876 98 q 870 97 870 98 q 873 97 870 97 m 325 619 l 325 622 l 322 625 l 322 616 l 325 619 m 770 665 l 770 669 q 765 675 770 675 q 751 670 757 675 l 613 607 q 588 597 600 605 q 563 586 577 588 l 345 481 l 336 481 q 318 472 336 481 q 275 451 300 463 q 222 425 250 438 q 179 404 195 412 q 168 397 176 401 q 158 391 161 394 l 158 388 l 161 384 l 409 312 q 424 308 422 309 q 441 304 426 306 q 475 295 451 301 q 525 281 498 288 q 575 268 551 275 q 608 261 598 262 l 611 261 q 620 267 618 261 q 625 277 622 273 l 754 619 l 757 625 q 763 645 759 629 q 770 665 768 661 m 1151 241 q 1148 254 1151 251 l 932 508 q 916 528 925 519 q 900 547 907 537 q 859 598 880 572 q 815 648 838 625 l 809 654 q 801 657 807 657 q 795 654 795 657 q 791 644 794 651 l 690 377 l 686 370 l 640 245 q 637 239 640 243 q 634 234 634 236 l 632 230 l 611 230 l 341 309 l 325 309 l 176 351 l 169 351 q 161 348 162 351 q 161 341 161 345 l 161 336 l 198 93 l 198 91 q 204 60 201 81 q 208 34 208 38 q 209 29 208 33 q 211 23 211 26 q 215 -9 212 13 q 222 -59 218 -33 q 229 -109 226 -86 q 234 -143 233 -133 q 236 -161 234 -147 q 237 -180 237 -176 q 243 -184 237 -186 q 248 -183 248 -183 q 261 -182 258 -183 q 272 -177 263 -181 l 884 108 l 905 119 l 1145 234 q 1151 241 1151 236 m 1486 190 q 1483 193 1483 190 q 1486 195 1483 195 q 1489 193 1489 195 q 1486 190 1489 190 m 590 338 q 579 320 590 320 q 561 328 568 320 q 555 347 555 336 q 559 355 555 354 q 569 356 562 356 q 590 338 590 356 "},"":{"x_min":0,"x_max":0,"ha":2246},"g":{"x_min":28.890625,"x_max":1017,"ha":1051,"o":"m 1017 460 l 1017 648 l 1011 701 l 1005 708 l 844 712 l 836 715 q 834 724 836 715 q 833 737 833 733 l 833 740 q 834 795 833 768 q 836 851 836 822 l 836 865 q 825 873 833 870 q 809 877 818 876 q 793 877 801 877 q 780 876 784 876 q 770 877 777 876 q 755 877 764 877 q 739 878 747 877 q 730 879 732 879 l 725 879 q 711 879 720 879 q 690 880 701 880 q 671 881 680 880 q 658 881 662 881 q 650 887 651 881 q 650 895 650 893 q 649 910 650 899 q 648 931 648 920 q 647 953 648 943 q 647 968 647 963 l 647 1051 q 646 1088 647 1065 q 645 1129 645 1112 q 644 1148 644 1145 l 638 1154 l 522 1154 l 505 1157 l 295 1157 q 289 1151 290 1157 q 287 1143 287 1145 l 287 1032 q 286 988 287 1019 q 286 923 286 958 q 285 858 286 888 q 284 815 284 827 l 280 812 q 272 811 279 812 q 262 809 265 809 l 176 809 l 171 804 l 171 559 l 165 554 l 42 554 l 40 550 l 37 544 q 37 258 40 400 q 34 -27 34 116 q 33 -60 34 -37 q 33 -109 33 -83 q 32 -158 33 -135 q 31 -190 31 -181 q 30 -196 31 -192 q 28 -202 28 -199 l 28 -204 l 34 -211 q 51 -212 38 -211 q 67 -213 63 -213 l 206 -213 q 226 -216 219 -215 q 245 -217 234 -217 q 256 -217 247 -217 q 279 -215 268 -217 q 301 -212 291 -214 q 311 -207 311 -211 q 314 -191 312 -203 q 318 -166 316 -179 q 320 -141 319 -153 q 320 -123 320 -129 q 320 -118 320 -123 q 320 -108 320 -114 q 321 -98 320 -103 q 325 -93 322 -93 l 469 -93 q 487 -105 480 -93 q 488 -119 487 -110 q 489 -141 488 -129 q 491 -162 490 -153 q 491 -176 491 -172 q 498 -206 494 -192 q 522 -221 502 -221 l 526 -221 l 534 -219 l 564 -219 q 766 -222 666 -219 q 969 -225 866 -225 l 1003 -225 l 1011 -217 l 1011 310 q 1012 326 1011 315 q 1012 351 1012 338 q 1013 375 1012 363 q 1014 391 1014 387 l 1014 447 q 1015 454 1014 449 q 1017 460 1017 458 m 544 990 q 530 976 544 976 q 514 975 523 976 q 497 976 505 975 q 483 982 488 977 q 477 995 477 986 l 481 1054 l 540 1054 l 544 1048 l 544 990 m 438 990 q 434 979 438 983 q 412 976 420 976 q 394 976 405 976 l 381 976 q 373 994 373 980 q 373 1015 373 1008 l 373 1037 q 375 1048 373 1041 q 376 1054 376 1054 l 381 1057 l 430 1057 l 437 1054 l 438 1051 l 438 990 m 711 663 q 709 656 711 658 q 705 648 708 654 l 697 648 q 674 649 684 648 q 653 655 664 650 q 650 680 650 672 q 650 704 650 690 l 650 718 q 651 740 650 727 q 653 752 653 752 l 658 754 l 705 754 l 708 752 q 709 741 708 752 q 711 723 711 730 l 711 693 l 711 663 m 828 483 q 820 467 828 468 q 800 466 812 466 q 791 466 798 466 q 779 467 786 466 q 766 468 772 468 q 761 470 761 469 l 761 576 l 766 581 l 814 581 q 823 578 818 581 q 828 572 828 575 l 828 483 m 608 709 q 607 676 608 697 q 606 655 606 655 l 601 651 l 586 651 q 576 651 583 651 q 561 651 569 651 q 548 653 554 651 q 542 659 542 655 l 542 743 q 547 757 542 754 q 561 759 553 759 l 564 759 q 587 758 572 759 q 603 757 603 757 l 606 754 q 607 745 606 754 q 608 732 608 736 l 608 722 l 608 709 m 711 505 q 709 486 711 498 q 708 475 708 475 l 705 470 l 661 470 q 653 476 654 470 q 653 484 653 481 l 653 573 q 655 579 653 576 q 661 586 658 583 l 677 586 q 693 586 682 586 q 708 580 705 587 q 711 550 711 561 q 711 522 711 538 l 711 505 m 824 380 q 825 348 824 368 q 822 313 826 329 q 808 311 815 311 q 794 311 801 311 q 787 311 792 311 q 776 311 783 311 q 765 312 770 311 q 761 316 761 313 l 761 409 l 822 409 l 824 408 l 824 380 m 606 477 l 601 470 l 586 470 l 564 470 q 555 472 561 470 q 548 475 550 475 q 544 477 546 475 q 542 480 542 480 l 542 580 l 548 586 l 601 586 l 606 580 l 606 477 m 708 322 q 698 313 708 313 q 686 313 690 313 q 678 313 683 313 q 668 313 673 313 q 658 315 662 313 q 655 322 654 318 q 653 352 653 338 q 653 383 653 366 q 653 400 653 386 q 661 413 653 413 l 703 413 l 705 409 l 708 405 l 708 322 m 819 211 q 819 180 819 195 q 816 150 819 165 q 809 147 813 147 q 802 147 805 147 q 774 148 787 147 q 758 166 761 150 l 758 194 q 758 222 758 209 q 761 250 758 234 q 768 253 763 254 q 777 252 773 252 q 786 252 779 252 q 800 250 792 251 q 813 249 808 250 q 819 247 819 248 l 819 211 m 325 616 l 320 612 l 306 612 q 292 612 299 612 q 280 616 287 612 l 279 618 l 279 709 l 325 709 l 325 616 m 606 325 q 597 316 606 316 l 580 316 l 561 316 q 550 318 558 316 q 542 319 542 319 l 540 327 l 540 352 q 539 383 540 365 q 544 413 537 401 l 548 416 l 594 416 q 598 415 594 416 q 603 413 601 413 l 606 409 l 606 325 m 325 469 l 323 466 l 318 462 l 279 462 l 279 551 l 284 558 l 318 558 l 323 554 l 325 551 l 325 469 "},"e":{"x_min":29,"x_max":824.859375,"ha":856,"o":"m 823 1005 l 823 1025 q 821 1057 821 1044 q 818 1094 821 1071 q 810 1100 816 1098 q 798 1102 804 1101 q 787 1105 792 1103 q 782 1114 782 1107 l 775 1160 l 773 1167 l 750 1167 l 714 1167 q 700 1165 710 1167 q 691 1164 691 1164 l 685 1158 q 684 1146 685 1158 q 682 1128 682 1134 q 682 1108 682 1122 q 682 1082 682 1095 q 678 1056 681 1068 q 670 1044 675 1045 l 584 1044 q 337 1045 460 1044 q 90 1050 213 1047 l 87 1052 l 87 1069 q 84 1088 87 1073 q 81 1106 81 1104 q 69 1115 78 1116 q 53 1115 60 1115 q 37 1113 42 1115 q 29 1102 31 1112 q 34 472 39 786 q 33 -157 29 159 q 32 -171 33 -161 q 39 -181 31 -181 l 61 -185 q 398 -186 231 -185 q 734 -188 564 -188 q 751 -188 739 -188 q 775 -188 763 -189 q 798 -185 788 -188 q 811 -176 809 -183 q 824 414 823 120 q 823 1005 825 708 m 649 897 q 649 841 649 865 q 647 786 649 818 q 642 778 644 779 q 633 775 640 777 l 608 775 l 580 775 q 548 776 568 775 q 528 777 528 777 l 525 783 l 525 808 q 524 875 525 844 q 526 944 524 907 l 528 952 l 532 955 l 637 955 q 642 952 639 955 q 647 947 646 950 q 648 936 647 944 q 649 920 649 929 q 649 905 649 912 q 649 897 649 898 m 647 591 q 648 533 648 568 q 647 472 648 500 q 640 464 645 465 q 633 463 634 463 l 541 463 q 527 471 530 463 q 525 486 525 479 q 525 627 522 558 q 527 640 525 633 q 529 647 529 647 l 533 650 l 566 650 l 619 650 q 635 648 626 650 q 644 647 644 647 l 647 641 l 647 591 m 318 788 q 314 782 318 784 q 308 777 310 780 l 265 777 l 224 777 q 203 778 217 777 q 189 780 189 780 l 184 785 l 183 949 q 194 958 183 958 l 311 958 l 314 955 l 317 949 l 318 788 m 320 561 q 320 547 320 558 q 319 523 320 536 q 319 499 319 511 q 319 486 319 488 q 318 474 319 481 q 310 468 317 468 l 205 468 q 198 469 202 468 q 191 470 194 470 l 188 472 l 186 649 l 190 652 q 199 654 190 652 q 215 656 208 656 l 220 656 l 228 656 q 246 656 234 656 q 271 654 258 655 q 296 653 284 654 q 312 652 307 652 q 315 648 313 649 q 317 644 317 647 q 318 630 317 640 q 319 608 319 620 q 319 587 319 597 q 320 573 320 577 l 320 568 l 320 561 m 649 168 q 646 152 649 155 q 633 146 644 149 l 581 146 l 525 146 q 491 147 512 146 q 470 149 470 149 l 463 151 q 463 169 463 154 q 461 205 462 183 q 461 240 461 226 l 461 276 q 459 294 459 283 q 459 307 459 307 q 461 330 459 315 q 473 349 462 344 l 540 349 q 589 349 560 349 q 642 344 618 350 q 647 335 647 342 l 649 168 m 330 248 l 327 245 l 327 251 l 330 248 m 688 -79 q 687 -98 688 -82 q 686 -118 686 -114 q 673 -128 683 -128 l 543 -128 q 532 -127 540 -128 q 520 -126 525 -126 q 515 -124 518 -126 q 512 -118 512 -122 l 511 -54 q 516 -43 511 -47 q 530 -39 522 -40 q 546 -39 538 -38 q 558 -40 554 -40 q 620 -41 590 -40 q 683 -43 651 -43 l 686 -48 q 687 -64 686 -52 q 688 -79 688 -76 m 317 82 q 315 57 317 75 q 314 32 314 39 q 303 24 314 24 l 255 24 q 200 24 222 24 q 144 26 178 24 q 136 35 136 26 l 136 68 l 136 98 q 133 217 135 155 q 137 337 132 278 q 151 351 137 351 l 212 351 q 258 351 233 351 q 307 348 283 351 q 312 339 312 344 q 311 328 312 332 q 310 317 310 324 q 312 301 310 309 q 314 287 314 294 l 314 281 q 313 265 314 278 q 312 236 312 251 q 312 206 312 220 q 311 190 311 193 l 311 184 q 314 143 312 163 q 315 98 315 122 q 317 89 317 96 q 317 82 317 82 m 319 -40 q 314 -46 319 -42 q 307 -51 310 -51 l 137 -51 q 133 -47 134 -51 q 132 -43 132 -43 q 150 -29 132 -29 l 305 -29 q 314 -32 309 -29 q 319 -40 319 -35 m 318 -113 q 311 -126 318 -125 q 296 -128 304 -128 l 153 -128 q 139 -126 143 -128 q 135 -118 135 -125 q 137 -104 135 -108 q 151 -101 140 -101 l 312 -101 q 317 -106 316 -101 q 318 -113 318 -112 "},"J":{"x_min":74.078125,"x_max":1407.0625,"ha":1485,"o":"m 1194 632 q 1187 655 1194 644 q 1171 674 1180 665 q 1152 692 1162 683 q 1137 711 1143 701 l 1002 859 q 998 866 1002 862 q 993 873 993 871 q 975 893 988 878 q 946 925 962 908 q 917 957 930 941 q 900 976 904 972 q 879 1001 894 983 q 843 1042 863 1019 q 801 1091 823 1065 q 759 1137 779 1116 q 726 1171 740 1158 q 709 1185 712 1185 q 695 1182 701 1185 q 680 1178 688 1180 q 657 1167 673 1175 q 622 1151 640 1160 q 587 1135 604 1143 q 563 1125 570 1128 q 550 1116 558 1119 q 536 1111 543 1114 l 138 919 l 111 901 l 111 891 q 124 854 111 872 q 150 821 137 836 l 312 622 l 315 618 l 401 512 l 404 508 q 481 409 436 461 q 570 314 527 357 l 581 314 q 601 320 587 314 q 631 334 615 326 q 661 351 647 343 q 680 364 675 359 q 691 367 683 364 q 702 373 700 371 q 934 486 820 426 q 1162 604 1047 546 q 1181 616 1168 607 q 1194 632 1194 625 m 1407 128 l 1407 132 l 1407 135 q 1406 142 1407 136 q 1405 156 1405 149 q 1404 170 1405 164 q 1404 178 1404 176 q 1404 200 1404 186 q 1404 228 1404 214 q 1402 256 1404 243 q 1397 276 1401 269 q 1315 374 1359 328 q 1230 468 1270 419 q 1223 486 1223 479 q 1223 501 1223 490 q 1221 523 1222 511 q 1220 545 1220 535 q 1219 560 1219 556 q 1216 587 1219 571 q 1198 603 1213 603 q 1191 602 1193 603 q 1183 599 1190 601 q 1127 570 1154 586 q 1070 543 1100 554 l 773 390 q 764 387 770 390 q 755 383 758 383 q 674 342 712 361 q 600 299 636 322 q 593 292 597 299 q 588 283 588 286 l 588 231 q 593 215 588 225 q 602 203 597 206 l 762 18 q 802 -34 791 -7 q 812 -98 812 -60 q 812 -107 812 -99 q 811 -126 812 -116 q 805 -137 809 -137 l 797 -134 q 729 -59 761 -98 q 666 15 698 -21 q 655 28 663 19 q 637 48 647 37 q 619 68 627 58 q 607 82 611 78 q 589 99 601 87 q 577 110 577 110 l 568 110 l 568 103 q 587 70 575 87 q 613 39 600 53 q 621 31 615 37 q 636 15 627 24 q 651 0 644 6 q 659 -9 658 -7 q 723 -85 691 -46 q 787 -162 755 -124 q 804 -182 793 -170 q 829 -194 816 -194 q 840 -191 837 -194 q 854 -182 843 -188 q 861 -178 855 -181 q 872 -173 866 -175 q 883 -166 877 -170 q 890 -162 888 -163 q 924 -144 900 -156 q 977 -116 948 -131 q 1029 -89 1005 -102 q 1063 -70 1054 -75 l 1073 -63 l 1262 32 q 1292 45 1270 35 q 1338 68 1314 56 q 1382 92 1362 81 q 1404 110 1401 104 q 1405 117 1404 110 q 1407 128 1407 125 m 563 205 q 564 240 563 222 q 562 275 565 258 q 552 309 559 293 q 531 337 545 325 l 255 669 l 248 680 q 175 774 213 723 q 93 865 136 825 l 86 865 q 77 864 83 865 q 75 858 72 863 l 75 811 q 75 752 75 776 q 79 691 76 727 q 96 656 86 672 q 120 623 106 640 l 323 376 q 345 349 336 365 q 369 322 355 333 l 513 152 q 530 135 519 144 q 550 120 541 126 l 552 120 l 559 127 q 563 166 562 147 q 563 205 563 186 m 1194 527 q 1187 525 1194 525 q 1173 535 1179 525 q 1166 552 1166 545 q 1172 562 1166 558 q 1183 566 1177 566 q 1193 557 1191 566 q 1194 543 1194 548 l 1194 527 m 1368 266 q 1350 248 1368 255 q 1326 241 1333 241 q 1315 244 1318 241 l 1269 290 q 1241 322 1262 298 q 1197 373 1220 345 q 1151 427 1173 401 q 1120 463 1129 452 q 1104 486 1118 470 q 1088 506 1091 501 l 1088 511 q 1104 529 1088 522 q 1130 536 1119 536 q 1152 522 1141 536 q 1169 500 1163 508 q 1266 391 1220 447 q 1361 283 1311 336 q 1367 275 1366 277 q 1368 266 1368 272 m 797 938 q 783 922 797 925 l 436 748 q 398 730 416 741 q 362 719 380 719 l 351 719 q 334 734 345 722 q 312 760 323 745 q 293 788 301 775 q 284 811 284 802 q 292 824 284 818 q 305 833 300 830 l 450 904 l 461 907 q 579 965 523 936 q 698 1025 636 994 q 707 1028 701 1025 q 716 1032 713 1032 l 719 1032 q 739 1020 726 1032 q 765 992 752 1008 q 787 961 777 976 q 797 938 797 945 m 1212 230 q 1183 202 1198 215 q 1144 188 1168 188 q 1099 204 1120 188 q 1077 248 1077 220 q 1095 295 1077 275 q 1141 315 1113 315 q 1195 293 1179 315 q 1212 237 1212 272 l 1212 230 m 826 808 q 816 793 826 801 q 792 777 805 784 q 766 765 779 770 q 748 758 754 759 l 568 666 q 538 653 554 661 q 506 645 523 645 q 497 647 501 645 q 493 655 493 648 q 495 662 493 658 q 500 669 497 666 q 513 677 504 672 q 531 688 522 683 q 550 698 541 694 q 563 705 559 702 q 576 711 566 707 q 597 721 586 716 q 618 731 608 726 q 632 737 629 736 q 650 747 637 740 q 673 758 662 755 l 805 822 l 812 822 q 826 808 826 822 m 918 694 l 897 680 q 846 656 882 673 q 771 618 811 638 q 697 581 732 598 q 648 556 662 563 q 622 541 637 551 q 591 531 608 531 q 577 540 584 531 q 570 559 570 548 q 594 581 570 568 q 647 608 618 594 q 707 634 677 622 q 748 652 736 647 l 762 662 q 769 666 765 662 q 773 669 773 669 q 795 680 779 672 q 828 698 811 688 q 861 716 845 708 q 883 726 876 723 l 893 726 q 911 719 904 726 q 918 701 918 712 l 918 694 m 1038 372 q 1038 359 1038 365 q 1032 347 1037 352 l 1020 347 q 1000 349 1009 347 q 979 351 990 351 q 952 345 965 351 q 925 340 938 340 q 907 354 909 340 q 904 383 904 369 q 925 422 904 404 q 968 440 945 440 q 1018 420 997 440 q 1038 372 1038 400 m 1050 266 q 1034 217 1050 238 q 993 195 1019 195 q 954 208 963 195 q 932 244 945 220 q 927 253 932 247 q 922 262 922 259 l 922 269 q 938 309 922 293 q 979 326 955 326 q 1026 311 1002 326 q 1050 266 1050 295 m 1386 145 q 1386 130 1386 137 q 1379 116 1386 125 q 1375 113 1379 116 q 1368 109 1370 109 q 1229 36 1301 69 q 1091 -31 1158 4 q 1082 -35 1088 -31 q 1073 -41 1076 -38 l 854 -151 l 851 -151 q 841 -145 845 -151 q 836 -134 836 -140 q 834 -113 836 -129 q 833 -95 833 -98 q 834 -68 833 -88 q 836 -41 836 -47 q 843 -33 838 -36 q 854 -27 848 -30 q 872 -17 861 -23 q 895 -5 883 -11 q 915 4 907 0 q 925 11 923 9 q 936 16 927 12 q 957 25 945 20 q 977 34 968 30 q 988 38 986 37 l 1000 45 q 1027 61 1009 51 q 1061 80 1044 70 q 1093 97 1079 90 q 1112 106 1108 105 q 1136 114 1120 109 q 1159 127 1151 119 l 1361 230 l 1368 230 q 1376 231 1370 230 q 1382 227 1382 233 q 1385 185 1384 204 q 1386 145 1386 166 m 925 191 q 904 147 925 162 q 861 131 884 131 q 808 149 829 131 q 787 198 787 166 q 807 245 787 227 q 854 262 827 262 q 904 241 883 262 q 925 191 925 220 m 769 276 q 747 229 769 247 q 698 212 725 212 q 654 231 675 212 q 634 273 634 250 l 634 283 q 647 293 640 288 q 659 301 654 298 q 670 306 662 302 q 688 316 679 311 q 705 325 697 320 q 716 330 713 329 l 726 330 q 757 311 745 330 q 769 276 769 293 m 963 70 q 950 49 963 59 q 920 30 937 38 q 886 16 904 22 q 861 11 869 11 q 846 22 848 11 q 844 43 844 34 q 861 93 844 72 q 907 113 877 113 q 943 103 923 113 q 963 70 963 93 m 765 93 q 766 80 765 90 q 758 70 766 70 q 740 81 751 70 q 718 104 729 91 q 700 129 708 116 q 691 145 691 141 q 695 150 691 148 q 702 152 700 152 q 747 136 729 152 q 765 93 765 119 "},"|":{"x_min":95.84375,"x_max":843.125,"ha":943,"o":"m 612 835 l 612 844 q 602 934 612 885 q 580 1021 591 983 q 570 1028 573 1028 q 534 1028 559 1028 q 479 1030 508 1029 q 425 1031 451 1031 q 390 1031 400 1031 l 372 1031 l 351 1031 q 342 1026 348 1031 q 336 1018 336 1021 l 312 860 l 312 835 q 317 830 312 832 q 322 828 322 828 q 358 828 333 828 q 413 826 384 828 q 466 824 441 825 q 502 824 491 824 l 506 824 l 513 824 q 551 826 527 824 q 591 829 575 828 q 609 831 607 831 l 612 835 m 843 466 l 843 572 q 841 597 843 580 q 826 618 838 615 q 804 619 819 618 q 783 621 788 621 q 762 621 779 621 q 729 620 747 621 q 695 619 712 619 q 676 619 680 619 q 659 619 673 619 q 632 619 647 619 q 604 620 618 619 q 588 621 591 621 l 541 621 q 525 620 536 619 q 513 622 513 622 l 513 796 q 506 805 513 801 q 493 809 498 809 l 422 808 q 411 807 419 808 q 404 798 404 805 q 402 707 401 751 q 397 619 402 664 l 368 619 q 243 618 305 618 q 116 618 180 619 q 109 615 113 618 q 102 611 105 613 q 100 360 105 484 q 95 110 95 237 l 95 21 q 102 -5 95 -1 q 131 -10 109 -10 q 138 -9 134 -10 q 141 -8 141 -8 l 148 -1 l 202 441 l 202 445 q 205 465 204 452 q 208 485 206 477 q 209 495 209 494 l 216 502 q 229 502 218 502 q 256 503 240 502 q 283 504 273 504 q 455 504 369 505 q 627 504 541 504 q 676 506 657 504 q 723 502 695 508 q 728 493 726 499 q 730 484 730 487 l 747 348 l 747 337 l 765 177 l 765 170 l 783 10 q 799 -2 784 -2 q 822 -1 813 -1 l 833 -1 l 836 2 q 836 19 836 5 q 838 57 837 34 q 840 94 840 80 q 843 278 843 187 q 843 466 843 372 "},"":{"x_min":31.953125,"x_max":1275.109375,"ha":1292,"o":"m 1275 512 q 1269 529 1275 522 q 1114 681 1195 608 q 957 831 1033 755 l 648 1136 q 641 1136 645 1137 q 634 1133 637 1134 q 610 1107 627 1126 q 569 1064 593 1088 q 519 1013 545 1040 q 470 965 493 987 q 429 929 447 944 q 406 915 412 915 l 404 915 q 400 937 401 919 q 400 976 400 955 q 400 1017 400 998 q 400 1045 400 1038 l 394 1055 q 326 1059 361 1059 q 273 1058 300 1059 q 219 1055 247 1056 q 210 1024 212 1049 q 209 962 208 998 q 211 884 209 926 q 214 805 213 842 q 213 739 215 767 q 205 702 212 710 l 34 535 q 31 524 31 530 l 31 522 q 56 522 37 522 q 99 520 77 522 q 138 517 120 519 q 155 509 155 515 q 156 482 155 495 q 158 455 158 469 q 156 169 158 313 q 155 -115 155 26 l 158 -122 q 204 -126 169 -125 q 286 -128 240 -128 q 382 -130 331 -129 q 477 -130 433 -130 q 551 -129 520 -129 q 587 -129 581 -129 q 827 -128 708 -129 q 1068 -128 947 -128 q 1085 -128 1075 -128 q 1105 -129 1095 -129 q 1126 -127 1116 -129 q 1141 -118 1136 -125 q 1141 26 1143 -58 q 1139 199 1140 110 q 1141 368 1138 287 q 1151 501 1143 449 l 1158 512 l 1275 512 m 344 863 q 342 852 344 859 q 340 841 340 845 q 309 811 325 826 q 276 784 294 795 l 269 794 l 269 994 q 277 1003 269 1001 q 291 1005 286 1005 l 312 1005 q 331 1004 319 1005 q 344 991 344 1002 l 344 863 m 1137 576 q 1134 569 1138 573 l 1087 569 q 1082 559 1084 566 q 1080 548 1080 552 q 1078 245 1080 397 q 1073 -57 1076 94 l 1068 -68 q 1043 -71 1055 -71 q 1018 -71 1030 -71 l 355 -71 q 288 -72 322 -71 q 223 -69 255 -73 l 215 -62 l 215 538 q 212 566 215 552 q 204 574 211 573 q 191 576 198 576 q 181 577 186 576 q 176 586 176 579 l 176 590 q 225 640 187 601 q 314 729 263 679 q 421 836 365 780 q 526 940 477 892 q 608 1017 575 987 q 645 1048 641 1048 q 650 1047 648 1048 q 655 1045 652 1045 q 896 811 777 927 q 1137 576 1015 694 m 1033 450 q 1026 459 1033 459 q 1015 459 1021 459 q 1002 463 1012 462 q 989 466 991 463 q 970 472 980 468 q 954 480 961 476 q 937 490 951 482 q 920 500 923 498 q 879 515 901 511 q 836 519 857 519 q 757 504 795 519 q 679 489 719 489 q 589 504 634 489 q 543 519 565 511 q 497 527 522 527 q 445 522 470 527 q 395 508 420 516 q 364 493 380 501 q 333 480 348 486 q 311 475 326 477 q 295 472 297 472 l 282 472 q 277 462 277 472 q 286 454 277 455 q 300 450 294 452 q 307 448 300 450 q 316 447 315 447 q 357 437 336 444 q 397 423 379 430 q 402 422 398 423 q 405 418 405 420 l 405 405 q 405 394 405 402 q 404 377 405 386 q 402 361 404 368 q 397 354 401 354 q 390 358 394 354 q 350 397 370 377 q 309 434 329 416 q 301 440 307 437 q 293 443 295 443 q 282 438 287 443 q 277 427 277 433 q 282 416 277 423 q 293 402 287 409 q 307 387 300 394 q 316 375 313 380 q 369 284 344 330 q 434 202 394 238 q 457 184 445 191 q 480 167 468 177 q 498 154 489 160 q 516 144 507 148 q 577 122 544 130 q 641 115 609 115 q 783 142 712 115 q 898 227 854 169 q 918 258 909 242 q 939 291 927 274 q 943 297 939 292 l 1000 386 q 1014 402 1007 395 q 1021 420 1021 409 q 1012 431 1021 431 l 1008 431 q 999 426 1005 430 q 990 420 993 422 q 987 419 989 420 q 986 418 986 418 l 950 390 q 945 388 948 388 q 939 395 939 388 q 939 406 939 402 l 939 413 q 945 421 940 418 q 955 423 951 424 q 991 435 975 431 q 1029 444 1008 438 q 1033 450 1033 444 m 651 -59 l 645 -59 l 645 -62 l 647 -62 q 651 -59 651 -62 m 922 383 q 921 373 922 379 q 917 363 920 367 q 897 344 912 356 q 876 331 883 331 q 869 336 872 331 q 867 344 867 340 q 867 369 867 349 q 866 394 866 388 l 866 397 q 872 402 866 402 l 912 411 l 915 411 q 920 408 919 411 q 921 397 920 405 q 922 386 922 388 l 922 383 m 851 337 q 849 320 851 330 q 839 305 847 309 q 812 290 827 298 q 782 283 797 283 l 776 283 q 771 297 771 287 q 769 324 771 304 q 768 352 768 345 l 768 369 l 768 386 q 775 388 769 388 q 796 392 780 390 q 815 394 812 394 q 828 396 822 395 q 841 397 834 397 l 846 397 q 850 392 850 395 q 851 387 851 390 l 851 340 l 851 337 m 752 273 q 749 269 752 270 q 745 267 746 267 q 713 260 729 262 q 682 258 697 258 q 661 260 667 258 q 653 278 656 262 q 653 291 653 283 q 652 308 653 299 q 651 326 651 317 q 651 338 651 334 l 651 340 q 652 358 651 344 q 653 377 653 373 q 657 384 653 381 q 698 385 678 384 q 739 386 718 386 l 746 386 q 750 379 750 383 q 751 353 750 372 q 751 327 752 334 l 751 299 l 752 273 m 634 294 q 619 262 634 275 l 604 262 l 588 262 q 569 266 583 263 q 551 272 555 269 q 536 288 537 277 q 536 312 536 298 q 536 351 536 330 q 540 391 536 372 q 547 393 541 393 q 554 391 550 393 q 561 390 558 390 q 575 389 565 390 q 595 388 584 388 q 616 387 607 388 q 630 384 626 386 l 634 380 l 634 294 m 842 279 q 838 275 842 279 q 832 268 835 270 q 815 255 824 261 q 796 244 806 250 l 771 227 q 749 218 763 222 q 720 210 735 213 q 690 205 704 206 q 667 204 675 204 q 611 208 638 204 q 557 219 585 212 q 550 223 552 219 q 539 229 547 225 q 522 239 531 234 q 506 249 514 244 q 495 257 497 254 q 486 262 489 259 q 479 270 482 265 l 482 270 l 483 270 q 512 259 499 265 q 540 248 525 252 q 604 235 572 238 q 670 232 635 232 l 692 232 q 699 232 693 232 q 713 234 706 233 q 726 236 720 236 q 733 237 732 237 l 736 237 l 790 255 q 806 262 797 259 q 822 269 815 265 q 831 276 825 272 q 842 280 838 280 l 842 279 m 519 356 q 520 324 519 341 q 513 291 520 306 l 511 288 l 505 288 q 481 294 493 288 q 461 305 470 300 q 429 332 437 319 q 422 373 422 345 l 422 413 q 427 415 423 415 l 430 415 q 506 400 468 408 q 516 397 512 398 q 519 388 519 395 l 519 356 "},"^":{"x_min":70.84375,"x_max":1268.15625,"ha":1357,"o":"m 1268 13 l 1268 17 q 1261 31 1268 24 q 1247 38 1255 38 q 1224 40 1241 38 q 1201 42 1207 42 l 1194 45 l 1194 49 l 1197 52 q 1218 69 1208 60 q 1240 88 1229 77 l 1261 109 l 1261 113 q 1258 123 1261 120 l 1179 237 l 1176 241 q 1171 249 1173 244 q 1169 255 1169 255 l 1169 414 q 1168 426 1169 417 q 1165 446 1166 435 q 1161 469 1163 457 q 1158 485 1159 480 q 1148 510 1155 496 q 1140 538 1140 524 l 1140 545 l 1155 552 q 1171 562 1158 555 q 1187 573 1184 570 q 1190 584 1190 577 q 1183 609 1190 598 l 1094 751 l 1091 757 q 1037 850 1063 806 q 982 942 1011 894 q 975 951 982 945 q 966 959 969 956 q 902 996 932 988 q 829 1002 873 1005 l 822 1006 l 822 1009 q 827 1018 822 1012 q 832 1027 832 1024 l 836 1034 q 844 1064 841 1049 q 847 1094 847 1078 q 837 1138 847 1117 q 811 1174 827 1159 q 772 1198 794 1189 q 729 1208 751 1208 q 645 1173 679 1208 q 612 1094 612 1139 q 621 1041 612 1064 q 651 998 630 1017 q 663 989 655 994 q 680 981 672 985 q 695 973 688 977 q 701 966 701 969 q 688 965 697 966 q 670 964 680 964 q 653 964 661 964 q 641 963 645 963 q 600 978 619 966 q 559 991 580 991 q 545 986 554 991 q 534 981 537 981 q 520 982 527 981 q 506 984 513 984 q 453 979 479 984 q 404 974 427 974 l 390 974 q 336 1014 361 1001 q 272 1027 312 1027 q 220 1014 240 1027 q 177 977 201 1001 q 168 964 177 977 q 152 952 159 952 q 133 955 141 952 q 113 959 125 959 q 81 939 91 959 q 70 899 70 919 q 81 873 70 882 q 106 854 93 863 q 130 831 119 845 q 141 792 141 817 q 127 744 141 766 q 113 694 113 721 q 126 639 113 662 q 158 602 138 617 q 203 578 177 587 q 255 566 229 570 l 265 556 l 301 488 q 311 478 305 481 q 325 472 318 474 q 340 468 333 470 q 351 460 347 466 q 406 387 375 428 q 454 312 437 346 q 461 286 459 298 q 463 263 462 274 q 469 242 465 252 q 484 223 473 232 q 507 213 491 217 q 542 205 523 209 q 578 199 561 202 q 605 194 595 196 q 606 171 605 187 q 607 139 607 156 q 609 106 608 121 q 609 84 609 91 l 609 74 q 609 37 609 57 q 606 -3 609 17 q 597 -42 604 -24 q 577 -75 590 -61 q 536 -97 558 -94 q 497 -104 515 -100 q 468 -121 479 -108 q 456 -176 456 -135 q 463 -196 456 -190 q 481 -206 470 -203 q 618 -210 551 -208 q 754 -213 684 -213 l 825 -213 q 850 -212 832 -213 q 887 -210 868 -211 q 925 -208 907 -209 q 950 -208 943 -208 q 970 -207 957 -208 q 984 -206 984 -206 l 988 -201 l 988 -187 q 989 -167 988 -178 q 988 -147 990 -157 q 982 -129 987 -137 q 966 -117 977 -121 q 939 -112 955 -114 q 911 -103 923 -111 q 864 -54 880 -85 q 841 10 848 -24 q 832 81 833 45 q 832 148 832 117 l 832 191 l 836 194 l 918 194 l 920 191 q 922 179 920 191 q 925 159 925 167 q 925 136 925 153 q 927 97 926 119 q 930 56 929 75 q 932 27 932 37 q 933 -1 932 9 q 938 -17 934 -11 q 952 -26 943 -24 q 982 -32 962 -29 l 988 -39 l 988 -114 q 1004 -133 988 -129 q 1030 -137 1019 -137 l 1165 -137 q 1186 -120 1182 -137 q 1190 -92 1190 -103 l 1190 -32 l 1197 -28 q 1229 -29 1211 -28 q 1261 -25 1247 -30 l 1265 -21 q 1266 -5 1265 -18 q 1268 13 1268 7 m 801 1087 q 779 1036 801 1058 q 729 1013 757 1013 q 702 1022 713 1013 q 683 1042 691 1030 q 670 1068 675 1054 q 666 1094 666 1082 q 684 1136 666 1118 q 729 1155 702 1155 q 779 1136 757 1155 q 801 1087 801 1116 m 1116 609 q 1093 588 1116 601 q 1041 561 1070 575 q 984 537 1012 547 q 945 527 957 527 q 933 534 938 527 q 923 548 927 540 q 915 566 919 556 q 907 580 911 575 l 779 825 q 775 829 779 825 q 772 836 772 833 q 765 844 769 838 q 761 850 761 850 q 749 854 755 855 q 737 854 743 854 q 720 855 732 854 q 698 857 709 857 q 678 859 687 858 q 666 861 669 861 q 650 864 663 861 q 634 868 637 868 q 620 872 632 868 q 605 879 608 876 q 593 884 601 880 q 576 892 584 887 q 561 902 568 897 q 555 913 555 908 q 560 923 555 922 q 570 925 565 925 l 580 925 q 632 911 608 919 q 683 904 657 904 q 729 911 707 904 q 772 927 751 918 q 815 943 794 936 q 857 950 836 950 q 908 936 884 950 q 945 900 932 923 l 1055 715 q 1088 665 1075 694 q 1116 612 1102 636 l 1116 609 m 907 513 l 902 513 l 900 520 l 902 520 l 907 513 m 1194 113 q 1188 104 1194 108 q 1179 98 1182 101 q 1163 90 1176 95 q 1144 81 1150 84 q 1129 88 1136 81 q 1116 102 1122 94 q 1105 118 1109 110 q 1098 130 1101 126 q 1087 142 1094 134 q 1074 160 1080 151 q 1062 176 1068 169 q 1055 184 1057 183 q 1037 202 1050 190 q 1011 229 1025 215 q 984 257 997 244 q 966 276 972 270 q 957 279 961 279 q 945 280 954 280 q 940 278 943 280 q 934 276 937 276 l 932 276 q 930 293 932 283 q 926 313 929 304 q 916 329 923 322 q 900 336 909 336 l 776 336 l 769 344 q 761 363 762 349 q 761 386 761 377 q 770 427 761 416 q 794 443 780 438 q 824 454 808 448 q 854 481 840 461 q 855 488 854 484 q 857 495 857 492 q 843 533 857 520 q 811 553 830 547 q 769 561 791 559 q 729 563 747 562 q 717 562 726 563 q 705 566 708 561 q 701 574 705 566 q 694 584 697 581 q 600 706 654 651 q 475 790 547 762 q 456 797 469 792 q 443 801 443 801 l 358 808 l 354 811 q 359 818 354 811 q 368 829 365 826 q 393 870 384 849 q 406 917 401 890 q 420 920 411 919 q 439 923 429 922 q 458 926 450 924 q 470 927 466 927 l 477 927 q 484 924 484 927 l 484 920 q 481 910 484 917 q 477 899 477 902 l 477 895 q 486 883 477 890 q 500 874 494 877 q 511 867 504 872 q 525 859 518 863 q 538 852 531 855 q 545 849 544 849 q 567 844 554 847 q 594 838 580 841 q 620 830 608 834 q 637 822 632 826 q 681 812 657 816 q 726 808 705 808 l 733 801 q 742 783 736 795 q 755 756 748 770 q 769 730 762 742 q 779 712 776 717 q 822 639 801 674 q 863 566 843 604 q 876 543 866 561 q 888 520 886 526 q 897 499 891 515 q 913 481 902 484 q 942 476 929 479 q 970 474 955 474 q 984 475 982 474 q 998 481 987 476 q 1014 490 1002 484 q 1039 501 1026 495 q 1064 512 1052 506 q 1080 520 1076 517 l 1087 520 q 1111 505 1104 520 q 1123 470 1119 490 q 1126 429 1126 449 q 1126 399 1126 409 q 1126 363 1126 379 q 1123 326 1126 349 l 1116 326 q 1109 335 1115 327 q 1095 354 1104 342 q 1080 372 1086 365 l 1069 390 q 1048 414 1063 395 q 1027 438 1033 433 q 1010 445 1022 444 q 995 445 998 445 l 943 445 l 888 445 q 875 441 883 445 q 868 431 868 437 q 884 422 868 424 q 922 418 901 420 q 965 411 944 416 q 995 397 986 406 q 1092 265 1040 330 q 1187 130 1144 201 q 1192 122 1190 124 q 1194 113 1194 119 m 340 872 q 333 856 340 862 q 316 846 326 850 q 297 841 306 843 q 283 840 288 840 q 231 857 254 840 q 208 904 208 875 q 225 961 208 938 q 280 984 243 984 q 291 984 284 984 q 305 982 298 984 q 317 976 312 980 q 322 963 322 972 q 318 955 322 962 q 311 938 315 948 q 308 925 308 927 l 308 920 q 320 895 308 908 q 340 875 331 883 l 340 872 m 1091 38 l 1084 36 l 1052 36 l 1020 36 q 1003 37 1015 36 q 991 38 991 38 l 988 43 l 982 75 l 982 177 l 988 177 q 995 171 988 177 q 1005 159 1002 165 q 1048 107 1032 130 q 1087 50 1065 84 l 1091 43 l 1091 38 m 1133 -88 l 1055 -88 l 1048 -81 l 1048 -66 q 1054 -36 1048 -45 q 1084 -27 1061 -27 l 1098 -27 q 1118 -29 1105 -27 q 1130 -31 1130 -31 l 1133 -34 l 1133 -88 m 641 563 l 637 559 q 584 554 611 559 q 531 545 558 548 q 509 502 509 529 q 518 464 509 476 q 538 447 526 452 q 566 440 551 442 q 594 431 581 438 q 615 406 607 423 q 623 354 623 388 l 623 344 l 616 336 l 509 336 q 506 340 509 336 q 500 347 502 344 q 466 387 483 366 q 438 431 450 408 q 424 488 426 459 q 413 545 422 516 q 405 570 411 554 q 400 588 400 586 q 393 601 398 591 q 382 624 388 612 q 370 649 376 637 q 361 666 363 661 q 343 697 354 679 q 318 733 331 715 q 288 763 304 751 q 258 776 272 776 q 225 764 238 776 q 212 733 212 752 l 212 722 q 218 711 213 719 q 227 695 222 704 q 235 679 231 687 q 240 669 238 672 q 249 651 243 662 q 255 630 255 641 q 244 623 255 623 q 190 641 215 623 q 166 691 166 659 q 167 701 166 698 q 173 715 168 704 q 178 724 175 716 q 184 740 181 731 q 190 756 187 749 q 194 765 193 763 q 199 788 200 776 q 201 811 198 799 l 205 811 l 208 811 q 252 795 231 804 q 301 790 273 787 l 304 786 q 318 770 306 783 q 333 751 330 756 l 343 747 q 444 742 401 751 q 520 710 487 733 q 582 652 554 687 q 641 566 611 616 l 641 563 m 872 276 q 869 265 872 270 q 863 255 866 260 q 734 253 800 255 q 605 251 669 251 l 541 251 q 529 258 534 251 q 525 271 525 265 q 531 283 525 280 q 661 285 598 280 q 790 290 723 290 q 825 290 811 290 q 868 287 840 290 q 872 276 872 283 m 836 -116 l 832 -121 l 637 -121 q 628 -120 634 -121 q 619 -114 622 -119 q 652 -42 641 -80 q 665 35 662 -4 q 666 116 668 76 q 662 194 663 156 q 670 199 663 198 q 683 201 676 201 q 696 201 690 202 q 705 201 702 201 q 725 201 713 201 q 748 201 737 202 q 768 197 759 201 q 776 184 776 194 q 777 157 776 176 q 779 118 779 138 q 782 79 780 98 q 783 52 783 60 q 799 -35 786 2 q 836 -116 812 -73 m 879 470 l 879 475 q 863 467 873 472 q 854 456 854 462 q 857 443 854 445 q 861 461 854 456 q 879 470 868 465 "},"q":{"x_min":103,"x_max":1102.734375,"ha":1179,"o":"m 1102 450 q 1102 496 1102 471 q 1095 542 1103 521 q 1067 603 1082 573 q 1033 656 1053 633 q 985 693 1013 679 q 918 708 957 707 q 865 698 890 708 q 818 675 840 689 q 810 668 815 672 q 801 664 804 664 q 787 669 796 664 q 769 683 778 675 q 755 698 761 690 q 747 711 748 705 q 746 724 747 711 q 744 743 744 737 l 744 747 l 747 754 q 789 797 771 778 q 815 848 807 817 l 815 883 q 803 965 815 932 q 747 1026 790 999 l 737 1030 l 666 1032 l 662 1037 q 621 1080 643 1064 q 564 1099 598 1097 q 520 1089 541 1099 q 488 1057 500 1079 q 483 1045 486 1051 q 475 1032 480 1039 q 456 1024 468 1026 q 431 1019 444 1021 q 407 1012 419 1017 q 390 1000 395 1008 l 361 954 q 358 935 358 949 q 358 915 358 921 q 374 830 358 869 q 425 761 390 792 l 425 708 q 417 696 425 703 q 404 690 409 690 q 386 698 395 692 q 368 710 376 705 q 336 719 352 717 q 301 721 320 721 q 206 695 244 722 q 145 626 168 668 q 112 533 122 585 q 103 435 103 482 q 118 292 103 360 q 162 160 134 223 q 225 37 189 97 q 304 -85 262 -23 q 313 -96 307 -88 q 326 -112 319 -103 q 339 -130 333 -121 q 347 -141 344 -138 l 351 -155 q 340 -172 344 -162 q 336 -194 336 -183 q 340 -202 336 -196 q 351 -208 344 -208 l 478 -211 q 490 -209 480 -211 q 503 -207 500 -207 q 524 -207 507 -207 q 560 -208 540 -208 q 596 -209 579 -208 q 617 -210 612 -210 q 765 -211 692 -211 q 914 -208 839 -211 q 922 -205 917 -208 q 928 -201 928 -203 l 928 -198 q 919 -173 928 -184 q 911 -148 911 -163 l 911 -141 q 985 -3 950 -74 q 1046 141 1020 67 q 1087 293 1072 215 q 1102 450 1102 371 m 761 952 q 750 907 761 933 q 721 855 738 880 q 682 813 704 830 q 641 795 661 795 q 630 802 630 795 q 646 856 630 832 q 669 908 662 880 q 674 936 672 920 q 680 966 676 951 q 693 990 684 980 q 719 1000 702 1000 q 750 986 738 998 q 761 952 761 973 m 619 969 q 612 908 619 937 q 584 854 605 879 q 579 847 584 851 q 573 843 573 843 q 552 861 563 843 q 531 904 541 880 q 516 952 522 929 q 509 986 509 976 q 513 1014 509 1000 q 524 1041 516 1029 q 543 1059 531 1052 q 570 1066 554 1066 q 592 1057 583 1066 q 609 1037 601 1048 q 620 1004 620 1026 q 619 969 619 983 m 513 812 q 506 805 513 805 q 451 830 475 807 q 413 877 427 854 q 407 891 411 883 q 404 898 404 898 l 404 962 q 422 990 404 982 q 456 998 441 998 q 463 994 463 998 q 469 959 469 977 q 475 922 469 941 q 498 868 483 895 q 513 812 513 840 m 1035 465 q 1016 325 1035 387 q 971 193 998 262 q 957 154 964 175 q 939 115 950 134 q 922 86 934 106 q 895 43 909 66 q 868 0 880 20 q 850 -26 855 -19 q 830 -54 841 -37 q 804 -86 818 -70 q 774 -113 790 -102 q 744 -125 758 -125 q 756 -76 744 -97 q 779 -31 768 -55 q 854 160 823 56 q 882 368 884 263 q 875 459 880 411 q 854 547 869 506 q 840 575 847 562 q 833 607 833 588 l 833 618 q 921 662 866 662 q 980 641 958 661 q 1015 591 1003 620 q 1031 527 1028 561 q 1035 465 1035 493 m 822 348 q 809 225 822 288 q 771 102 795 162 q 711 -11 747 41 q 630 -106 676 -65 l 627 -106 q 578 -73 606 -106 q 522 2 549 -40 q 473 84 495 44 q 443 141 451 125 q 386 296 405 220 q 368 458 368 372 q 383 551 368 505 q 427 633 398 597 q 497 691 456 669 q 587 712 537 713 q 616 710 599 712 q 649 704 633 708 q 681 694 666 700 q 705 680 697 688 l 758 626 q 763 619 759 625 q 770 607 766 613 q 776 595 773 601 q 779 587 779 588 q 812 470 802 527 q 822 348 822 412 m 505 -133 q 468 -117 489 -133 q 427 -79 447 -101 q 389 -36 407 -58 q 359 -2 372 -15 l 264 137 q 247 172 253 152 q 230 212 241 193 q 186 347 206 283 q 167 483 167 411 q 173 545 167 511 q 193 608 179 579 q 231 656 208 637 q 289 675 254 676 q 310 672 298 675 q 333 666 322 670 q 352 654 344 662 q 359 634 359 647 l 359 632 q 354 620 359 629 q 350 609 350 612 q 320 501 327 555 q 314 384 314 447 l 314 341 l 341 205 q 363 144 348 176 q 389 88 377 112 q 425 10 405 48 q 466 -65 444 -27 q 473 -76 468 -68 q 484 -93 477 -84 q 495 -110 490 -102 q 501 -119 500 -118 q 504 -126 504 -125 q 505 -133 505 -127 m 737 148 l 737 197 q 735 338 737 268 q 730 479 733 408 q 728 486 730 481 q 726 493 726 490 q 708 504 719 504 l 493 508 q 474 504 484 508 q 463 488 463 500 l 463 445 q 466 305 463 376 q 470 163 468 234 q 474 150 470 156 q 486 143 477 143 q 566 138 527 138 q 595 138 577 138 q 616 137 613 137 q 634 137 622 137 q 664 138 648 137 q 693 138 680 138 q 712 138 707 138 q 726 140 718 138 q 737 148 734 143 m 705 401 q 695 359 705 377 q 668 327 684 341 q 631 304 651 313 q 591 287 611 294 q 584 266 587 280 q 575 239 580 252 q 562 215 569 226 q 545 205 555 205 q 534 207 537 205 q 531 218 531 209 l 531 225 l 577 386 l 577 404 q 573 406 577 406 q 566 406 569 406 q 549 399 554 406 q 542 382 544 391 q 538 366 540 373 q 531 359 537 359 q 507 373 515 359 q 500 398 500 387 q 509 427 498 413 q 538 452 520 441 q 575 468 555 462 q 609 473 594 473 q 645 471 627 473 q 676 461 662 469 q 697 439 690 454 q 705 401 705 425 m 680 234 q 674 220 680 226 q 662 215 668 213 q 652 217 654 215 q 651 225 651 219 q 658 238 651 233 q 673 241 665 243 q 680 234 680 241 m 659 384 q 654 401 659 393 q 637 409 648 409 q 628 402 632 409 q 622 386 625 395 q 618 367 619 376 q 616 352 616 358 l 616 343 q 620 341 616 343 q 627 338 625 338 q 651 355 643 341 q 659 384 659 369 "},"b":{"x_min":91.671875,"x_max":2040.4375,"ha":2129,"o":"m 2040 857 q 2035 873 2040 868 q 2023 879 2030 877 q 2008 880 2016 880 q 1994 882 2001 880 q 1980 885 1990 883 q 1960 889 1970 887 q 1940 893 1950 891 q 1926 897 1930 895 q 1880 913 1905 902 q 1834 936 1854 925 q 1819 944 1832 937 q 1792 960 1807 951 q 1765 976 1777 969 q 1750 984 1752 983 q 1643 1023 1701 1012 q 1533 1034 1586 1034 q 1429 1022 1480 1034 q 1329 995 1379 1009 q 1229 968 1280 980 q 1126 957 1179 957 q 1007 966 1063 957 q 893 996 951 976 q 777 1035 833 1015 q 658 1056 722 1056 q 526 1042 591 1056 q 395 1007 461 1028 q 318 967 359 987 q 237 936 277 947 q 211 930 227 933 q 179 923 195 926 q 151 917 163 919 q 137 914 138 914 l 102 914 q 94 905 97 914 q 91 889 91 896 q 97 875 91 880 q 113 866 104 869 q 131 860 122 862 q 148 857 141 858 q 156 855 150 857 q 170 853 162 854 q 186 851 179 853 q 194 850 193 850 q 300 821 244 839 q 400 786 355 803 q 411 783 402 786 q 420 772 420 780 l 420 740 q 420 711 420 732 q 419 667 420 690 q 413 627 418 644 q 400 609 409 609 q 381 621 391 609 q 279 720 333 671 q 173 815 226 769 q 153 828 165 821 q 130 836 141 836 q 104 823 116 836 q 91 797 91 811 q 104 769 91 786 q 134 732 118 751 q 168 694 151 712 q 194 662 186 675 q 261 546 229 605 q 328 430 294 487 q 402 318 362 372 q 495 219 443 265 q 556 172 527 193 q 616 127 584 151 q 661 95 637 112 q 708 68 684 79 q 865 13 780 33 q 1030 -7 950 -7 q 1216 10 1122 -7 q 1396 63 1309 27 q 1559 153 1483 98 q 1693 283 1636 208 q 1745 364 1722 323 q 1795 447 1769 404 q 1800 454 1795 450 q 1807 461 1804 458 l 1955 692 q 1989 732 1970 715 q 2008 779 2008 750 q 2005 800 2008 793 q 1987 808 2001 808 l 1976 808 q 1953 793 1970 805 q 1930 779 1936 782 q 1923 775 1927 779 q 1916 772 1919 772 l 1823 701 q 1814 698 1820 698 q 1801 703 1805 698 q 1796 716 1797 708 q 1795 730 1795 723 q 1795 744 1795 739 l 1795 762 q 1813 781 1798 773 q 1839 786 1827 789 q 1932 818 1887 808 q 2029 840 1976 829 q 2039 847 2037 843 q 2040 857 2040 851 m 1752 683 q 1751 659 1752 672 q 1743 635 1750 646 q 1722 612 1736 626 q 1692 585 1708 598 q 1661 562 1676 572 q 1636 553 1645 553 q 1620 563 1625 553 q 1615 585 1615 573 q 1614 610 1615 592 q 1613 648 1614 628 q 1611 687 1612 669 q 1611 712 1611 705 l 1611 719 q 1626 733 1611 733 l 1729 754 l 1736 754 q 1744 753 1741 754 q 1750 747 1747 753 q 1750 737 1750 744 q 1751 719 1751 729 q 1752 702 1751 710 q 1752 692 1752 694 l 1752 683 m 1572 567 q 1567 519 1572 546 q 1540 482 1562 493 q 1507 465 1525 475 q 1470 446 1490 455 q 1429 431 1450 437 q 1391 425 1409 425 l 1377 425 q 1366 440 1369 430 q 1363 461 1363 450 q 1362 489 1363 469 q 1360 533 1361 510 q 1358 577 1359 557 q 1357 605 1357 597 l 1357 648 l 1357 692 q 1365 698 1359 697 q 1373 698 1370 698 q 1395 702 1380 700 q 1427 706 1411 704 q 1458 710 1444 708 q 1476 712 1472 712 q 1511 717 1493 715 q 1547 719 1529 719 l 1558 719 q 1568 708 1566 717 q 1569 694 1569 700 q 1570 670 1569 687 q 1570 633 1570 653 q 1571 598 1570 615 q 1572 573 1572 580 l 1572 567 m 1314 400 q 1306 390 1314 394 q 1295 386 1298 386 q 1214 366 1255 372 q 1133 361 1174 361 q 1101 362 1114 361 q 1079 367 1088 362 q 1066 383 1071 372 q 1059 415 1061 394 q 1058 446 1059 423 q 1057 491 1057 468 q 1056 539 1057 516 q 1056 571 1056 561 l 1056 573 q 1056 593 1056 579 q 1057 622 1057 607 q 1058 651 1057 637 q 1059 669 1059 664 q 1070 687 1059 680 q 1176 689 1122 687 q 1282 692 1229 692 l 1300 692 q 1311 673 1311 685 q 1311 646 1311 665 q 1312 607 1312 628 q 1313 569 1312 587 q 1314 541 1314 550 l 1314 471 l 1314 400 m 1013 454 q 1001 409 1013 431 q 974 372 990 386 l 935 372 l 893 372 q 874 377 888 373 q 844 384 860 380 q 816 391 829 387 q 797 397 803 394 q 771 414 779 404 q 760 438 762 425 q 758 467 757 451 q 758 500 758 483 q 758 602 758 548 q 768 705 757 657 q 786 708 772 708 q 804 704 794 708 q 822 701 814 701 q 857 700 832 700 q 912 698 883 700 q 966 695 940 697 q 1003 687 992 693 q 1009 680 1006 684 q 1013 676 1013 676 l 1013 454 m 1547 415 q 1536 403 1547 415 q 1519 386 1525 392 q 1475 353 1498 367 q 1427 326 1451 340 q 1395 305 1411 315 q 1364 283 1379 294 q 1306 260 1343 271 q 1229 240 1269 249 q 1153 228 1190 232 q 1094 224 1116 224 q 952 233 1019 224 q 813 262 886 243 q 802 264 808 262 q 793 274 795 267 q 764 289 784 278 q 722 314 744 301 q 679 340 700 328 q 651 358 659 353 q 629 373 637 365 q 612 393 620 380 l 619 393 l 623 393 q 693 364 659 380 q 768 336 727 347 q 934 303 854 312 q 1101 294 1013 294 l 1161 294 q 1181 296 1165 294 q 1214 301 1197 299 q 1248 306 1232 304 q 1268 308 1263 308 l 1275 308 l 1414 354 q 1453 372 1432 365 q 1494 390 1475 379 q 1520 408 1505 397 q 1547 418 1534 418 l 1547 415 m 715 616 q 716 531 715 576 q 701 447 716 487 l 694 438 l 679 438 q 618 453 647 438 q 566 481 590 468 q 514 515 534 498 q 483 552 494 531 q 468 597 472 572 q 463 659 463 623 q 463 709 463 688 q 466 762 463 730 q 470 765 466 765 q 477 765 475 765 l 484 765 q 584 746 533 757 q 683 726 634 736 q 706 718 697 723 q 715 698 715 713 l 715 616 "},"D":{"x_min":97.234375,"x_max":1238.984375,"ha":1293,"o":"m 687 983 q 650 1108 687 1051 q 552 1187 613 1164 q 516 1200 533 1194 q 481 1207 500 1207 q 374 1180 419 1207 q 294 1100 329 1153 q 286 1085 291 1093 q 273 1076 280 1076 l 270 1076 q 263 1078 268 1076 q 259 1079 259 1079 l 113 1138 l 111 1138 q 97 1126 97 1138 q 109 1062 97 1093 q 120 999 120 1031 l 120 989 q 111 947 118 972 q 105 900 105 921 l 105 892 q 116 887 108 887 l 119 887 l 256 928 l 265 928 q 282 919 275 928 q 296 899 290 911 q 308 876 302 887 q 319 856 313 864 q 329 847 322 853 q 344 834 336 842 q 360 820 352 826 q 370 812 368 814 q 436 783 397 790 q 505 776 475 776 q 556 787 530 776 q 607 815 583 797 q 650 857 632 833 q 676 906 668 881 q 685 945 683 928 q 687 983 687 962 m 1238 305 q 1236 317 1238 312 l 1172 419 l 1168 422 q 1120 504 1145 463 q 1068 584 1095 545 q 1050 605 1061 594 q 1030 623 1038 616 l 872 751 q 855 756 862 756 q 847 755 848 756 q 838 751 845 755 q 747 683 794 719 q 657 617 700 648 q 649 611 655 615 q 641 608 643 608 q 625 624 630 608 q 618 662 620 641 q 611 704 615 684 q 600 730 608 724 q 525 740 563 740 q 450 740 486 740 l 400 740 q 380 730 387 737 q 370 709 373 724 l 340 448 l 340 442 q 338 421 340 439 q 336 399 336 402 l 336 396 l 294 12 q 293 5 294 9 q 293 -1 293 1 q 289 -30 291 -10 q 284 -73 287 -50 q 279 -116 281 -96 q 276 -144 277 -136 l 276 -155 q 277 -169 276 -158 q 283 -179 277 -179 l 322 -179 q 327 -169 325 -179 q 332 -147 330 -160 q 335 -123 334 -135 q 336 -107 336 -111 l 381 299 q 384 331 384 314 q 390 363 384 348 l 416 623 q 418 640 416 628 q 421 662 419 651 q 427 681 423 673 q 440 690 431 690 l 483 690 q 520 690 504 690 q 556 687 537 690 q 572 673 569 684 q 579 651 576 662 q 591 609 586 630 q 595 565 595 588 l 595 562 q 594 556 595 559 q 593 551 593 553 q 525 443 561 495 q 454 338 488 391 q 450 329 451 334 q 450 320 450 324 q 459 306 450 308 q 479 304 468 304 q 501 302 491 304 q 513 288 511 301 q 517 242 518 265 q 516 192 516 219 q 519 0 519 97 q 522 -191 519 -95 q 540 -200 526 -200 q 556 -200 554 -200 q 580 -198 563 -200 q 602 -197 597 -197 q 650 -197 616 -197 q 720 -197 683 -197 q 791 -198 758 -197 q 838 -200 825 -200 l 1012 -200 l 1182 -200 q 1198 -187 1194 -200 l 1198 190 q 1199 208 1198 195 q 1200 235 1200 222 q 1200 264 1200 251 q 1201 283 1201 277 q 1215 295 1205 294 q 1236 297 1225 297 q 1238 299 1238 297 q 1238 305 1238 302 m 645 989 q 633 923 645 954 q 598 870 620 893 q 547 834 576 847 q 486 821 519 821 q 400 843 441 821 q 336 908 358 865 q 327 922 329 919 q 326 934 326 925 q 327 945 326 941 q 336 951 329 948 q 402 971 368 962 q 468 989 436 980 l 470 991 l 468 998 q 440 1006 458 1000 q 403 1019 422 1012 q 367 1034 384 1026 q 343 1047 350 1041 q 336 1068 336 1054 q 340 1084 336 1076 q 351 1100 344 1093 q 413 1145 377 1132 q 486 1158 448 1158 q 547 1145 519 1158 q 598 1109 576 1132 q 633 1055 620 1086 q 645 989 645 1023 m 904 527 q 902 520 904 525 q 901 512 901 515 l 901 344 q 887 330 901 330 l 813 330 q 809 334 812 330 q 805 341 805 338 l 805 538 q 813 550 805 545 q 825 554 820 554 l 879 554 q 895 546 887 554 q 904 530 904 538 l 904 527 "},"z":{"x_min":29.171875,"x_max":1065.359375,"ha":1082,"o":"m 1065 294 l 1065 375 q 1061 520 1065 447 q 1054 666 1058 594 q 1048 821 1048 741 q 1047 976 1047 901 l 1047 1001 q 1045 1024 1047 1012 q 1044 1047 1044 1035 q 1028 1052 1037 1047 q 1009 1065 1019 1058 q 991 1079 1000 1073 q 973 1088 982 1085 q 900 1108 936 1096 q 827 1130 863 1120 q 752 1149 790 1141 q 677 1156 715 1156 q 664 1151 669 1156 q 655 1137 659 1145 q 648 1120 651 1128 q 641 1106 645 1112 q 620 1049 629 1081 q 602 986 612 1016 q 577 935 593 956 q 534 915 562 915 l 531 915 q 459 1031 494 973 q 388 1146 425 1088 l 370 1165 l 368 1165 q 220 1128 293 1145 q 73 1094 148 1112 q 49 1081 61 1091 q 34 1056 37 1070 q 34 1028 34 1049 q 33 1001 33 1008 q 31 991 33 998 q 29 983 29 984 l 29 842 q 31 598 29 719 q 33 355 33 477 q 47 340 37 344 q 69 336 58 336 q 93 338 81 336 q 112 340 105 340 l 119 334 q 120 313 119 332 q 121 269 120 295 q 122 227 122 243 l 122 -149 q 137 -159 126 -159 l 162 -159 q 209 -153 186 -159 q 255 -141 231 -148 q 436 -33 361 -109 q 544 148 512 43 l 547 148 q 553 140 550 148 q 561 120 556 132 q 568 100 565 109 q 572 89 570 90 q 581 68 575 83 q 591 48 588 52 q 656 -37 615 1 q 747 -104 697 -76 q 853 -149 798 -133 q 959 -165 908 -165 q 976 -146 976 -165 l 976 -99 q 975 5 976 -44 q 973 120 973 55 l 973 122 q 974 111 973 96 q 975 162 975 127 q 975 237 975 197 q 976 300 976 277 q 990 287 976 290 q 1020 285 1004 284 q 1051 288 1037 286 q 1065 294 1065 291 m 569 690 q 561 663 569 675 q 534 652 554 652 q 509 665 519 652 q 501 694 498 677 q 531 722 501 722 q 558 714 547 722 q 569 690 569 707 m 569 480 q 561 461 569 468 q 544 452 554 454 q 519 461 529 447 q 509 486 509 475 q 541 516 509 516 q 562 505 555 516 q 569 480 569 494 "},"":{"x_min":0,"x_max":0,"ha":2236},"w":{"x_min":109.734375,"x_max":2104.328125,"ha":2147,"o":"m 2104 76 q 2094 99 2104 97 q 2069 100 2084 100 q 2070 146 2069 122 q 2066 190 2071 169 q 2050 228 2062 211 q 2015 257 2039 246 q 1987 268 2002 262 q 1959 274 1972 274 l 1736 274 q 1707 283 1720 274 q 1679 292 1693 292 l 1622 292 q 1609 296 1616 292 q 1595 308 1602 301 q 1579 320 1587 314 q 1562 328 1570 326 q 1533 330 1547 330 q 1505 342 1519 330 q 1494 349 1502 343 q 1476 364 1486 355 q 1457 380 1466 372 q 1441 392 1447 387 q 1432 401 1434 397 q 1420 408 1429 405 l 1407 412 l 1402 424 q 1384 442 1397 435 q 1361 455 1372 449 l 1345 458 l 1343 472 q 1326 496 1337 483 q 1304 511 1315 508 q 1293 510 1301 511 q 1282 508 1284 508 q 1284 519 1282 511 q 1286 529 1286 526 q 1277 543 1284 535 q 1262 560 1270 551 q 1245 574 1254 568 q 1229 579 1236 579 l 1218 579 q 1207 576 1215 579 q 1190 570 1200 574 q 1173 564 1180 567 q 1162 561 1165 561 q 1134 556 1154 560 q 1094 549 1115 553 q 1054 541 1073 544 q 1027 536 1036 537 q 1016 529 1022 533 q 1009 518 1009 525 l 1009 515 q 1033 452 1020 486 q 1069 394 1045 418 q 1083 382 1073 390 q 1103 363 1093 374 q 1123 344 1113 353 q 1137 330 1133 335 l 1144 328 q 1151 323 1145 326 q 1163 315 1157 319 q 1175 308 1169 311 q 1183 303 1182 304 q 1248 271 1215 283 q 1311 239 1282 260 q 1325 225 1314 236 q 1339 211 1336 214 q 1372 181 1358 192 q 1396 159 1386 171 q 1414 131 1407 147 q 1427 86 1420 115 q 1431 72 1427 83 q 1434 54 1434 60 q 1433 44 1434 49 q 1432 33 1432 39 l 1432 20 q 1451 8 1437 8 q 1473 8 1465 8 q 1642 4 1559 6 q 1809 2 1725 2 l 1834 2 q 1968 14 1900 2 q 2094 61 2037 26 q 2104 76 2104 67 m 1407 26 l 1407 54 q 1382 139 1407 104 q 1322 200 1358 174 q 1243 245 1286 226 q 1165 284 1201 265 q 1143 298 1162 284 q 1112 320 1123 312 q 1086 344 1100 329 q 1060 375 1073 359 q 1036 403 1047 391 q 1016 415 1025 415 q 981 409 997 415 q 950 401 965 404 q 963 409 952 406 q 984 415 973 412 q 1004 422 995 417 q 1013 437 1013 427 q 1011 455 1013 449 q 1004 463 1008 461 q 995 468 1000 466 q 988 476 991 470 l 991 483 l 991 494 q 987 522 991 506 q 963 536 983 538 q 973 542 966 541 q 982 549 979 544 l 982 565 q 979 604 982 586 q 973 645 976 622 q 960 653 969 651 q 939 656 951 655 q 915 658 927 658 q 895 659 904 658 q 888 661 894 659 q 873 664 882 662 q 858 668 865 666 q 850 670 851 670 l 843 670 q 782 687 809 679 q 728 705 754 695 q 676 726 702 715 q 619 752 650 737 q 605 761 608 758 q 591 766 602 763 q 495 826 543 794 q 411 901 448 858 q 393 921 406 905 q 363 956 379 937 q 333 990 347 974 q 315 1011 319 1006 q 304 1018 308 1018 q 268 1003 288 1018 q 225 967 247 988 q 186 925 204 947 q 162 890 169 904 q 154 871 159 884 q 141 843 148 858 q 129 816 134 829 q 120 798 123 804 q 109 699 109 747 q 120 634 109 663 q 146 578 130 605 q 179 524 162 551 q 212 465 197 497 q 253 317 244 395 q 262 163 262 238 q 260 115 262 140 q 258 67 258 91 l 258 51 q 276 41 263 42 q 294 40 288 40 q 304 39 295 40 q 323 38 312 38 q 347 38 336 38 q 365 37 358 37 l 372 37 q 394 40 387 37 q 404 58 401 42 q 409 226 406 142 q 413 394 411 309 q 436 424 413 416 q 475 433 458 433 q 508 426 494 433 q 532 408 522 419 q 553 386 543 398 q 577 362 563 373 q 603 307 590 336 q 630 249 616 279 q 652 189 644 220 q 676 129 661 158 q 748 52 700 80 q 850 22 797 24 l 927 22 q 956 21 933 22 q 1005 20 979 20 q 1055 20 1032 20 q 1084 19 1079 19 l 1098 19 q 1222 15 1159 19 q 1345 12 1284 12 l 1391 12 q 1401 17 1398 15 q 1407 26 1404 20 m 1361 373 q 1345 355 1361 355 q 1338 356 1340 355 q 1336 366 1336 358 q 1345 372 1336 372 q 1361 373 1354 373 m 1311 426 q 1299 414 1308 423 q 1282 405 1290 405 q 1275 419 1275 405 q 1278 424 1275 422 q 1282 426 1282 426 l 1311 426 m 1250 486 q 1245 471 1250 479 q 1236 458 1241 463 q 1218 472 1218 458 q 1218 479 1218 475 q 1222 483 1219 483 l 1250 486 m 934 398 l 932 394 q 914 388 932 394 q 886 380 897 383 l 882 380 l 879 380 q 890 384 883 381 q 905 391 897 387 q 921 396 913 394 q 934 398 929 398 m 847 366 l 832 362 q 847 369 838 369 l 847 366 m 818 359 l 815 355 l 815 359 l 818 359 m 726 465 q 706 455 718 459 q 687 451 694 451 l 680 451 l 687 455 q 703 460 690 455 q 722 465 716 465 l 726 465 m 673 447 l 662 444 l 658 444 l 655 444 q 669 447 658 447 l 673 447 m 740 330 q 736 327 740 327 q 733 330 733 327 q 736 333 733 333 q 740 330 740 333 m 634 437 l 623 433 l 619 433 q 630 437 623 437 l 634 437 m 726 327 q 704 317 715 322 q 683 312 694 312 l 676 312 q 697 324 679 320 q 722 327 715 327 l 726 327 m 354 462 q 351 465 351 462 q 354 469 351 469 q 356 465 356 469 q 354 462 356 462 "},"\\":{"x_min":102.78125,"x_max":533.375,"ha":646,"o":"m 533 132 l 533 137 q 529 151 533 140 q 523 165 526 162 l 327 371 l 318 371 q 307 360 318 371 q 290 343 297 350 q 199 240 241 290 q 106 147 156 191 q 103 137 104 140 q 102 127 102 134 l 102 118 q 103 61 102 102 q 104 -24 104 20 q 106 -110 105 -69 q 106 -166 106 -151 q 111 -188 106 -181 q 126 -200 115 -195 q 284 -202 206 -200 q 444 -204 362 -204 l 495 -204 l 527 -194 l 527 -152 q 528 -124 527 -145 q 529 -72 529 -102 q 530 -10 529 -42 q 531 51 531 22 q 532 103 531 82 q 533 132 533 125 m 365 25 q 361 22 365 25 q 355 20 358 20 l 331 20 l 318 20 l 313 25 l 313 104 l 365 104 l 365 25 m 350 -45 l 345 -50 l 345 -40 l 350 -45 "},"~":{"x_min":0,"x_max":0,"ha":1363},"-":{"x_min":63.890625,"x_max":2119.609375,"ha":2161,"o":"m 1427 584 l 1420 584 q 1425 577 1420 577 q 1427 584 1427 577 m 1144 769 l 1141 769 q 1130 765 1133 769 l 1133 765 l 1144 769 m 1126 765 q 1129 768 1129 765 q 1126 772 1129 772 q 1123 768 1123 772 q 1126 765 1123 765 m 1123 772 q 1119 775 1123 775 q 1116 772 1116 775 q 1119 769 1116 769 q 1123 772 1123 769 m 2119 538 q 2102 577 2119 566 q 2062 588 2086 588 q 2009 587 2034 588 q 1959 577 1983 586 q 1651 563 1804 569 q 1343 549 1498 556 q 1229 545 1286 547 q 1116 543 1172 543 q 1061 543 1084 543 q 1002 545 1037 543 q 998 552 998 545 q 1009 566 998 562 l 1251 726 l 1265 733 l 1470 865 q 1493 877 1476 867 q 1516 890 1511 887 q 1527 896 1519 891 q 1545 907 1536 901 q 1562 918 1554 913 q 1573 924 1570 923 q 1621 951 1597 938 q 1669 977 1645 964 q 1683 996 1676 983 q 1690 1020 1690 1009 q 1678 1048 1690 1041 q 1647 1063 1666 1056 q 1632 1076 1637 1066 q 1622 1096 1626 1085 q 1612 1116 1618 1107 q 1598 1126 1607 1126 q 1586 1126 1591 1126 q 1580 1123 1580 1126 q 1584 1105 1580 1113 q 1594 1091 1589 1098 q 1604 1076 1600 1084 q 1608 1059 1608 1068 q 1590 1045 1608 1045 q 1572 1054 1579 1045 q 1559 1077 1565 1064 q 1546 1099 1552 1089 q 1530 1109 1540 1109 q 1519 1098 1519 1109 q 1524 1080 1519 1088 q 1535 1065 1529 1073 q 1546 1049 1541 1057 q 1551 1031 1551 1041 q 1549 1021 1551 1025 q 1541 1016 1547 1016 q 1522 1025 1529 1016 q 1510 1046 1515 1035 q 1500 1067 1505 1057 q 1484 1077 1494 1077 q 1473 1074 1479 1077 q 1466 1066 1466 1071 q 1472 1046 1466 1055 q 1484 1030 1477 1038 q 1497 1013 1491 1021 q 1502 995 1502 1005 q 1484 981 1502 981 q 1470 990 1476 981 q 1460 1011 1465 999 q 1449 1032 1455 1023 q 1434 1041 1443 1041 q 1416 1027 1416 1041 q 1421 1009 1416 1017 q 1432 993 1426 1000 q 1443 977 1439 985 q 1448 960 1448 969 q 1434 949 1448 949 l 1427 949 q 1405 975 1414 960 q 1389 1006 1397 989 l 1386 1006 q 1370 992 1370 1006 q 1385 961 1370 975 q 1400 931 1400 946 q 1393 921 1400 921 q 1376 934 1382 921 q 1368 952 1370 946 q 1359 966 1365 955 q 1350 981 1352 978 l 1343 984 q 1334 980 1340 984 q 1329 974 1329 977 l 1329 970 q 1345 939 1334 959 q 1357 903 1357 919 q 1345 889 1357 889 q 1327 901 1334 889 q 1315 925 1320 912 q 1304 949 1309 938 q 1293 960 1300 960 q 1285 956 1287 960 q 1283 949 1283 952 q 1288 931 1283 939 q 1299 914 1293 923 q 1310 897 1305 906 q 1315 878 1315 888 l 1315 867 q 1304 864 1311 864 q 1286 875 1293 864 q 1275 898 1280 885 q 1263 921 1269 910 q 1247 931 1257 931 q 1233 924 1236 931 q 1247 899 1236 919 q 1261 874 1258 880 q 1264 866 1261 873 q 1271 850 1268 859 q 1275 839 1275 841 q 1252 818 1275 834 q 1202 785 1230 802 q 1147 752 1173 767 q 1112 733 1120 737 q 1094 722 1105 729 q 1073 710 1083 716 q 1054 699 1062 704 q 1045 694 1047 694 q 992 659 1020 679 q 934 621 963 640 q 874 586 904 602 q 815 557 844 569 l 779 557 q 732 557 758 557 q 683 559 705 557 l 216 623 l 201 623 q 143 604 166 623 q 120 549 120 584 q 133 519 120 533 q 163 496 145 506 q 201 481 181 486 q 233 474 220 475 q 254 470 241 472 q 281 463 268 467 q 304 458 294 460 q 315 456 313 456 l 548 428 l 559 428 q 570 429 565 428 q 584 430 576 430 q 590 430 587 430 q 595 423 593 429 l 591 416 q 586 410 591 414 q 580 407 580 407 q 503 349 544 375 q 422 300 462 323 q 414 296 419 300 q 406 293 409 293 l 95 67 q 72 37 80 56 q 63 0 63 18 q 81 -37 63 -26 q 123 -49 100 -49 q 156 -46 140 -49 q 184 -32 172 -43 q 409 151 294 63 q 644 319 525 240 l 648 322 l 765 401 l 786 411 l 829 411 q 1013 409 922 411 q 1197 407 1104 407 l 1311 407 q 1325 409 1314 407 q 1339 411 1336 411 l 1445 411 q 1460 412 1448 411 q 1486 414 1472 413 q 1512 416 1500 415 q 1527 417 1525 417 l 1590 417 l 1651 417 q 1666 404 1664 417 q 1669 374 1669 391 q 1669 345 1669 359 q 1676 333 1669 333 l 1708 333 l 1711 337 l 1711 347 l 1711 365 q 1710 372 1711 366 q 1709 384 1709 379 q 1709 397 1709 391 q 1708 404 1708 402 q 1709 419 1708 409 q 1718 429 1711 429 q 1730 423 1726 429 q 1735 410 1734 417 q 1736 394 1736 402 q 1736 383 1736 387 l 1736 344 l 1740 337 q 1751 335 1740 337 q 1768 333 1762 333 q 1777 339 1776 333 q 1779 351 1779 345 q 1777 391 1779 372 q 1775 431 1775 411 q 1786 430 1783 431 q 1793 422 1790 429 q 1795 379 1795 399 q 1800 340 1794 359 l 1804 337 l 1832 337 l 1832 431 q 1840 432 1834 431 q 1845 424 1845 433 l 1857 337 l 1884 337 l 1889 340 l 1891 347 l 1891 436 l 1895 440 l 1898 440 q 1909 430 1905 440 q 1913 408 1912 420 q 1914 384 1914 395 q 1914 372 1914 373 q 1915 353 1914 366 q 1916 337 1916 340 q 1923 335 1919 337 q 1930 333 1927 333 q 1934 335 1930 333 q 1941 337 1939 337 l 1945 340 l 1945 447 l 1948 450 q 1958 435 1957 447 q 1959 417 1959 423 q 1963 400 1959 415 q 1966 383 1966 386 q 1967 369 1968 376 q 1967 356 1966 362 q 1971 347 1968 351 q 1984 344 1975 344 q 1995 347 1990 344 q 2001 358 2001 349 l 2001 454 q 2004 455 2001 454 q 2009 457 2007 457 q 2014 453 2012 457 q 2016 450 2016 450 l 2016 372 q 2020 361 2016 369 q 2030 354 2025 354 q 2047 357 2037 354 q 2062 369 2057 361 l 2062 383 q 2060 423 2062 404 q 2058 464 2058 443 q 2060 471 2058 466 q 2065 479 2062 476 q 2072 455 2071 472 q 2075 420 2073 439 q 2082 389 2077 402 q 2101 376 2087 376 q 2106 375 2101 376 q 2111 379 2111 373 l 2111 507 q 2118 524 2118 512 q 2119 538 2119 536 m 2076 538 q 2068 529 2076 533 q 2058 525 2061 525 q 1865 497 1962 501 q 1669 486 1768 494 q 1311 467 1490 470 q 957 464 1133 464 l 886 464 l 872 468 l 872 472 q 907 497 883 487 q 950 507 930 507 q 1086 505 1019 507 q 1222 504 1152 504 q 1302 505 1262 504 q 1386 507 1343 507 l 1389 507 q 1401 505 1391 507 q 1414 504 1411 504 l 1729 525 q 1805 529 1764 522 q 1877 538 1845 536 q 1967 548 1922 544 q 2055 552 2012 552 q 2069 550 2062 552 q 2076 538 2076 547 m 801 481 l 797 479 l 779 479 q 785 486 779 484 q 794 493 791 487 q 799 487 797 490 q 801 481 801 484 m 722 402 q 719 404 719 402 q 722 407 719 407 q 725 404 725 407 q 722 402 725 402 m 733 511 q 724 495 733 502 q 702 484 715 488 q 677 477 690 480 q 659 474 665 474 l 644 474 l 368 499 q 349 505 362 499 q 333 511 336 511 q 315 512 327 511 q 288 515 302 513 q 262 518 275 516 q 244 520 250 519 q 208 533 229 523 q 187 563 187 544 l 191 566 q 211 570 202 569 q 230 570 219 570 q 276 565 254 570 q 322 557 298 559 q 338 554 325 557 q 366 550 351 552 q 395 547 381 548 q 411 545 408 545 q 418 544 413 545 q 425 543 422 543 l 634 520 q 657 519 640 520 q 690 516 673 518 q 720 513 707 515 q 733 511 733 512 m 241 120 l 230 127 l 233 127 q 241 125 241 127 l 241 120 m 244 88 l 241 84 l 237 84 q 232 88 234 84 q 230 95 230 93 q 231 102 230 98 q 237 106 231 106 q 240 100 237 104 q 244 93 244 95 l 244 88 m 1757 500 l 1757 507 q 1754 500 1754 507 l 1757 500 "},"Q":{"x_min":62.65625,"x_max":875.21875,"ha":906,"o":"m 875 896 q 868 930 875 914 q 857 962 862 947 q 775 1078 829 1030 q 650 1147 721 1125 q 555 1173 600 1162 q 458 1185 509 1185 q 272 1148 358 1185 q 133 1022 186 1111 q 105 964 115 993 q 96 898 96 934 q 114 798 96 843 q 163 707 132 753 l 163 673 l 86 64 l 86 57 l 62 -109 l 66 -159 q 72 -161 66 -159 q 80 -163 77 -163 l 104 -163 l 126 -163 q 134 -154 132 -161 q 136 -144 136 -148 l 177 161 l 177 177 l 201 379 l 213 379 l 187 147 l 187 133 l 145 -201 q 163 -208 145 -206 q 203 -211 180 -211 q 248 -211 226 -212 q 280 -211 270 -211 l 320 -211 l 324 -206 q 328 -176 330 -191 q 327 -147 327 -162 q 330 135 330 -5 q 334 419 331 276 l 337 422 l 340 422 l 344 416 l 344 332 q 342 119 344 226 q 340 -94 340 12 l 340 -133 q 342 -156 340 -141 q 344 -170 344 -170 l 346 -173 q 363 -175 346 -173 q 387 -177 380 -177 l 452 -177 l 491 -177 l 494 -170 l 512 0 l 512 9 l 539 322 q 540 328 539 325 q 541 332 541 332 q 549 328 548 332 q 550 322 550 325 l 550 315 q 548 293 550 312 q 545 272 545 275 l 545 268 q 543 237 545 261 q 538 186 541 214 q 534 136 536 159 q 531 107 531 112 l 531 104 l 515 -86 q 509 -112 510 -97 q 508 -142 508 -127 q 508 -174 508 -159 q 508 -201 508 -191 q 508 -210 508 -205 q 512 -218 509 -215 q 537 -219 519 -218 q 577 -221 556 -220 q 616 -223 598 -222 q 642 -225 635 -225 l 673 -225 q 699 -224 688 -225 q 725 -220 710 -223 q 730 -211 730 -218 l 730 -206 l 712 165 l 712 170 q 726 155 721 170 q 730 119 730 140 q 730 80 731 99 q 730 54 730 60 q 735 -66 733 -7 q 742 -187 737 -126 q 754 -194 747 -194 q 763 -195 755 -194 q 780 -196 772 -196 q 796 -196 789 -196 q 807 -197 804 -197 l 811 -197 q 820 -192 815 -197 q 825 -180 825 -188 q 821 -101 825 -140 q 814 -23 818 -63 q 802 128 805 50 q 793 278 798 207 q 782 431 787 351 q 778 583 778 511 q 780 607 778 600 l 830 701 q 860 797 846 751 q 875 896 875 843 m 819 868 q 804 765 819 820 q 763 671 790 711 q 746 647 756 663 q 724 615 736 631 q 704 586 713 599 q 692 571 695 574 l 683 561 l 680 564 q 649 637 665 607 q 609 704 634 667 l 609 707 q 617 723 609 715 q 629 738 624 731 q 667 820 652 777 q 683 906 683 863 q 683 941 683 924 q 666 970 684 959 l 662 965 q 663 943 662 961 q 662 920 663 924 q 651 878 661 904 q 626 825 641 852 q 595 778 612 799 q 565 752 579 757 q 490 790 529 770 q 417 831 451 811 q 346 891 374 857 q 311 972 317 925 l 308 975 q 298 961 299 971 q 297 943 297 950 q 320 870 297 899 q 374 821 342 842 q 442 783 406 800 q 505 742 479 765 q 598 623 561 692 q 636 479 636 554 l 636 467 q 590 512 616 489 q 536 550 565 535 l 370 627 q 361 631 367 627 q 351 635 354 635 q 266 680 305 656 q 200 736 227 704 q 158 809 173 767 q 143 906 143 850 q 149 951 143 934 q 169 993 156 968 q 276 1102 206 1063 q 420 1141 345 1141 q 587 1121 504 1141 q 733 1043 670 1102 q 796 965 773 1006 q 819 868 819 925 m 718 275 q 712 275 716 275 q 706 272 709 275 l 709 272 q 706 306 706 287 q 706 338 706 326 l 716 338 l 716 315 q 709 308 709 315 q 712 301 709 301 q 714 306 712 304 q 718 312 716 309 l 718 275 m 719 222 q 716 225 716 222 q 719 227 716 227 q 722 225 722 227 q 719 222 722 222 m 709 227 q 706 230 706 227 q 709 234 706 234 q 712 230 712 234 q 709 227 712 227 m 725 215 q 712 227 712 215 l 712 204 l 709 204 q 717 208 712 204 q 723 212 723 212 l 725 215 m 726 180 q 723 184 723 180 q 726 188 723 188 q 729 184 729 188 q 726 180 729 180 m 190 644 l 187 640 l 187 644 l 190 644 "},"M":{"x_min":30.625,"x_max":1719.625,"ha":1758,"o":"m 1699 757 l 1699 762 q 1692 775 1699 775 l 1689 775 q 1678 764 1686 772 q 1668 754 1671 757 l 1665 747 l 1635 416 l 1635 388 q 1655 401 1646 388 q 1665 422 1665 413 l 1699 757 m 1627 666 l 1627 676 q 1626 682 1627 677 q 1620 687 1625 687 q 1603 678 1610 687 q 1593 662 1596 669 q 1590 640 1592 655 q 1586 607 1587 625 q 1584 574 1585 590 q 1583 552 1583 558 q 1582 525 1583 538 q 1580 498 1580 511 l 1567 343 l 1567 338 q 1575 334 1567 334 q 1597 349 1589 334 q 1601 377 1604 363 l 1627 666 m 1250 855 l 1247 858 l 1247 852 l 1250 855 m 1557 597 l 1557 627 q 1554 629 1557 629 q 1551 629 1551 629 q 1531 620 1537 629 q 1522 600 1525 612 q 1520 576 1520 588 q 1520 555 1520 563 q 1511 451 1513 502 q 1505 348 1509 400 q 1504 334 1505 345 q 1502 320 1502 323 q 1504 313 1502 318 q 1505 305 1505 308 l 1512 305 q 1531 318 1527 305 q 1536 343 1534 331 l 1557 597 m 1482 552 l 1482 576 q 1475 579 1482 579 q 1457 567 1462 579 q 1450 539 1452 555 q 1448 508 1448 523 q 1448 486 1448 493 q 1439 379 1444 433 q 1433 273 1433 326 q 1457 284 1452 273 q 1464 312 1461 295 q 1465 333 1464 316 q 1468 370 1466 350 q 1470 407 1469 390 q 1472 429 1472 425 l 1472 431 q 1479 492 1477 461 q 1482 552 1482 523 m 1420 525 l 1420 540 q 1400 536 1408 540 q 1389 522 1392 531 q 1377 395 1383 458 q 1371 269 1371 333 l 1371 245 q 1376 241 1371 241 q 1389 247 1383 241 q 1394 261 1394 254 l 1420 525 m 1355 486 l 1355 498 q 1350 501 1355 501 q 1334 498 1344 501 q 1325 490 1325 495 l 1307 273 q 1304 250 1305 262 q 1304 225 1304 237 q 1304 216 1304 220 q 1311 212 1305 212 q 1334 227 1330 212 q 1337 255 1336 236 q 1341 296 1338 275 q 1344 338 1343 318 q 1345 366 1345 358 q 1352 425 1348 394 q 1355 486 1355 456 m 1719 912 l 1719 922 q 1706 936 1719 929 q 1676 950 1693 944 q 1643 961 1659 957 q 1622 966 1627 965 q 1588 970 1602 969 q 1552 970 1573 970 q 1504 969 1530 970 q 1458 957 1477 968 l 1316 888 q 1262 853 1289 869 q 1211 813 1236 837 q 1182 786 1202 805 q 1137 745 1161 766 q 1093 704 1114 723 q 1064 676 1072 684 q 955 609 1011 636 q 841 558 900 583 q 699 488 770 527 q 567 398 627 450 q 462 282 507 347 q 400 137 418 218 l 400 134 q 415 122 400 125 q 436 119 430 119 q 456 118 440 119 q 475 116 472 116 l 511 116 q 680 141 600 116 q 839 209 761 166 q 852 218 844 212 q 868 228 861 223 q 882 236 876 233 q 890 240 889 240 q 977 314 934 272 q 1057 395 1020 356 q 1097 421 1077 406 q 1136 450 1116 436 q 1157 461 1145 450 q 1175 476 1168 472 q 1230 502 1202 491 q 1286 525 1258 513 q 1343 543 1309 534 q 1400 568 1376 552 q 1482 616 1440 590 q 1563 674 1525 643 q 1634 743 1601 705 q 1686 825 1666 780 q 1693 842 1687 829 q 1703 869 1698 855 q 1713 895 1708 883 q 1719 912 1718 908 m 1286 455 l 1286 475 l 1280 476 q 1258 465 1266 476 q 1243 320 1251 394 q 1234 176 1234 247 l 1238 176 q 1252 183 1243 179 q 1262 187 1262 187 l 1265 195 q 1266 208 1265 197 q 1269 236 1268 219 q 1272 263 1270 252 q 1282 358 1277 311 q 1286 455 1286 405 m 1223 411 l 1223 450 q 1204 445 1213 450 q 1193 431 1195 440 q 1184 333 1188 383 q 1175 234 1180 283 q 1168 193 1172 215 q 1165 152 1165 170 l 1165 137 l 1169 134 q 1190 145 1177 134 q 1202 165 1202 155 q 1203 179 1202 169 q 1205 200 1204 188 q 1207 222 1207 212 q 1208 236 1208 231 l 1208 245 l 1223 411 m 1159 393 l 1159 402 q 1159 408 1159 405 q 1156 411 1159 411 q 1138 403 1146 411 q 1130 387 1130 395 q 1122 290 1126 338 q 1114 195 1119 241 q 1108 147 1112 169 q 1105 101 1105 125 q 1110 88 1105 88 l 1114 88 q 1136 109 1133 102 q 1141 134 1139 115 l 1159 393 m 1094 362 l 1081 362 l 1063 344 l 1060 338 q 1058 332 1060 336 q 1056 329 1056 329 l 1033 33 l 1033 23 q 1033 15 1033 19 q 1037 8 1034 11 q 1059 27 1048 11 q 1071 55 1070 43 l 1094 362 m 965 894 l 965 901 q 959 921 965 913 q 945 937 954 930 q 931 948 943 938 q 908 968 920 958 q 885 987 895 978 q 871 999 874 996 l 866 1005 l 689 1165 q 682 1170 683 1169 q 676 1172 682 1172 l 673 1172 q 667 1169 670 1172 q 664 1167 664 1167 l 420 1002 q 411 995 418 999 q 405 991 405 991 q 399 978 402 987 q 392 960 395 970 q 384 944 388 951 q 379 937 380 937 l 320 937 l 61 756 q 53 749 58 753 q 48 741 48 745 q 36 661 43 702 q 30 584 30 620 l 30 569 q 38 562 33 567 q 45 555 43 558 q 60 542 48 552 q 86 520 72 533 q 111 497 100 508 q 126 485 123 487 q 213 408 169 448 q 301 328 257 369 q 316 316 307 324 q 332 302 326 308 q 340 295 338 296 l 348 294 q 358 299 348 294 q 373 308 368 303 q 394 324 379 313 q 427 348 409 335 q 460 371 444 360 q 482 387 476 383 q 486 392 483 388 q 493 395 488 395 l 570 449 l 575 452 l 645 503 q 658 519 654 509 q 662 530 659 523 q 668 547 665 538 q 675 565 672 556 q 679 576 677 573 q 685 585 683 583 q 694 588 687 588 q 720 583 708 588 q 746 578 732 578 q 757 583 751 578 l 945 710 q 954 733 951 715 q 960 771 958 751 q 963 812 962 792 q 964 844 964 833 q 964 852 964 845 q 964 869 964 860 q 965 884 965 877 q 965 894 965 891 m 1030 294 q 1030 301 1030 295 q 1027 308 1030 308 l 1024 308 q 1004 288 1011 300 q 996 263 998 276 q 995 235 994 250 q 994 206 995 220 l 994 191 l 978 1 l 978 -36 l 979 -38 q 996 -33 986 -38 q 1006 -20 1006 -27 l 1022 137 q 1024 214 1019 175 q 1030 294 1030 254 m 964 236 l 959 240 l 956 240 q 943 231 954 240 q 932 215 932 222 l 910 -48 l 910 -75 q 913 -78 910 -77 q 919 -79 917 -79 q 937 -68 934 -79 q 941 -45 941 -56 q 953 95 948 25 q 964 236 958 165 m 898 191 q 878 184 888 191 q 869 168 869 177 q 867 154 869 163 q 865 134 866 145 q 863 114 864 123 q 862 101 862 105 l 862 83 l 847 -81 l 847 -112 l 849 -113 q 872 -100 866 -113 q 880 -67 878 -86 q 882 -30 882 -48 q 882 -4 881 -12 q 893 94 888 45 q 898 191 898 143 m 839 148 q 832 155 839 155 q 816 150 825 155 q 808 137 808 144 l 782 -129 l 782 -133 q 784 -138 782 -137 q 790 -138 787 -138 q 805 -136 797 -138 q 815 -123 813 -133 l 839 148 m 772 108 l 772 116 q 766 126 772 126 q 753 123 762 126 q 745 116 745 120 l 722 -118 l 722 -156 q 742 -152 734 -156 q 751 -133 749 -148 l 772 108 m 713 88 l 713 94 q 711 102 713 101 q 703 104 710 104 q 685 83 685 104 l 664 -145 l 664 -172 q 682 -168 673 -172 q 692 -152 690 -163 l 713 88 m 655 68 l 655 77 q 654 87 655 86 q 645 88 652 88 q 636 88 643 88 q 630 87 630 88 l 607 -162 l 607 -172 q 613 -183 607 -183 q 624 -182 618 -183 q 630 -177 630 -181 l 655 68 m 601 55 l 601 77 q 591 80 601 80 q 582 78 588 80 q 576 72 576 76 l 550 -183 l 552 -190 l 559 -190 q 569 -190 563 -190 q 576 -183 576 -190 l 601 55 m 544 50 l 544 60 q 543 71 544 69 q 531 72 541 72 q 525 71 529 72 q 520 65 520 71 l 493 -171 l 493 -180 q 492 -185 493 -180 q 495 -190 491 -190 l 516 -190 q 518 -187 516 -190 q 520 -183 520 -185 q 521 -175 520 -180 q 522 -167 522 -170 l 544 50 m 490 55 q 488 66 490 65 q 477 68 487 68 q 468 67 473 68 q 462 62 462 66 l 438 -156 l 438 -166 q 456 -180 438 -180 q 461 -181 456 -180 q 466 -177 466 -181 q 474 -102 470 -138 q 481 -27 477 -66 q 487 14 484 -6 q 490 55 490 36 m 441 55 l 441 62 q 427 73 441 73 q 418 62 418 73 l 394 -138 l 394 -159 q 402 -165 394 -162 q 412 -168 409 -168 l 415 -166 l 418 -156 q 419 -142 418 -152 q 422 -119 420 -131 q 426 -96 425 -106 q 427 -81 427 -86 l 427 -73 l 441 55 m 924 894 l 904 877 q 885 863 903 876 q 842 832 867 849 q 793 797 818 815 q 751 769 768 779 q 740 761 751 769 q 722 749 729 752 q 713 747 715 747 q 703 750 708 747 q 694 756 699 754 q 669 777 687 762 q 632 810 651 793 q 594 843 612 827 q 570 863 576 858 q 509 917 540 891 q 451 972 479 943 l 451 976 q 457 984 451 981 l 559 1054 l 565 1056 l 664 1123 l 669 1125 l 673 1125 l 679 1123 q 694 1110 683 1119 q 715 1091 704 1101 q 737 1072 726 1081 q 751 1059 747 1063 q 762 1047 758 1052 q 776 1038 765 1043 l 919 904 l 924 897 l 924 894 m 691 711 q 686 691 691 704 q 673 677 682 677 q 655 680 663 677 q 637 687 647 683 l 629 693 q 556 756 593 725 q 483 819 519 787 q 471 829 480 820 q 450 848 462 838 q 429 866 438 858 q 418 877 419 875 q 409 885 415 879 q 400 894 402 891 l 400 897 q 408 925 400 908 q 420 951 416 943 l 423 951 q 439 942 427 951 q 465 920 451 933 q 491 896 479 908 q 508 879 504 884 l 688 720 q 691 711 691 716 m 604 672 q 602 663 604 665 q 595 657 600 661 l 358 491 l 355 491 q 338 500 350 491 q 313 521 326 509 q 289 543 301 533 q 273 558 277 554 q 240 586 266 563 q 186 636 215 609 q 131 686 156 662 q 100 715 106 709 q 92 721 97 716 q 87 726 87 726 q 101 743 87 734 q 120 754 115 751 l 327 894 q 335 899 333 897 q 343 901 337 901 q 359 892 347 901 q 384 872 372 883 q 406 851 397 861 q 418 840 416 841 l 580 700 l 604 676 l 604 672 m 559 687 q 562 690 562 687 q 559 693 562 693 q 556 690 556 693 q 559 687 556 687 m 565 677 l 565 682 l 562 687 l 562 676 l 565 677 m 555 693 q 547 697 552 697 l 544 697 q 552 693 547 693 l 555 693 m 541 700 q 533 701 543 701 q 526 700 523 701 q 541 700 531 694 "},"C":{"x_min":45.15625,"x_max":2452.859375,"ha":2496,"o":"m 2451 -154 q 2451 -73 2451 -131 q 2449 49 2450 -15 q 2446 173 2447 114 q 2445 253 2445 231 q 2445 279 2445 261 q 2445 319 2445 299 q 2446 358 2446 340 q 2446 383 2446 376 l 2434 1101 q 2429 1114 2432 1108 q 2415 1121 2427 1121 q 2354 1124 2385 1124 q 2294 1124 2325 1124 q 2280 1124 2290 1124 q 2259 1122 2270 1124 q 2237 1121 2248 1121 q 2223 1121 2227 1121 q 2215 1105 2216 1118 q 2215 1090 2213 1093 q 2215 1076 2215 1087 q 2215 1051 2215 1065 q 2215 1027 2215 1038 q 2216 1013 2216 1015 q 2216 977 2216 1002 q 2215 926 2216 954 q 2215 873 2215 898 q 2215 838 2215 848 q 2215 825 2216 833 q 2205 817 2213 817 q 2195 824 2198 817 l 2092 963 l 2088 970 l 1999 1090 l 1995 1093 q 1983 1102 1992 1095 q 1971 1112 1974 1109 l 1969 1112 q 1962 1109 1964 1112 l 1899 1020 q 1881 1009 1892 1012 q 1858 1004 1870 1005 q 1833 1004 1845 1004 q 1813 1005 1821 1005 q 1617 1004 1714 1004 q 1420 1005 1519 1005 q 1117 1004 1269 1005 q 813 1001 964 1002 q 685 1002 749 1000 q 557 1004 621 1005 q 544 1004 553 1004 q 524 1003 535 1004 q 503 1002 513 1002 q 491 1002 495 1002 q 478 988 475 1002 l 478 955 q 478 932 478 950 q 478 895 478 915 q 477 857 477 875 q 477 834 477 839 q 477 826 477 833 q 478 811 477 819 q 478 796 478 803 q 478 787 478 789 q 471 773 478 780 q 337 696 377 750 q 295 542 296 643 q 284 533 295 539 q 258 520 273 527 q 229 506 244 513 q 209 493 214 499 q 155 421 173 463 q 137 335 137 380 q 146 285 138 305 q 163 238 155 266 l 163 232 q 156 207 163 219 q 146 185 149 196 q 144 155 144 171 q 144 128 144 140 q 145 113 145 121 q 145 102 145 105 q 155 79 148 91 q 163 58 162 67 l 163 52 q 72 5 102 40 q 45 -91 42 -29 q 53 -129 45 -109 q 73 -166 60 -149 q 105 -193 87 -183 q 144 -204 123 -204 l 153 -204 q 162 -190 162 -197 q 163 -176 163 -183 q 150 -160 163 -163 q 125 -150 137 -156 q 100 -115 107 -137 q 91 -73 92 -93 q 96 -52 91 -63 q 107 -33 102 -40 q 164 6 134 0 q 234 15 194 12 l 234 22 q 199 75 213 47 q 185 138 185 102 q 207 197 184 175 q 267 220 231 220 q 299 216 285 220 q 328 212 313 212 q 351 221 342 212 q 366 243 360 230 q 378 268 373 255 q 389 290 382 281 q 456 348 416 327 q 471 355 462 351 q 480 359 480 359 l 550 361 q 561 356 550 361 q 577 350 571 352 l 584 347 q 648 288 624 327 q 673 204 671 250 q 664 144 673 169 q 638 87 656 119 l 638 84 q 640 75 638 77 q 645 66 642 72 q 650 59 646 65 q 660 47 655 54 q 670 34 666 40 q 675 26 674 27 q 691 -11 689 9 q 694 -52 694 -33 q 680 -119 695 -90 q 637 -175 664 -148 q 627 -181 634 -177 q 620 -190 620 -185 q 623 -197 620 -197 q 653 -201 641 -201 q 684 -201 666 -201 q 698 -198 691 -199 q 717 -197 706 -197 l 727 -200 q 791 -204 757 -204 q 855 -204 824 -205 q 868 -202 862 -204 q 882 -200 874 -201 l 885 -200 q 898 -201 888 -200 q 912 -203 909 -203 q 948 -202 921 -203 q 1005 -201 976 -201 q 1060 -200 1034 -201 q 1096 -200 1087 -200 q 1119 -201 1101 -200 q 1144 -203 1138 -203 q 1359 -200 1252 -200 q 1576 -197 1467 -200 l 1599 -197 q 1642 -199 1612 -198 q 1707 -200 1673 -199 q 1771 -201 1741 -201 q 1814 -201 1802 -201 q 1826 -201 1816 -201 q 1851 -200 1837 -201 q 1878 -200 1864 -200 q 1902 -200 1894 -200 q 1919 -198 1906 -200 q 1945 -197 1931 -197 q 1971 -197 1959 -197 q 1988 -197 1984 -197 q 1994 -188 1994 -194 q 1995 -180 1995 -183 q 1994 44 1995 -66 q 1994 269 1992 155 q 2000 278 1996 276 q 2010 283 2003 280 q 2020 283 2013 283 q 2037 283 2028 283 q 2055 284 2046 283 q 2067 284 2063 284 l 2121 284 q 2142 284 2126 284 q 2178 284 2159 284 q 2215 283 2198 283 q 2236 283 2232 283 q 2251 284 2241 283 q 2263 276 2260 284 q 2263 266 2263 273 q 2263 251 2263 259 q 2263 236 2263 243 q 2264 226 2264 229 q 2265 68 2266 146 q 2266 -88 2264 -9 q 2266 -103 2266 -92 q 2266 -129 2266 -116 q 2267 -153 2267 -142 q 2267 -172 2267 -166 q 2269 -181 2267 -174 q 2271 -191 2271 -189 l 2275 -194 l 2301 -197 l 2442 -194 l 2446 -191 q 2452 -174 2451 -183 q 2451 -154 2453 -165 m 2030 679 l 2023 672 l 1907 669 q 1897 676 1904 669 q 1893 701 1894 691 q 1893 723 1893 711 q 1891 748 1891 738 q 1894 773 1891 758 q 1912 782 1897 782 q 1936 782 1929 782 q 1975 782 1958 782 q 2019 779 1991 782 q 2024 777 2019 779 q 2029 772 2029 775 l 2030 679 m 1533 962 q 1530 962 1530 961 q 1533 965 1530 965 q 1536 963 1536 965 q 1533 962 1536 962 m 1779 855 q 1769 831 1779 848 q 1747 794 1759 813 q 1721 757 1734 775 q 1701 730 1708 738 q 1691 716 1698 726 q 1674 695 1683 707 q 1657 674 1665 684 q 1645 658 1650 663 q 1639 651 1644 657 q 1629 639 1634 645 q 1618 627 1623 633 q 1612 620 1614 622 q 1604 611 1611 619 q 1591 594 1598 604 q 1577 575 1584 584 q 1566 559 1570 565 q 1556 545 1561 552 q 1540 533 1551 537 l 1540 536 l 1544 543 q 1609 636 1576 591 q 1673 730 1641 682 q 1695 762 1684 745 q 1716 794 1707 779 q 1730 816 1725 805 q 1742 836 1736 827 q 1757 850 1748 844 q 1779 855 1765 855 m 1525 133 q 1522 126 1525 130 q 1516 119 1519 122 q 1479 115 1497 116 q 1443 113 1462 115 l 1407 113 q 1400 114 1405 113 q 1387 115 1394 115 q 1376 115 1382 115 q 1369 116 1370 116 q 1345 115 1362 116 q 1322 126 1329 113 q 1321 144 1322 130 q 1320 173 1320 158 q 1318 202 1319 188 q 1316 220 1316 215 q 1317 229 1316 222 q 1318 245 1318 237 q 1318 261 1318 254 q 1319 273 1319 269 q 1321 281 1319 276 q 1323 290 1323 287 q 1355 293 1343 293 q 1386 294 1368 294 l 1414 294 q 1432 294 1419 294 q 1457 294 1444 294 q 1483 293 1470 294 q 1501 293 1495 293 q 1513 290 1504 293 q 1522 284 1522 288 l 1525 133 m 1518 494 q 1507 471 1518 477 q 1489 471 1502 471 q 1459 470 1475 471 q 1427 469 1443 469 q 1407 469 1412 469 q 961 468 1182 465 q 518 468 740 471 q 502 466 512 466 q 491 466 494 466 q 485 463 488 466 q 481 457 481 459 l 481 414 q 467 406 481 414 q 434 388 452 398 q 400 368 416 377 q 379 354 383 358 q 364 336 373 350 q 346 306 355 322 q 329 277 337 290 q 316 265 320 265 q 288 268 301 265 q 263 270 276 270 q 235 267 248 270 q 206 264 222 264 q 193 270 198 264 q 184 286 187 277 q 179 305 180 295 q 179 319 179 315 q 203 417 177 377 q 276 486 229 457 q 307 498 291 497 q 338 508 323 500 q 337 559 337 533 q 343 614 337 587 q 363 662 350 640 q 402 700 377 684 q 431 716 418 708 q 462 725 444 723 q 477 723 473 725 q 480 708 480 721 l 483 511 q 488 504 483 508 q 498 500 494 500 q 710 498 604 494 q 923 501 816 501 q 943 501 927 501 q 977 500 958 501 q 1011 500 995 500 q 1030 500 1026 500 q 1051 501 1044 500 q 1072 497 1058 502 q 1289 498 1180 500 q 1507 502 1398 497 q 1514 500 1509 502 q 1518 494 1518 497 m 1055 276 q 1055 255 1055 272 q 1054 222 1055 240 q 1054 187 1054 204 q 1054 167 1054 172 q 1054 142 1054 161 q 1044 117 1055 124 l 1001 117 q 940 116 965 116 q 877 117 915 116 q 852 128 859 119 q 842 149 844 137 q 841 177 840 162 q 841 204 841 191 q 841 243 841 222 q 843 284 840 265 l 845 288 q 878 293 861 294 q 911 293 895 293 q 936 293 918 293 q 957 294 954 294 q 970 293 959 294 q 991 293 980 293 q 1013 293 1004 293 q 1027 293 1025 293 q 1047 292 1038 293 q 1055 279 1055 291 l 1055 276 "},"[":{"x_min":81.140625,"x_max":1446.203125,"ha":1495,"o":"m 1446 782 l 1446 839 l 1442 844 q 1430 844 1440 844 q 1406 846 1421 845 q 1383 848 1392 848 l 1319 848 q 1296 848 1312 848 q 1260 850 1279 849 q 1223 851 1240 851 q 1200 852 1207 852 q 1194 859 1197 855 q 1190 866 1190 863 l 1190 1122 l 1182 1129 l 789 1129 q 768 1130 782 1129 q 749 1132 754 1132 l 746 1132 q 737 1130 743 1132 q 728 1129 730 1129 q 721 1126 725 1129 q 717 1124 717 1124 l 712 1104 q 712 1083 712 1102 q 711 1040 711 1065 q 710 990 711 1016 q 710 948 710 965 l 710 486 q 701 474 712 475 q 687 472 690 472 l 644 472 q 590 472 612 472 q 535 475 567 472 q 534 514 535 486 q 534 573 534 542 q 533 632 534 605 q 532 670 532 659 l 532 749 l 528 757 l 524 764 l 488 764 q 481 776 482 764 q 481 794 481 788 l 481 800 l 485 805 l 481 810 l 481 837 q 483 896 481 866 q 485 959 485 927 q 484 974 485 965 q 477 987 483 983 q 467 987 474 987 q 451 989 460 988 q 434 990 442 990 q 424 991 427 991 l 279 991 l 186 991 l 178 984 l 178 642 l 175 638 l 164 635 q 126 636 150 635 q 85 631 101 636 l 81 628 l 81 -197 l 178 -197 l 182 -194 l 182 -13 q 183 12 182 -5 q 186 41 185 29 q 186 54 186 53 l 189 61 l 318 196 q 324 200 318 196 q 333 205 331 205 l 336 205 l 345 201 l 477 61 l 477 -197 l 481 -200 l 495 -200 q 530 -199 514 -200 q 569 -197 546 -199 l 569 65 l 706 198 q 716 207 706 198 q 734 216 727 216 l 742 214 q 814 137 780 178 q 888 61 849 97 l 891 40 l 891 -197 l 897 -203 l 1008 -203 l 1017 -197 l 1017 40 q 1019 51 1017 43 q 1023 61 1021 58 l 1175 246 q 1185 263 1182 254 q 1192 281 1189 272 q 1199 297 1196 290 q 1208 307 1203 304 l 1240 307 l 1269 307 q 1287 306 1275 307 q 1314 305 1300 306 q 1340 304 1328 304 q 1358 303 1353 303 q 1367 293 1367 295 l 1367 206 q 1367 190 1367 201 q 1369 172 1368 179 q 1369 163 1369 164 l 1430 101 l 1435 101 l 1437 106 q 1440 443 1435 276 q 1446 782 1446 610 m 1279 -52 l 1279 23 l 1275 26 q 1266 28 1275 26 q 1250 30 1257 30 l 1247 30 q 1226 28 1238 30 q 1213 26 1213 26 l 1211 23 l 1211 -62 q 1217 -65 1211 -63 q 1232 -67 1223 -66 q 1248 -68 1240 -68 q 1258 -69 1255 -69 q 1273 -64 1266 -69 q 1279 -52 1279 -59 m 1063 30 l 1055 30 l 1055 23 q 1063 30 1063 23 m 1144 -48 l 1144 30 l 1074 30 l 1071 26 q 1069 11 1071 26 q 1067 -12 1067 -3 l 1067 -34 l 1067 -58 q 1085 -66 1070 -66 q 1107 -66 1100 -66 q 1131 -64 1119 -66 q 1144 -48 1144 -63 m 843 -181 q 841 -167 843 -173 q 840 -155 840 -162 q 843 -145 840 -148 l 843 -120 q 843 -94 843 -106 q 840 -66 843 -81 q 816 -58 829 -59 q 792 -58 804 -58 l 790 -59 q 773 -61 783 -59 q 763 -63 763 -63 l 761 -74 l 761 -103 q 761 -150 761 -129 q 763 -200 761 -172 q 780 -201 766 -200 q 799 -203 794 -203 l 804 -203 l 808 -203 q 824 -201 811 -203 q 840 -200 837 -200 q 843 -181 843 -195 m 433 -69 l 433 -66 q 429 -58 433 -58 l 350 -59 l 350 -197 l 411 -197 q 426 -189 419 -197 q 427 -172 426 -184 q 427 -146 427 -160 q 428 -120 427 -132 q 429 -102 429 -108 l 429 -77 l 433 -69 m 858 920 l 855 908 l 847 908 l 836 908 l 832 913 l 832 987 q 838 993 832 994 q 847 991 844 991 q 852 993 847 991 q 858 987 858 994 l 858 920 m 1358 362 q 1355 355 1358 355 l 1308 355 q 1251 355 1275 355 q 1195 358 1229 355 l 1193 362 q 1199 402 1193 381 q 1211 441 1205 422 q 1218 474 1212 448 q 1232 529 1225 500 q 1246 585 1240 559 q 1254 618 1252 611 q 1260 638 1255 625 q 1268 660 1265 651 q 1272 670 1272 669 l 1275 676 l 1279 670 q 1320 520 1298 595 q 1358 365 1343 444 l 1358 362 m 1077 726 q 1075 704 1077 719 q 1073 682 1073 688 l 1066 682 q 1059 682 1063 682 q 1055 686 1055 683 l 1055 708 q 1056 727 1055 719 q 1059 747 1057 736 l 1066 747 q 1076 744 1075 747 q 1077 732 1077 741 l 1077 726 m 858 769 q 852 761 855 762 q 847 761 850 761 q 836 761 844 761 q 829 765 829 762 l 829 823 l 832 829 l 840 829 q 857 816 855 829 q 858 790 858 804 l 858 769 m 1070 412 q 1059 405 1070 405 q 1048 412 1048 405 l 1048 480 q 1054 484 1048 483 q 1059 484 1059 484 q 1065 484 1059 484 q 1070 480 1070 483 l 1070 412 m 855 588 q 854 554 855 566 q 829 541 852 541 q 830 545 829 544 q 831 552 831 547 l 831 555 q 826 552 831 552 q 826 581 826 566 q 829 613 826 598 q 834 618 829 619 q 843 618 840 618 l 849 618 q 856 603 856 612 q 855 588 855 594 m 400 776 l 397 772 q 388 770 394 772 q 381 769 381 769 q 377 770 379 769 q 376 772 376 772 l 376 844 q 381 852 376 852 q 388 850 381 852 q 397 848 394 848 l 400 844 l 400 776 m 790 225 q 787 222 790 222 q 786 225 786 222 q 787 227 786 227 q 790 225 790 227 m 404 541 q 402 535 404 538 q 397 531 400 531 q 380 533 391 531 q 372 541 369 534 l 372 570 l 372 600 q 373 611 372 605 q 381 618 375 618 q 404 602 404 618 q 404 570 404 587 l 404 541 m 184 344 q 179 338 184 337 q 173 340 173 340 q 165 338 170 340 q 159 344 159 337 l 159 397 q 165 404 159 404 q 173 405 170 405 q 179 404 173 405 q 184 401 184 404 l 184 344 "},"L":{"x_min":105.140625,"x_max":2322.75,"ha":2443,"o":"m 2322 1019 q 2319 1051 2320 1036 q 2294 1066 2317 1066 l 2155 1066 q 2142 1053 2144 1066 q 2141 1037 2141 1040 q 2141 1004 2141 1027 q 2140 954 2141 980 q 2140 904 2140 927 q 2140 870 2140 880 q 2135 856 2137 861 q 2123 850 2133 852 l 2097 850 q 2058 850 2077 850 q 2027 870 2040 851 l 1884 1066 q 1864 1082 1877 1076 q 1841 1089 1851 1089 l 1833 1089 q 1788 1038 1806 1065 q 1747 984 1770 1011 q 1728 961 1742 978 q 1699 925 1715 944 q 1670 890 1684 907 q 1652 867 1656 873 q 1630 854 1647 861 l 1465 854 q 862 860 1163 854 q 259 867 561 867 l 133 867 q 120 854 120 867 q 115 695 113 775 q 113 536 116 615 q 107 260 109 397 q 105 -17 104 124 q 106 -37 105 -22 q 107 -61 107 -51 q 107 -74 107 -72 q 109 -96 107 -86 q 125 -108 111 -105 q 258 -113 191 -112 q 392 -112 325 -114 q 526 -112 459 -111 q 659 -117 593 -112 q 668 -131 668 -125 l 668 -190 q 666 -193 668 -190 q 663 -199 663 -197 l 659 -204 l 668 -204 l 794 -208 q 783 -201 784 -205 q 782 -186 782 -197 q 780 -177 782 -186 q 786 -169 779 -169 l 782 -165 l 782 -151 q 785 -128 782 -136 q 808 -117 788 -119 l 925 -117 q 1590 -124 1258 -117 q 2258 -131 1922 -131 l 2301 -131 q 2318 -94 2318 -118 q 2318 -76 2318 -92 q 2317 -45 2318 -62 q 2316 -12 2316 -28 q 2316 5 2316 1 q 2317 42 2316 13 q 2318 106 2318 71 q 2320 171 2319 141 q 2321 209 2321 201 q 2320 242 2321 214 q 2320 302 2320 270 q 2320 362 2320 334 q 2320 397 2320 390 q 2322 709 2321 554 q 2322 1019 2323 865 m 654 -213 q 657 -208 657 -213 q 654 -204 657 -204 q 651 -208 651 -204 q 654 -213 651 -213 m 2289 405 q 2287 259 2289 333 q 2286 113 2286 186 q 2286 59 2286 93 q 2285 -2 2286 27 q 2284 -55 2284 -33 q 2283 -77 2283 -77 l 2279 -90 q 2269 -92 2279 -90 q 2252 -94 2259 -94 l 2197 -94 l 2136 -94 q 2105 -93 2127 -94 q 2057 -92 2083 -93 q 2009 -91 2031 -91 q 1979 -90 1987 -90 q 1963 -74 1965 -87 q 1959 -47 1961 -61 q 1961 109 1959 31 q 1962 270 1963 187 l 1962 309 q 1956 320 1962 316 q 1948 327 1951 323 q 1877 331 1909 330 q 1805 331 1844 331 l 1730 331 q 1717 318 1717 331 q 1710 124 1709 219 q 1704 -69 1710 29 l 1699 -82 l 1695 -86 l 1387 -86 q 1377 -81 1380 -86 q 1373 -69 1373 -76 q 1373 -47 1373 -62 q 1372 -16 1372 -33 q 1372 13 1372 0 q 1372 36 1372 29 q 1371 240 1371 137 q 1377 444 1371 343 q 1388 463 1381 451 q 1399 479 1396 476 q 1409 493 1400 483 q 1429 517 1418 504 q 1449 543 1439 530 q 1463 562 1458 555 l 1467 566 l 1581 715 l 1583 719 q 1619 765 1600 743 q 1657 811 1637 787 q 1682 850 1671 826 q 1712 888 1693 875 l 1812 1019 q 1817 1025 1812 1020 q 1826 1036 1821 1030 q 1839 1045 1832 1041 q 1850 1050 1846 1050 l 1882 1019 l 2261 474 q 2279 441 2270 458 q 2289 405 2287 424 m 1335 266 q 1335 168 1335 226 q 1333 54 1335 109 q 1331 -38 1332 0 q 1331 -77 1331 -77 l 1326 -82 q 1307 -82 1324 -82 q 1266 -84 1290 -83 q 1226 -86 1242 -86 q 1169 -85 1215 -86 q 1071 -84 1123 -84 q 973 -82 1019 -83 q 916 -82 927 -82 l 855 -82 q 843 -81 852 -82 q 825 -79 834 -80 q 807 -78 815 -79 q 794 -77 798 -77 q 782 -68 784 -77 q 780 -55 780 -58 l 780 5 l 780 65 q 781 87 780 72 q 782 119 782 102 q 782 152 782 137 q 783 174 783 168 q 795 197 783 188 l 856 197 q 963 194 909 197 q 1070 191 1017 191 l 1105 191 l 1118 205 q 1119 217 1118 206 q 1121 243 1120 227 q 1122 266 1122 258 l 1122 327 q 1122 361 1122 340 q 1124 396 1123 381 q 1125 413 1125 411 l 1133 431 l 1321 431 q 1330 427 1328 431 q 1333 418 1333 422 q 1334 402 1333 413 q 1335 379 1335 391 q 1335 356 1335 368 q 1335 344 1335 347 l 1335 266 m 1099 448 q 1098 411 1099 437 q 1097 355 1097 384 q 1096 302 1097 327 q 1096 266 1096 276 q 1094 249 1096 263 q 1093 231 1093 234 q 1079 222 1083 222 l 992 222 l 901 222 q 877 222 896 222 q 837 224 858 223 q 798 225 817 224 q 775 226 779 226 l 469 226 q 452 227 465 226 q 424 229 439 227 q 396 231 410 230 q 378 231 383 231 q 364 252 367 237 q 365 455 364 351 q 369 658 367 559 q 382 682 372 677 q 410 689 393 686 l 465 689 l 518 689 q 632 688 564 689 q 764 687 700 687 q 873 685 828 686 q 918 685 918 685 l 922 679 l 928 685 l 1079 685 q 1088 681 1082 685 q 1097 675 1094 677 l 1097 562 q 1098 532 1097 551 q 1099 495 1099 513 q 1099 463 1099 477 q 1099 448 1099 449 m 672 -51 q 668 -68 672 -58 q 655 -77 665 -77 l 233 -77 q 203 -75 226 -77 q 172 -73 179 -73 q 144 -61 148 -73 q 140 -25 140 -48 l 140 -4 q 141 43 140 11 q 142 113 142 75 q 143 198 142 154 q 144 281 144 243 q 145 354 144 322 q 146 401 146 386 q 146 422 144 408 q 158 444 147 437 l 215 444 q 271 443 247 444 q 327 440 296 443 q 337 429 334 437 q 340 413 340 420 l 343 226 q 353 207 343 213 q 373 201 363 201 q 515 200 443 201 q 656 197 587 200 q 670 175 670 187 l 672 -51 m 2107 632 q 2098 623 2098 632 q 2104 624 2101 623 q 2107 632 2107 625 m 1965 470 l 1964 666 l 1959 670 q 1948 672 1955 670 q 1937 675 1940 675 l 1737 675 q 1727 670 1730 675 q 1723 658 1723 665 q 1722 619 1723 647 q 1720 562 1720 592 q 1718 504 1719 531 q 1716 466 1716 477 l 1716 461 q 1725 443 1716 451 q 1747 436 1733 436 l 1947 436 q 1963 449 1961 436 q 1965 470 1965 463 m 959 483 l 959 488 q 953 495 957 490 q 945 508 950 501 q 938 522 941 515 q 933 531 934 528 q 929 540 930 538 q 929 544 929 541 q 941 566 929 555 q 952 601 952 577 q 936 642 952 630 q 893 654 919 654 l 866 654 q 860 647 863 651 q 857 640 857 642 l 858 483 q 861 475 858 476 q 868 474 865 474 q 880 492 880 474 q 882 512 880 495 q 884 531 884 528 l 888 535 l 894 535 q 907 526 900 535 q 920 505 913 516 q 934 484 927 494 q 950 474 941 474 q 959 483 959 474 m 1015 413 q 1008 420 1015 416 q 998 423 1001 423 l 923 423 q 916 420 916 423 q 915 413 915 416 q 920 407 915 409 q 931 404 925 405 q 942 401 937 404 q 947 393 947 398 l 947 256 q 951 249 948 250 q 957 248 954 248 q 970 252 968 248 q 973 266 973 255 q 974 283 973 270 q 975 309 975 295 q 977 336 976 323 q 977 352 977 348 q 985 389 979 379 q 998 403 991 400 q 1009 406 1005 406 q 1015 413 1015 406 m 827 566 q 799 630 827 606 q 732 654 770 654 q 709 652 718 654 q 687 644 701 651 q 652 606 668 624 q 636 562 636 588 q 667 492 637 518 q 737 466 697 466 q 804 494 779 466 q 827 566 829 523 m 613 640 q 608 652 613 648 q 595 657 602 657 q 580 658 587 658 q 570 658 573 658 l 540 658 q 531 649 536 655 q 526 640 526 643 l 527 479 q 536 475 527 475 q 548 486 547 475 q 550 505 550 498 q 552 525 550 508 q 554 544 554 541 q 564 556 555 554 q 584 559 573 558 q 602 561 594 559 q 609 570 609 562 q 605 579 609 579 l 556 588 l 556 623 q 566 629 556 627 q 584 630 575 630 q 604 632 595 630 q 613 640 613 633 m 882 387 l 882 393 q 879 409 882 400 q 868 418 877 418 q 861 417 861 418 q 858 409 862 416 q 852 364 852 390 q 851 322 851 338 l 843 313 l 834 318 l 820 331 q 813 339 819 333 q 801 353 808 345 q 788 367 794 361 q 782 375 783 373 q 774 384 780 377 q 761 398 768 391 q 747 411 754 405 q 737 418 740 416 l 733 418 q 721 416 726 418 q 720 405 716 415 q 720 381 720 398 q 718 346 719 365 q 717 311 718 327 q 716 287 716 294 l 716 275 q 718 256 716 268 q 730 248 720 245 q 743 266 743 251 q 743 293 743 281 q 745 322 743 300 q 747 352 747 345 l 751 358 l 759 352 q 817 303 791 331 q 866 248 843 275 l 870 248 q 875 256 873 248 q 877 266 877 263 q 878 289 877 272 q 879 327 879 306 q 881 363 880 347 q 882 387 882 380 m 682 262 q 679 268 682 265 q 677 270 677 270 l 620 279 l 612 287 l 612 301 q 627 335 612 330 q 673 340 643 340 q 677 348 677 340 q 673 358 677 358 q 655 357 665 358 q 636 359 645 356 q 622 366 627 361 q 616 383 616 372 q 622 400 616 394 q 636 407 627 405 q 655 409 644 409 q 676 409 666 409 q 680 418 680 409 q 676 427 680 427 l 597 427 q 589 420 594 427 q 584 409 584 412 q 581 347 581 377 q 581 283 581 316 q 593 252 583 256 q 630 248 604 248 q 643 247 634 248 q 660 248 651 247 q 675 252 669 250 q 682 262 682 255 m 555 262 q 550 277 555 270 q 540 290 545 283 q 529 304 534 297 q 525 322 525 312 q 538 347 525 336 q 551 379 551 359 q 528 418 550 408 q 480 427 506 427 l 462 427 l 454 418 q 453 403 454 416 q 452 370 452 390 q 451 340 451 351 l 451 305 l 451 270 q 455 260 454 263 q 463 256 456 256 q 472 262 472 256 l 481 309 l 486 309 q 498 302 493 309 q 508 293 504 295 q 520 275 511 288 q 533 256 530 261 l 543 256 q 549 257 543 256 q 555 262 555 258 m 932 605 q 923 584 932 593 q 905 575 915 575 q 893 576 902 575 q 883 584 883 577 l 883 619 q 891 627 883 625 q 905 631 898 630 q 913 632 912 632 q 911 613 913 622 q 897 605 909 605 l 901 601 l 905 601 q 913 609 908 604 q 922 619 919 615 q 932 605 932 609 m 802 558 q 780 511 802 529 q 727 493 758 493 q 684 512 701 493 q 668 558 668 531 q 685 607 666 587 q 732 627 704 627 q 782 609 763 627 q 802 558 801 590 m 525 383 q 494 352 525 352 q 488 352 494 352 q 481 358 481 351 l 481 397 q 488 404 481 404 q 498 405 495 405 q 517 400 509 405 q 525 383 525 394 "}," ":{"x_min":0,"x_max":0,"ha":695},"{":{"x_min":86.171875,"x_max":798.71875,"ha":875,"o":"m 780 596 l 780 608 q 775 614 777 613 q 766 614 772 614 l 755 614 q 713 611 740 613 q 667 608 686 609 q 645 608 648 608 l 638 601 l 638 564 l 645 558 q 655 557 647 558 q 676 555 663 556 q 695 553 688 553 l 741 553 q 754 552 744 553 q 766 551 763 551 l 769 551 q 780 567 780 551 q 780 596 780 585 m 776 438 l 776 449 l 769 456 q 736 457 750 456 q 702 459 722 459 l 698 459 q 678 456 691 459 q 656 453 665 454 q 645 452 647 452 l 638 445 l 638 435 q 637 421 638 429 q 643 410 636 412 q 681 406 661 407 q 723 405 702 405 l 769 405 q 777 420 777 408 q 776 438 776 432 m 776 270 l 776 284 l 773 289 l 652 289 l 643 284 l 643 275 q 659 243 643 247 q 698 239 675 239 q 734 239 720 239 q 769 243 748 240 q 777 257 777 248 q 776 270 776 265 m 518 592 l 518 597 q 513 607 518 604 q 501 613 508 611 q 487 615 494 615 q 476 615 480 615 q 455 614 472 615 q 419 613 438 613 q 383 611 400 612 q 362 611 366 611 l 231 611 q 223 598 223 608 q 223 583 223 588 q 224 570 223 577 q 231 560 225 563 q 338 559 284 560 q 444 558 391 558 q 459 557 450 558 q 480 557 469 556 q 501 559 491 558 q 515 564 511 560 q 516 578 515 567 q 518 592 518 590 m 798 -22 q 793 -2 798 -10 q 776 5 787 5 l 351 5 q 290 0 325 5 q 232 -22 255 -4 q 213 -42 219 -31 q 200 -61 207 -52 q 184 -76 194 -70 q 157 -83 175 -83 q 143 -76 145 -83 q 138 -58 141 -69 l 138 48 q 139 367 138 208 q 145 686 140 526 q 149 694 145 688 q 152 702 152 699 l 157 706 l 216 711 l 724 711 q 736 711 728 711 q 754 711 746 711 q 769 715 763 712 q 776 727 776 719 q 776 738 776 733 q 769 745 775 742 q 729 749 743 748 q 692 749 714 749 l 667 749 q 651 749 664 749 q 623 747 638 748 q 595 746 608 747 q 579 745 582 745 q 556 746 575 745 q 517 747 538 747 q 477 749 496 748 q 454 749 458 749 l 319 749 q 294 761 301 749 q 288 788 288 772 l 288 951 l 335 955 l 643 955 q 685 956 658 955 q 731 957 713 956 q 753 958 750 958 l 760 962 l 760 990 l 753 994 q 733 995 753 994 q 686 997 714 997 q 629 999 658 998 q 582 1001 600 1001 l 575 1001 l 564 1001 q 549 1000 561 1001 q 524 999 538 999 q 498 997 510 998 q 483 997 486 997 q 370 998 432 997 q 253 994 308 999 q 243 988 244 991 q 239 976 242 984 l 239 916 q 240 842 239 879 q 242 770 242 805 q 228 756 242 756 q 212 760 214 756 q 209 777 209 763 q 207 812 208 787 q 204 865 205 837 q 201 918 202 892 q 200 955 200 944 q 198 985 200 970 q 196 1015 196 999 q 197 1037 196 1029 q 209 1054 198 1045 q 392 1053 301 1051 q 575 1058 483 1055 q 609 1059 585 1058 q 660 1062 633 1060 q 712 1064 687 1063 q 744 1065 736 1065 q 754 1071 753 1067 q 755 1085 755 1074 l 755 1092 l 748 1097 l 444 1097 q 414 1100 436 1097 q 383 1104 392 1104 l 376 1104 q 279 1101 328 1104 q 182 1097 230 1099 q 161 1079 173 1088 q 150 1058 150 1070 q 153 940 150 998 q 157 827 157 883 l 157 766 q 137 748 154 751 q 107 745 120 745 q 97 727 97 741 q 93 654 91 687 q 93 576 94 620 q 88 316 91 445 q 86 51 86 186 l 86 -62 l 90 -104 q 100 -120 90 -112 q 118 -129 109 -129 l 238 -129 l 245 -122 q 247 -107 245 -119 q 248 -92 248 -95 q 252 -71 248 -85 q 263 -54 255 -56 q 288 -50 269 -54 q 312 -47 307 -47 l 344 -47 q 385 -46 354 -47 q 459 -44 416 -45 q 550 -42 502 -42 q 640 -40 597 -41 q 714 -38 683 -38 q 755 -37 745 -37 q 782 -38 766 -37 q 798 -22 798 -38 m 776 96 l 776 110 l 776 135 q 775 142 776 138 q 773 146 773 146 l 691 146 l 682 142 l 666 140 l 663 133 q 646 123 650 124 q 643 101 643 121 q 649 88 643 90 q 663 87 655 87 q 715 88 690 87 q 769 90 740 90 l 776 96 m 522 442 l 522 456 l 518 459 l 469 459 q 358 459 415 459 q 248 452 301 459 q 236 450 245 452 q 227 449 227 449 q 222 443 222 449 q 223 435 223 438 q 227 420 223 418 q 245 419 231 422 q 254 416 248 419 q 263 412 261 412 q 274 411 266 412 q 284 410 281 410 l 515 410 q 520 418 519 410 q 522 433 522 426 q 522 442 522 440 m 525 243 l 525 284 l 522 289 l 500 289 l 472 289 q 461 288 469 289 q 442 286 452 287 q 423 285 431 286 q 412 284 415 284 q 404 285 411 284 q 392 286 398 286 q 380 288 386 287 q 373 289 375 289 l 362 289 q 335 286 348 289 q 309 284 322 284 l 284 284 q 277 285 283 284 q 264 286 270 286 q 252 288 258 287 q 245 289 247 289 q 234 286 243 289 q 223 284 226 284 l 220 282 l 220 239 q 225 232 220 233 q 231 231 229 231 l 234 231 q 254 233 240 231 q 273 236 268 236 l 511 236 q 515 237 511 236 q 522 239 519 239 l 525 243 m 531 110 q 531 126 531 121 q 529 142 531 131 q 520 146 526 145 q 508 146 513 146 q 366 142 437 146 q 223 140 295 137 q 220 133 220 140 l 220 128 q 222 112 220 123 q 223 101 223 101 l 231 94 l 252 94 q 391 92 322 94 q 529 101 459 90 q 533 105 534 101 q 531 110 531 110 "},"X":{"x_min":117,"x_max":1030.78125,"ha":1151,"o":"m 772 1121 q 765 1116 765 1121 l 765 1114 l 768 1109 q 772 1121 772 1114 m 1030 1075 q 1017 1101 1030 1096 q 984 1107 1004 1107 q 947 1105 965 1107 q 914 1103 929 1103 q 781 1105 847 1103 q 648 1107 715 1107 l 496 1107 q 448 1106 482 1107 q 378 1105 415 1105 q 308 1103 341 1104 q 262 1103 275 1103 q 214 1091 239 1100 q 167 1068 189 1083 q 130 1031 144 1053 q 117 982 117 1009 l 117 -45 q 133 -101 117 -77 q 175 -143 150 -126 q 230 -170 200 -160 q 286 -183 260 -180 l 468 -183 l 648 -183 q 684 -182 658 -183 q 737 -180 709 -181 q 790 -179 765 -180 q 825 -178 815 -178 q 830 -176 825 -178 q 836 -171 836 -174 l 843 -108 l 850 -99 l 959 -99 q 965 -96 959 -99 q 973 -94 970 -94 l 980 -92 l 980 -16 q 982 -12 980 -16 q 984 -5 984 -8 l 989 -3 q 1002 0 991 -3 q 1016 1 1014 1 q 1021 2 1019 1 q 1023 3 1023 3 l 1023 40 l 1028 42 l 1028 1052 q 1030 1064 1030 1058 q 1030 1075 1030 1069 m 900 316 q 899 279 900 305 q 897 223 898 252 q 896 168 897 194 q 895 131 895 141 q 881 120 895 120 q 570 118 730 118 q 262 118 411 118 q 209 104 233 115 q 162 75 186 94 l 159 79 l 159 159 q 169 177 169 170 q 167 187 169 186 q 159 191 165 188 l 155 252 q 148 564 144 409 q 153 876 153 718 l 153 961 q 157 983 155 975 q 169 1000 158 991 l 180 1007 l 180 1025 q 199 1043 183 1036 q 226 1053 215 1050 q 247 1057 232 1055 q 265 1060 262 1060 l 651 1060 l 658 1057 l 895 1057 l 900 1052 l 900 766 l 900 316 m 991 42 q 624 40 806 42 q 258 36 443 38 q 215 14 231 36 q 198 -35 198 -7 q 218 -81 198 -61 q 265 -102 238 -102 q 475 -100 372 -102 q 683 -99 579 -99 l 772 -99 q 784 -100 775 -99 q 797 -102 794 -102 l 800 -106 l 800 -131 l 797 -133 q 786 -136 794 -133 q 775 -138 777 -138 l 290 -138 q 245 -131 268 -138 q 204 -113 222 -125 q 174 -81 186 -100 q 162 -35 162 -61 q 177 24 162 2 q 218 56 193 45 q 273 69 243 66 q 333 72 304 72 q 401 72 355 72 q 507 72 448 72 q 631 73 566 73 q 756 74 697 73 q 862 75 815 75 q 932 75 909 75 q 938 77 934 75 q 941 86 941 80 l 946 181 l 946 1050 l 952 1057 l 977 1057 l 989 1045 l 989 67 q 991 55 991 62 q 991 42 991 48 m 938 -48 l 932 -55 q 666 -57 797 -55 q 404 -60 534 -60 l 279 -60 q 256 -54 268 -60 q 244 -34 244 -48 q 261 -7 244 -8 q 301 -5 279 -5 q 322 -5 305 -5 q 358 -4 338 -4 q 396 -3 379 -4 q 418 -3 413 -3 l 729 -3 l 927 -3 l 938 -5 l 938 -48 m 137 -48 l 134 -45 l 137 -45 l 137 -48 m 818 1027 q 816 1034 818 1030 q 811 1038 813 1038 q 804 1032 804 1038 q 811 1020 804 1020 q 818 1027 818 1020 m 815 972 q 814 980 815 977 q 807 986 813 983 l 804 982 l 804 961 q 812 962 809 961 q 815 972 815 963 m 815 904 q 806 911 815 911 q 800 907 801 911 q 800 901 800 904 q 806 894 800 894 q 812 897 809 894 q 815 904 815 901 m 806 840 l 800 840 q 799 832 800 837 q 804 826 798 826 q 808 832 809 826 q 806 840 806 837 m 811 762 q 804 776 811 776 l 800 776 l 800 762 l 811 762 m 811 705 l 811 720 l 806 723 q 802 718 804 720 q 800 709 800 715 q 804 706 800 707 q 811 705 808 705 m 555 954 q 545 961 552 957 q 534 965 537 965 l 530 965 l 527 961 q 541 950 531 950 q 547 950 544 950 q 555 954 550 951 m 818 652 q 804 663 818 663 q 804 652 804 658 q 811 645 805 645 q 818 652 818 645 m 818 586 q 811 593 818 593 q 804 577 804 593 q 804 570 804 575 q 807 568 804 568 q 816 573 813 568 q 818 586 818 579 m 815 504 q 814 512 815 509 q 806 515 813 515 q 800 506 800 515 q 806 500 800 500 q 815 504 815 500 m 815 444 q 812 450 815 447 q 806 454 809 454 q 800 444 800 454 q 802 437 800 441 q 811 433 805 433 q 814 437 813 433 q 815 444 815 441 m 811 376 q 804 383 811 383 l 800 380 l 797 373 l 804 365 q 810 370 809 368 q 811 376 811 373 m 811 301 q 810 313 811 304 q 807 323 809 323 q 799 319 801 323 q 797 312 797 315 q 802 304 797 306 q 811 301 808 301 m 811 252 q 804 259 811 259 l 800 259 l 800 241 q 808 243 805 241 q 811 252 811 244 m 768 227 l 768 230 q 758 238 768 238 q 744 238 750 238 q 746 229 744 236 q 754 223 748 223 q 761 225 757 223 q 768 227 765 227 m 701 227 q 697 234 701 233 q 690 234 693 234 q 684 234 687 234 q 680 227 680 233 q 684 222 680 225 q 690 220 687 220 q 697 222 693 220 q 701 227 701 225 m 598 227 q 595 232 598 230 q 591 234 591 234 q 582 232 588 234 q 573 230 576 230 l 573 227 q 576 218 573 219 q 584 216 579 216 q 593 219 587 216 q 598 227 598 222 m 491 227 q 487 230 491 230 q 481 230 484 230 q 468 223 468 230 q 471 217 468 218 q 477 216 475 216 q 486 219 480 216 q 491 227 491 222 m 397 223 q 386 230 397 230 q 375 223 375 230 q 380 218 375 220 q 388 216 386 216 q 397 223 397 216 m 304 216 q 296 224 304 225 q 283 223 288 223 q 284 213 283 216 q 294 209 286 209 q 304 216 304 209 m 219 209 q 209 209 216 209 q 201 202 201 208 q 205 195 201 195 q 219 209 219 195 "},"P":{"x_min":6.9375,"x_max":876.453125,"ha":911,"o":"m 876 598 q 827 840 851 723 q 773 1081 804 957 q 743 1130 766 1109 q 690 1151 720 1152 l 595 1148 l 581 1139 q 565 1127 579 1138 q 531 1100 551 1116 q 500 1075 511 1084 l 493 1068 q 479 1058 490 1066 q 466 1047 469 1050 l 463 1047 q 444 1057 458 1047 q 414 1078 430 1066 q 383 1103 398 1091 q 362 1123 368 1116 q 349 1135 359 1125 q 336 1148 338 1145 l 330 1151 q 298 1153 312 1155 q 269 1151 284 1152 q 245 1151 262 1151 q 226 1149 230 1151 q 188 1130 204 1145 q 161 1097 172 1116 q 142 1056 150 1078 q 129 1016 134 1034 q 119 985 126 1007 q 105 939 112 963 q 91 894 98 916 q 81 864 84 873 l 77 856 q 64 811 68 834 q 54 764 61 788 q 48 748 52 760 q 39 720 44 735 q 29 692 34 705 q 23 675 25 680 q 12 641 18 657 q 6 609 6 625 l 6 596 q 76 574 41 585 q 147 552 111 563 q 152 562 152 560 q 160 581 155 567 q 170 611 165 595 q 180 641 176 627 q 186 662 184 655 l 191 674 q 206 721 197 692 q 224 778 215 750 q 239 824 233 805 q 245 844 245 844 l 248 850 l 251 846 q 277 800 266 827 q 295 753 288 773 q 304 743 300 742 q 316 744 308 744 q 347 744 322 744 q 404 744 373 744 q 459 744 434 744 q 493 744 486 744 q 531 744 512 745 q 570 744 551 742 q 583 748 579 744 q 591 759 587 753 q 597 771 594 764 q 608 781 601 777 q 613 793 609 785 q 622 809 618 800 q 632 825 627 817 q 640 838 637 834 q 645 846 643 842 q 654 850 648 850 q 659 848 659 850 q 661 842 658 846 q 692 699 676 771 q 722 553 708 627 q 726 546 722 548 q 734 544 730 544 l 741 544 l 755 548 q 777 553 761 549 q 809 559 793 556 q 841 566 826 563 q 862 571 857 570 q 875 578 873 574 q 876 588 876 581 l 876 598 m 679 444 q 672 447 679 447 q 675 440 668 440 l 679 444 m 772 -190 q 768 -166 772 -183 q 763 -144 763 -149 l 759 -134 l 618 598 q 616 610 618 601 q 615 622 615 619 q 609 649 613 632 q 602 679 605 666 q 600 693 600 691 l 587 705 q 455 703 520 700 q 325 703 390 705 l 295 703 q 283 688 284 701 q 279 668 281 675 q 270 638 276 660 q 259 594 265 616 q 246 549 252 571 q 238 519 240 528 l 238 516 q 164 257 200 386 q 91 -1 129 128 q 62 -94 77 -45 q 36 -190 47 -142 q 49 -196 41 -195 q 62 -197 56 -197 q 89 -198 69 -197 q 130 -200 109 -200 q 172 -200 152 -200 q 200 -200 193 -200 q 211 -200 202 -200 q 231 -198 220 -200 q 250 -197 241 -197 q 262 -197 259 -197 q 487 -199 375 -198 q 713 -197 600 -201 q 740 -197 719 -197 q 769 -197 761 -197 l 772 -192 l 772 -190 m 579 548 q 581 545 581 548 q 579 543 581 543 q 576 544 576 541 q 579 548 576 548 "},"_":{"x_min":117,"x_max":2043,"ha":2115,"o":"m 2043 -163 l 2043 1027 l 2038 1175 q 2037 1192 2038 1180 q 2024 1207 2036 1204 q 1639 1214 1831 1218 q 1254 1212 1447 1210 q 716 1212 983 1215 q 179 1210 450 1210 l 121 1210 l 117 1203 l 117 -205 l 128 -211 l 1157 -211 q 1178 -209 1162 -211 q 1201 -208 1194 -208 l 1204 -208 q 1237 -209 1219 -208 q 1272 -211 1254 -211 l 1312 -211 q 1321 -209 1315 -211 q 1330 -208 1328 -208 l 1337 -211 l 1410 -211 q 1421 -197 1418 -211 q 1424 76 1424 -58 q 1428 349 1425 211 q 1428 376 1428 365 q 1431 404 1428 387 l 1435 408 q 1476 411 1457 411 q 1521 411 1497 411 q 1667 409 1594 411 q 1812 408 1739 408 l 1824 404 l 1824 -201 q 1826 -208 1824 -203 q 1830 -215 1828 -212 q 1889 -217 1861 -215 q 1945 -219 1916 -219 q 1991 -215 1969 -219 q 2036 -215 2012 -212 l 2038 -208 q 2039 -198 2038 -205 q 2040 -185 2040 -192 q 2042 -171 2041 -177 q 2043 -163 2043 -164 m 1817 860 l 1713 860 l 1702 872 l 1702 1001 q 1715 1019 1702 1019 l 1801 1019 q 1810 1015 1804 1019 q 1817 1008 1817 1010 l 1817 860 m 1680 883 q 1678 875 1680 880 q 1676 868 1676 870 l 1672 863 l 1567 863 q 1559 874 1562 863 q 1556 887 1556 884 l 1556 890 q 1557 913 1556 897 q 1558 947 1558 929 q 1560 982 1559 966 q 1561 1005 1561 998 q 1580 1024 1563 1025 q 1611 1023 1597 1023 q 1645 1023 1624 1023 q 1676 1016 1667 1023 q 1679 969 1679 988 q 1680 922 1680 950 l 1680 883 m 1819 678 q 1815 671 1819 675 q 1809 667 1812 667 l 1713 667 q 1708 669 1713 667 q 1704 674 1704 671 q 1703 684 1704 676 q 1702 696 1702 693 l 1702 822 q 1708 832 1702 828 q 1719 836 1714 836 l 1726 836 q 1742 835 1730 836 q 1768 834 1754 834 q 1793 832 1781 833 q 1809 832 1805 832 q 1817 824 1816 832 q 1819 814 1819 816 l 1819 678 m 1539 872 l 1532 863 l 1446 863 q 1428 883 1428 863 l 1428 1012 l 1431 1019 l 1435 1023 l 1532 1023 l 1536 1019 q 1537 1010 1536 1016 q 1539 1001 1539 1003 l 1539 872 m 1680 682 l 1676 670 q 1660 668 1676 670 q 1633 666 1644 666 l 1611 666 q 1597 666 1605 666 q 1580 666 1588 665 q 1566 670 1572 666 q 1561 684 1561 675 l 1561 825 q 1565 833 1561 830 q 1572 836 1569 836 l 1615 836 q 1645 837 1629 836 q 1676 832 1661 838 l 1680 829 l 1680 682 m 1410 883 q 1396 865 1410 867 q 1369 864 1383 864 q 1340 865 1354 864 q 1307 868 1327 865 q 1301 878 1302 871 q 1301 888 1301 885 q 1299 907 1301 888 q 1298 938 1298 927 l 1298 940 q 1298 970 1298 950 q 1300 1002 1299 989 q 1301 1017 1301 1015 l 1303 1024 q 1312 1025 1303 1024 q 1327 1027 1320 1027 l 1355 1027 q 1367 1027 1358 1027 q 1384 1028 1376 1028 q 1402 1024 1394 1028 q 1410 1013 1410 1021 l 1410 883 m 1539 678 l 1532 671 l 1439 671 l 1435 674 q 1433 680 1435 676 q 1431 684 1431 684 l 1431 832 l 1435 836 q 1446 838 1435 836 q 1464 840 1458 840 l 1471 840 l 1478 840 q 1505 838 1483 840 q 1532 836 1526 836 q 1539 825 1539 829 l 1539 678 m 1280 876 q 1265 867 1272 867 l 1175 867 q 1173 877 1174 867 q 1172 899 1173 887 q 1170 924 1171 912 q 1170 944 1170 937 l 1170 961 q 1170 985 1170 971 q 1172 1008 1171 999 q 1173 1020 1173 1018 l 1175 1027 l 1265 1027 q 1274 1023 1271 1027 q 1276 1017 1276 1020 q 1277 999 1276 1011 q 1278 973 1278 986 q 1280 947 1279 959 q 1281 929 1281 934 l 1281 905 l 1280 876 m 1410 671 l 1312 671 l 1303 674 q 1303 684 1303 675 q 1301 705 1302 693 q 1301 725 1301 718 l 1301 779 l 1301 829 q 1307 840 1301 833 l 1348 840 l 1387 840 q 1402 839 1394 840 q 1410 829 1410 837 l 1410 671 m 1150 879 q 1147 874 1150 879 q 1143 868 1145 868 l 1057 868 q 1044 870 1050 868 q 1039 879 1039 871 l 1039 1020 l 1043 1027 q 1058 1029 1043 1027 q 1082 1031 1073 1031 l 1104 1031 q 1127 1031 1115 1031 q 1145 1020 1141 1031 q 1146 1002 1145 1014 q 1147 977 1147 990 q 1149 951 1148 963 q 1150 933 1150 939 l 1150 908 l 1150 879 m 1284 745 q 1283 732 1284 741 q 1282 711 1282 722 q 1281 691 1282 700 q 1280 678 1280 682 q 1269 671 1273 671 l 1237 671 q 1204 671 1221 671 q 1175 674 1189 671 q 1173 728 1173 697 q 1173 782 1173 758 l 1173 829 l 1175 840 q 1185 841 1175 840 q 1202 843 1195 843 l 1204 843 q 1231 842 1214 843 q 1260 840 1248 841 q 1272 840 1271 840 l 1280 831 q 1281 815 1280 829 q 1283 782 1282 802 q 1284 750 1284 762 l 1284 745 m 1017 878 l 1014 872 l 916 872 q 910 876 914 872 q 905 883 905 880 l 905 1017 q 907 1020 905 1017 q 908 1027 908 1024 l 912 1031 l 998 1031 l 1014 1027 q 1015 1015 1014 1027 q 1017 999 1017 1004 l 1017 926 l 1017 878 m 1150 682 q 1142 672 1150 673 q 1127 671 1134 671 l 1093 671 l 1052 671 q 1043 678 1047 671 q 1039 731 1040 709 q 1039 781 1039 752 q 1039 811 1039 795 q 1043 840 1040 826 q 1055 843 1050 843 q 1066 843 1062 843 q 1086 841 1077 843 q 1106 840 1095 840 l 1122 843 q 1132 841 1125 843 q 1143 840 1140 840 q 1147 836 1145 840 q 1150 831 1150 831 l 1150 682 m 888 933 q 889 918 888 929 q 890 897 890 908 q 885 879 889 887 q 869 872 881 872 l 788 872 q 779 876 781 872 q 777 883 777 880 l 777 944 q 775 982 777 957 q 779 1027 774 1007 l 783 1031 l 876 1031 l 885 1027 q 885 1016 885 1025 q 887 993 886 1007 q 888 972 888 979 l 888 933 m 1022 682 l 1017 674 q 1007 673 1015 674 q 986 671 998 672 q 967 671 973 671 l 960 671 l 955 671 q 928 672 944 671 q 912 674 912 674 l 908 682 q 907 698 908 685 q 906 731 907 711 q 905 764 905 751 l 905 795 q 904 818 905 806 q 908 840 903 829 l 912 843 l 1010 843 l 1017 836 q 1017 824 1017 834 q 1020 798 1018 813 q 1022 775 1022 783 l 1022 716 l 1022 682 m 754 972 q 753 927 754 945 q 750 878 752 909 l 747 876 q 720 872 733 873 q 693 872 706 872 q 683 871 690 872 q 668 870 676 870 q 654 871 661 870 q 643 876 647 873 l 639 882 q 635 923 636 906 q 635 961 635 940 q 634 978 635 968 q 633 998 633 988 q 636 1018 633 1009 q 645 1030 639 1026 q 655 1031 648 1030 q 670 1032 662 1032 q 686 1034 679 1033 q 695 1035 693 1035 q 722 1033 702 1035 q 747 1031 741 1031 l 750 1027 q 753 999 752 1013 q 754 972 754 986 m 890 716 q 889 693 890 708 q 888 678 888 678 l 885 674 l 783 674 l 779 678 q 778 690 779 680 q 777 702 777 700 q 776 724 777 705 q 774 770 775 743 q 772 813 772 798 l 772 818 q 774 824 772 820 q 777 831 777 829 q 778 838 777 834 q 779 843 779 843 l 881 843 l 885 840 q 886 832 885 837 q 888 824 888 827 q 888 804 888 819 q 889 772 889 790 q 890 739 889 755 q 890 716 890 723 m 1280 277 l 1276 273 l 1269 270 l 1186 270 q 1174 281 1175 270 q 1173 299 1173 292 l 1173 317 q 1173 352 1173 330 q 1175 390 1174 374 q 1175 408 1175 405 l 1184 411 l 1265 411 q 1269 409 1265 411 q 1276 408 1273 408 l 1280 404 l 1280 277 m 616 878 l 610 876 q 597 875 609 876 q 569 873 585 874 q 541 872 552 872 l 534 872 q 518 875 528 872 q 508 887 508 878 l 508 1008 q 512 1025 508 1015 q 523 1035 516 1035 l 613 1035 l 616 1008 l 616 878 m 754 674 l 645 674 q 636 687 637 674 q 635 700 635 700 l 635 822 q 636 834 635 822 q 645 847 637 847 l 736 847 q 754 831 754 847 l 754 674 m 1154 317 q 1152 285 1154 301 q 1131 270 1151 270 q 1104 272 1118 270 q 1075 273 1090 273 l 1063 273 l 1048 270 l 1043 273 l 1039 277 l 1039 392 q 1040 404 1039 398 q 1048 411 1041 411 l 1143 411 l 1150 404 q 1150 392 1150 402 q 1152 369 1151 383 q 1154 347 1154 355 l 1154 317 m 1280 187 q 1280 141 1280 161 q 1276 94 1279 122 q 1267 88 1273 88 q 1258 87 1261 87 l 1184 87 q 1175 90 1177 87 q 1173 97 1173 94 l 1173 155 l 1173 212 q 1174 230 1173 219 q 1175 241 1175 241 l 1186 245 l 1272 245 q 1278 240 1275 245 q 1280 234 1280 234 l 1280 187 m 488 889 q 486 885 488 889 q 485 878 485 881 l 481 876 l 379 876 q 376 878 379 876 q 372 882 372 880 l 369 889 l 369 1016 q 371 1022 369 1016 q 372 1030 372 1028 l 376 1035 l 481 1035 l 485 1030 q 486 1022 485 1028 q 488 1016 488 1016 l 488 889 m 621 757 q 619 725 621 744 q 617 692 618 705 q 616 678 616 679 l 602 674 l 523 674 q 512 683 516 674 q 508 700 508 693 l 508 836 l 513 843 l 516 847 l 611 847 l 616 843 q 617 829 616 841 q 619 799 618 816 q 621 770 621 781 l 621 763 l 621 757 m 1022 379 q 1021 329 1022 351 q 1017 277 1020 308 q 1007 270 1012 270 l 912 270 l 908 273 q 907 280 908 276 q 905 284 905 284 l 905 397 q 910 405 905 399 q 916 411 914 411 l 1014 411 q 1021 402 1020 411 q 1022 387 1023 394 q 1022 379 1022 380 m 1154 144 q 1152 125 1154 137 q 1150 104 1151 112 q 1150 94 1150 95 l 1145 91 q 1136 90 1144 91 q 1115 88 1127 90 q 1095 87 1102 87 l 1093 87 q 1063 89 1082 87 q 1045 91 1045 91 l 1039 97 q 1036 109 1039 97 q 1034 126 1034 120 q 1035 149 1034 133 q 1036 182 1036 165 q 1038 215 1037 200 q 1039 238 1039 231 q 1045 243 1041 241 q 1052 245 1050 245 l 1136 245 q 1143 243 1138 245 q 1150 238 1147 241 q 1153 199 1152 213 q 1154 162 1154 184 l 1154 144 m 347 882 l 342 878 q 329 878 341 878 q 300 876 317 877 q 272 876 282 876 q 255 878 265 876 q 239 882 246 880 l 235 887 l 235 1024 l 239 1027 q 246 1032 242 1029 q 250 1035 250 1035 l 340 1035 l 347 1027 l 347 882 m 488 684 l 485 678 q 473 676 485 678 q 456 674 461 674 l 424 674 q 389 674 407 674 q 369 696 372 674 l 369 739 q 369 756 369 744 q 367 781 368 768 q 366 807 367 795 q 365 824 365 819 l 358 835 l 358 840 q 364 844 358 842 q 372 847 369 847 l 481 847 l 485 843 l 488 836 l 488 684 m 888 295 q 886 281 888 290 q 885 273 885 273 l 876 270 l 788 270 l 779 277 q 779 288 779 279 q 777 313 778 298 q 777 336 777 327 l 777 347 q 776 363 777 352 q 777 383 775 373 q 781 402 778 394 q 790 411 783 411 l 881 411 q 885 405 883 411 q 888 399 888 399 l 888 349 l 888 295 m 1017 97 q 1010 89 1017 91 q 994 86 1003 87 q 978 86 986 86 q 969 87 971 87 l 946 87 q 925 89 937 87 q 912 91 912 91 l 905 97 q 905 110 905 97 q 903 141 904 123 q 902 179 903 159 q 901 212 901 198 l 901 216 q 905 232 901 219 q 916 245 908 245 l 1003 245 q 1017 234 1017 245 l 1017 97 m 352 684 l 343 678 l 250 678 q 244 680 247 678 q 239 684 242 682 q 235 728 236 707 q 235 770 235 750 l 235 822 q 237 832 235 824 q 239 843 239 840 q 243 847 239 845 q 247 849 247 849 l 338 849 q 347 844 342 849 q 352 831 352 838 l 352 684 m 758 288 q 743 270 758 270 l 650 270 l 650 399 l 652 408 l 657 411 l 750 411 l 758 404 l 758 288 m 888 205 q 887 163 888 190 q 885 118 886 136 q 885 97 885 100 l 881 91 q 865 89 881 91 q 840 87 849 87 l 822 87 q 809 86 817 87 q 794 86 801 86 q 781 91 786 87 q 777 105 777 95 l 777 231 q 788 245 777 245 l 881 245 q 888 231 888 245 q 888 212 888 219 l 888 205 m 626 288 q 611 270 626 270 l 516 270 l 508 277 l 507 399 l 519 411 l 617 411 l 626 404 l 626 288 m 758 202 q 757 161 758 187 q 754 117 755 134 q 754 97 754 100 l 747 91 l 652 91 l 650 94 l 646 101 l 646 234 l 651 241 l 652 245 l 750 245 l 754 241 q 756 227 754 241 q 758 205 758 213 l 758 202 m 492 317 q 492 309 492 316 q 491 295 492 302 q 490 281 490 288 q 488 273 489 274 l 481 270 l 387 270 q 383 272 387 270 q 376 273 379 273 l 372 277 l 372 390 q 373 401 372 390 q 383 411 375 413 l 426 411 q 456 412 437 411 q 488 408 474 413 q 491 359 490 377 q 492 317 492 341 m 626 141 q 623 119 626 134 q 621 97 621 104 l 616 91 q 585 88 598 88 q 552 87 572 87 l 523 87 q 516 89 520 87 q 508 94 512 91 q 506 137 506 118 q 506 180 506 156 l 506 220 q 509 237 506 229 q 524 245 512 245 l 614 245 q 624 238 623 245 q 626 223 626 230 l 626 184 l 626 141 m 352 277 l 347 273 q 335 272 347 273 q 317 270 324 270 l 293 270 q 282 270 290 270 q 264 270 273 270 q 248 272 255 270 q 239 277 240 273 q 238 297 239 283 q 237 327 237 311 q 235 358 236 344 q 235 379 235 373 l 235 381 q 237 400 235 390 q 253 411 239 411 l 343 411 l 352 404 l 352 277 m 488 101 l 485 94 l 481 91 l 388 91 q 373 97 381 91 q 370 140 370 119 q 369 184 370 161 l 369 231 q 376 241 372 237 q 387 245 379 245 l 474 245 q 478 243 474 245 q 485 241 482 241 l 488 238 l 488 101 m 351 112 q 349 99 351 109 q 337 91 348 88 l 299 91 q 272 90 286 91 q 247 94 259 88 l 243 97 q 239 146 240 119 q 239 194 239 173 l 239 234 l 243 241 q 252 243 243 241 q 268 245 262 245 l 297 245 l 322 245 q 334 243 324 245 q 347 241 344 241 l 352 238 l 351 112 m 1507 691 l 1504 691 l 1504 684 l 1507 691 m 473 811 l 469 811 q 455 804 459 811 q 464 806 461 804 q 473 811 468 808 "},"+":{"x_min":52.78125,"x_max":1112.59375,"ha":1179,"o":"m 1112 885 l 1112 890 q 1104 901 1112 897 q 1090 908 1097 905 l 786 1017 l 779 1017 q 757 991 769 1017 q 733 931 744 965 q 713 864 722 897 q 701 819 704 831 l 523 259 q 501 181 516 219 q 475 103 486 143 l 456 103 q 465 149 456 126 q 481 196 473 172 q 484 208 484 201 q 488 221 483 215 l 751 1084 q 778 1119 757 1103 q 823 1147 800 1134 q 866 1172 847 1160 q 884 1198 884 1184 q 875 1222 884 1212 q 854 1233 866 1233 q 819 1218 844 1233 q 767 1183 794 1203 q 717 1140 740 1162 q 690 1105 694 1119 l 404 166 q 399 152 401 161 q 394 134 397 143 q 387 119 391 126 q 375 111 383 112 q 357 107 372 111 q 340 103 343 103 q 325 99 337 103 q 308 93 313 96 l 301 89 q 283 64 288 79 q 272 32 277 48 q 260 2 268 15 q 237 -16 252 -10 q 205 -26 222 -21 q 171 -36 188 -30 q 138 -51 154 -42 q 112 -73 123 -60 q 101 -87 108 -77 q 87 -107 94 -96 q 74 -126 80 -117 q 66 -137 68 -134 q 56 -160 59 -151 q 52 -187 52 -170 l 52 -196 l 63 -201 q 83 -202 63 -201 q 130 -203 102 -203 q 187 -203 158 -203 q 237 -204 216 -204 q 315 -206 277 -204 q 393 -208 352 -208 l 395 -208 q 411 -204 398 -208 q 427 -201 425 -201 q 440 -182 436 -196 q 446 -152 444 -169 q 450 -121 448 -135 q 456 -101 452 -106 q 481 -83 468 -88 q 509 -66 495 -77 q 520 -57 520 -58 q 527 -45 519 -56 q 573 7 554 -16 q 616 64 593 32 q 629 77 619 66 q 644 93 638 87 q 675 109 658 104 q 704 121 691 114 q 801 184 755 148 q 870 273 847 221 l 1027 631 q 1036 655 1030 637 q 1048 692 1041 673 q 1061 730 1055 712 q 1069 755 1066 748 q 1077 774 1069 758 q 1087 797 1084 790 l 1090 805 l 1112 885 m 768 213 q 765 216 765 213 q 768 220 765 220 q 770 216 770 220 q 768 213 770 213 "},")":{"x_min":55.5625,"x_max":766.734375,"ha":821,"o":"m 766 188 q 766 204 766 197 q 763 219 766 211 l 588 727 q 582 749 586 743 q 573 770 579 755 q 562 800 569 779 q 547 843 555 820 q 533 887 540 866 q 522 916 526 908 l 519 925 q 497 975 505 950 q 481 1027 488 1001 q 468 1080 475 1054 q 451 1133 461 1107 q 445 1145 448 1138 q 437 1152 443 1152 q 427 1145 430 1152 q 420 1132 423 1138 q 370 1006 394 1069 q 323 880 347 943 q 318 865 322 877 q 308 837 313 852 q 297 807 302 822 q 288 786 291 793 q 246 679 268 733 q 202 569 225 625 l 75 244 q 61 213 66 231 q 55 180 55 195 q 56 173 55 175 q 63 169 56 172 q 148 164 106 163 q 234 166 190 165 q 421 165 329 166 q 608 165 513 165 q 616 165 609 165 q 634 165 625 165 q 654 165 644 165 q 670 166 665 166 q 686 166 676 166 q 705 167 695 166 q 722 168 715 168 q 733 168 730 168 q 757 170 748 168 q 766 188 766 173 m 766 60 q 764 98 766 86 q 736 114 762 111 q 439 113 587 112 q 144 110 291 114 q 130 110 140 110 q 109 109 120 110 q 88 107 98 108 q 75 107 79 107 q 65 100 72 104 q 58 91 58 97 l 58 -191 q 75 -215 58 -209 q 257 -215 166 -216 q 440 -212 348 -213 q 535 -215 487 -212 q 630 -216 583 -217 q 645 -213 634 -215 q 658 -212 655 -212 q 677 -211 663 -212 q 704 -210 690 -210 q 732 -209 719 -209 q 752 -209 745 -209 l 759 -201 q 761 -188 759 -201 q 763 -169 763 -176 q 766 -52 766 -110 q 766 60 766 4 "},"'":{"x_min":79.421875,"x_max":527.78125,"ha":613,"o":"m 527 342 q 522 377 527 363 q 500 407 518 391 l 500 413 q 506 455 500 434 q 513 496 513 475 q 490 556 513 528 q 438 591 466 584 q 420 593 436 591 q 401 595 405 595 q 390 607 398 595 q 377 619 381 619 q 339 642 361 637 q 294 647 318 647 q 271 645 279 647 q 247 637 262 644 q 240 629 246 635 q 228 616 234 623 q 216 603 222 609 q 209 595 211 596 l 201 591 q 180 588 197 591 q 158 585 162 585 q 132 573 144 582 q 109 550 119 563 q 94 521 100 537 q 89 492 89 506 q 96 453 89 471 q 107 417 104 435 q 89 384 100 403 q 79 348 79 364 q 109 275 79 302 q 182 249 140 249 l 186 243 l 201 225 q 233 200 216 209 q 271 184 250 191 q 279 181 273 184 q 285 178 285 178 l 285 -185 q 293 -191 285 -189 q 309 -194 301 -193 q 318 -194 316 -194 q 334 -196 325 -194 q 345 -190 343 -197 l 345 -143 q 346 -79 345 -125 q 347 18 347 -33 q 349 116 348 70 q 350 178 350 162 q 361 189 354 185 q 376 194 368 192 q 393 199 384 196 q 406 207 401 202 q 418 225 418 218 q 434 239 419 232 q 445 246 436 241 q 467 255 455 250 q 488 265 479 260 q 500 273 498 270 q 522 303 518 284 q 527 342 527 321 "},"}":{"x_min":86,"x_max":478,"ha":571,"o":"m 478 548 l 478 662 q 471 694 478 681 q 441 708 464 708 q 427 704 433 708 q 421 689 421 701 l 421 431 q 419 415 421 429 q 409 399 418 402 q 393 397 407 399 q 377 395 380 395 q 269 399 324 395 q 161 402 214 402 q 129 402 141 402 q 97 399 118 402 q 87 387 88 397 q 86 372 86 377 l 86 2 l 90 -4 l 100 -4 q 118 -4 105 -4 q 132 7 132 -4 q 135 165 135 84 q 140 324 134 245 q 144 335 140 330 q 153 340 148 340 l 240 340 q 323 339 284 340 q 407 336 361 338 q 412 333 407 336 q 417 329 417 331 l 417 0 q 426 -11 417 -11 q 441 -11 436 -11 q 466 -4 461 -11 q 471 20 471 1 q 474 283 471 154 q 478 548 478 413 "}}}
